<mxfile host="app.diagrams.net" agent="Mozilla/5.0 (Macintosh; Intel Mac OS X 10_15_7) AppleWebKit/537.36 (KHTML, like Gecko) Chrome/137.0.0.0 Safari/537.36" version="28.0.4">
  <diagram name="Page-1" id="WctalsOpEGwsnJ2dZ7Gi">
    <mxGraphModel dx="1028" dy="580" grid="1" gridSize="10" guides="1" tooltips="1" connect="1" arrows="1" fold="1" page="1" pageScale="1" pageWidth="850" pageHeight="1100" math="0" shadow="0">
      <root>
        <mxCell id="0" />
        <mxCell id="1" parent="0" />
        <mxCell id="57NM1Wxke1sPUCWePYtD-47" value="" style="edgeStyle=orthogonalEdgeStyle;rounded=0;orthogonalLoop=1;jettySize=auto;html=1;" edge="1" parent="1" source="57NM1Wxke1sPUCWePYtD-22" target="57NM1Wxke1sPUCWePYtD-46">
          <mxGeometry relative="1" as="geometry" />
        </mxCell>
        <mxCell id="57NM1Wxke1sPUCWePYtD-22" value="" style="rounded=0;whiteSpace=wrap;html=1;fillColor=#dae8fc;strokeColor=#6c8ebf;" vertex="1" parent="1">
          <mxGeometry x="530" y="210" width="240" height="190" as="geometry" />
        </mxCell>
        <mxCell id="57NM1Wxke1sPUCWePYtD-9" value="" style="edgeStyle=orthogonalEdgeStyle;rounded=0;orthogonalLoop=1;jettySize=auto;html=1;" edge="1" parent="1" source="57NM1Wxke1sPUCWePYtD-1" target="57NM1Wxke1sPUCWePYtD-8">
          <mxGeometry relative="1" as="geometry" />
        </mxCell>
        <mxCell id="57NM1Wxke1sPUCWePYtD-12" style="edgeStyle=orthogonalEdgeStyle;rounded=0;orthogonalLoop=1;jettySize=auto;html=1;entryX=0;entryY=0.5;entryDx=0;entryDy=0;" edge="1" parent="1" source="57NM1Wxke1sPUCWePYtD-1" target="57NM1Wxke1sPUCWePYtD-10">
          <mxGeometry relative="1" as="geometry">
            <Array as="points">
              <mxPoint x="300" y="374" />
            </Array>
          </mxGeometry>
        </mxCell>
        <mxCell id="57NM1Wxke1sPUCWePYtD-1" value="" style="shape=trapezoid;perimeter=trapezoidPerimeter;whiteSpace=wrap;html=1;fixedSize=1;rotation=90;fillColor=#1ba1e2;strokeColor=#006EAF;fontColor=#ffffff;" vertex="1" parent="1">
          <mxGeometry x="240" y="254" width="120" height="60" as="geometry" />
        </mxCell>
        <mxCell id="57NM1Wxke1sPUCWePYtD-4" value="" style="shape=image;verticalLabelPosition=bottom;labelBackgroundColor=default;verticalAlign=top;aspect=fixed;imageAspect=0;image=data:image/png,iVBORw0KGgoAAAANSUhEUgAAAgAAAAIACAYAAAD0eNT6AAAAAXNSR0IArs4c6QAAAERlWElmTU0AKgAAAAgAAYdpAAQAAAABAAAAGgAAAAAAA6ABAAMAAAABAAEAAKACAAQAAAABAAACAKADAAQAAAABAAACAAAAAAAL+LWFAABAAElEQVR4Ae2dB9gkVZm2B8kMGQQRYQQlZzAQVBARUTHrugYw/KZVd1Exu7sOq7LmFcOaXRzTCq6KGAEVRVAkSQ6iDklyHHLyfx5myunv6+ru6u4K76m6z3U939ddXXXqPfcJ9dZ7KiwzhwQBCHSBwM4q5JOkXaUtpQ2k1aV7pFulv0jnS7+WfiZdLpEgAAEIQAACEEiQwKqy+S2SD+x/G0P3ad1fSM+RHiSRIAABCEAAAhBIgIAP2q+TrpPGOfDnrXum8niCRIIABCAAAQhAIDCBh8k2h/HzDuaTLrtf+X1SWlEiQQACEIAABCAQjMCjZc810qQH+lHbnaS81wlWZsyBAAQgAAEIdJrAHir9ImnUQXza38/VPtbtNGkKDwEIQAACEAhCYGvZcYM07cG96PYna18rByk7ZkAAAhCAAAQ6SWCuSu2z8qIH77LW+0InaVNoCEAAAhCAQBACh8mOsg7q4+bztCAMMAMCEIAABCDQKQLbq7T3SuMeuMta/0/a9wqdIk5hIQABCEAAAgEIHCEbyjqYT5rPqwJwwAQIQAACEIBAZwhsrJL6iX2THrjL2s7XH5AgAIEECfCYzwQrDZMhIAIvkSL0X9+BsAs1AgEIpEcgwgCSHjUshkDzBPZv3oS/W/D0v3/iAwQgAAEIQAAClRFYRTnfLZUVxp82H784iAQBCCRGgAhAYhWGuRAQgc2l5QOR2CaQLZgCAQgUJIADUBAUq0EgEIFNA9liU9aTVgtmE+ZAAAIjCOAAjADEzxAISGDNgDatEdAmTIIABIYQwAEYAoefIBCUwEoB7fJ1CSQIQCAhAjgACVUWpkJgCYFlApKIaFNATJgEgTgEcADi1AWWQAACEIAABGojgANQG2p2BAEIQAACEIhDAAcgTl1gCQQgAAEIQKA2AjgAtaFmRxCAAAQgAIE4BHAA4tQFlkAAAhCAAARqI4ADUBtqdgQBCEAAAhCIQwAHIE5dYAkEIAABCECgNgI4ALWhZkcQgAAEIACBOARwAOLUBZZAAAIQgAAEaiOAA1AbanYEAQhAAAIQiEMAByBOXWAJBCAAAQhAoDYCOAC1oWZHEIAABCAAgTgEcADi1AWWQAACEIAABGojgANQG2p2BAEIQAACEIhDAAcgTl1gCQQgAAEIQKA2AjgAtaFmRxCAAAQgAIE4BJaLYwqWQGBqApsqhy2l9aQVluR2g/5fJp0t3b5kGf8gMIzAOvpxe2lDaZUlK96m/5dLbkduUyQIJE8AByD5Kux0AXyQf7b0XOnJ0trSoHSvfjhdOlr6urRQIkEgI7C7PrxQepr0yGzhgP8Xa/mPpW9JvxuwDoshAAEIQKACAnOV5zula6S/TaD7tM33pO2kFNMbZPQk5a5ymy1SBCmbnyXZMZyUzRna9jnSMhIJAhCAAAQqJPAM5e2Q/qQDdu92dgQ+JdmhSCnhAExfW5soi19Kve1hms/HK6/NJBIEIAABCJRMYHnl54P1NIP0oG3/qHx3LtneKrPDAZiO7gHafJE0qD1MuvxW5fmP05nG1hCAAAQg0EtgZX35mTTpwFxkuzuVvw+sKSQcgMlqyRf0fVkq0h4mXed+5f+uycxjKwhAAAIQ6CXgM/9jpUkH5HG3O1L7WqPXgICfcQDGr5SttMnZ0rjtYdL13zG+iWwBAQhAAAK9BD6nL5MOwpNu56u8I08J4AD0tpDRnx3yd3h+0vYwyXaOBPjuFBIEIAABCExAwLf4TTL4lrGNpwQOmsDmOjbBAShGeSWtdphURnuYJI+btO+Ni5nKWhCAAAQgkBFYSx+ulSYZeMvc5kjZEG1KAAcgayWD/9cd8h/U5o4ebCK/QAACEIBAHoEPa+GgQbXu5Qtly655Rja0DAdgOPiX6ucqrvKftN3tPdxcfoUABCAAgYzAmvpQ95ztqME90l0COABZS5n5v46r/Ee1k7zfj5lpJt8gAAEIQGAQgX/RD3kDaYRlEaYEcAD6W06UkH9eG/UFgTwkqL/OWNIwAd4G2HAFsPtcAs/PXRpjoW07U4o0JRCDTHNWOOT/e2nb5kwYumc/Jvh5Q9fgRwg0QAAHoAHo7HIogdX1625D12j+x3ky4XjJZ+Kk5ghkIf+vyYRVmzOj0J6fWmgtVoJAjQRwAGqEza4KEfD99ym8pXJF2flp6XuS71gg1UvALx/6rfTKenc78d7crhlvJ8bHhlUQoEFWQZU8pyHgudyUkp9VcIoU+cFBKfEsYqsf7HOatH2RlYOs4wgFzwQIUhmYsZgADgAtIRqBDaIZVMCeR2idkySmBArAmmKVLOS/QHnMnSKfpjZ9aFM7Zr8QyCOAA5BHhWVNEkhxYDcvpgSqbTWphfzzaKTatvPKwrIWEMABaEEltqwIvo0q5ZRNCeySciGC2Z5iyD8PYeptO69MLEuYAA5AwpXXUtNvaEG5PCVwohT1XQKpIM6e5Z9qyH825+tnL+A7BJokgAPQJH32nUfg8ryFCS7zlMAnpCOlaO8SSAGnLwY9RfJDodqSrmhLQShHOwjgALSjHttUCj9kp02JBweNX5vRH+wzfonmzPmrNrpmkg3ZBgJVEcABqIos+U5K4DxtePOkGwfdjgcHFauY7Cr/FB7sU6xES9fyMwtIEAhFAAcgVHVgjAjcI/2shSSyuwSYEsivXIf8T5Zemf9z8kt/lHwJKEDrCOAAtK5KW1Ggr7eiFPmFYEqgn0sbQ/69pbxDX77fu4DPEIhAAAcgQi1gw2wCP9aCv8xe2KLvTAksrsw2h/x7m6sd2ht7F/AZAhCAAAQGE3iFfvJ9023XJO8SeENALn5QzzjJ6/uCz7bX790q4ybjgGFdCEAAAl0nsKwAeE647QcIl+9iaZwHB6XuAPjBPrd2pG4/oHKSIAABCEBgTAJ+v/vtUhecgDtVTh/Yi6RUHYAs5N+F+nQZz5Z88ScJAhCAAAQmIPBibdOVA4bLWWRKIEUHoCsh/6yt+lZW39lAggAEIACBKQi8RdtmA2sX/i9UeXcdwis1B8BX+S+SulB3LuNt0l4SCQIQgAAESiDgR8LeK3XlIDJsSiAVB6BrIX+3zWulPSQSBCAAAQiUSGA/5XWd1BUnwOU8Upr9LoEUHACHvz0H3qW6+oPKu6lEggAEIACBCgg8THn+RurSgWWhyts7JRDdAehayN9tcYHkiAcJAskQWC4ZSzG0KAHX6U6Sz8B8//Fq0vKS5yUvk/4o+fY6z8mmmC6X0U+UDpUOlpaR2p7mqYDHSy7vZ6SoyQfAT0mvjGpgBXa5H71O+mYFeded5craoSMYGyzZsafc/HruP0keP0gQgEBAAivIJj9i1leQe0AadXbs5+2fIPlMci0p1bS/DO/ilMC7VO5RdVz378+WTWcHtKtKDg75j/sAJG0SJj1IljxBOkw6S7pPyuN1v5b7xOHz0jMkThwFgQSBpgm4I/6TdKmU13GLLLtF235Qmj3PrEVJpI1l5UlSkbK2ZZ2IF0PaqWwL3yLl8MHQZ8wpJkcEHbXwQb1IWWevc6W2sxPq6CIJAhBogMAu2qfPQGZ3zkm/u1M7ipBi8oD2EclnKpOWn+1gV6QN2GH2sylSTU+S4RdIRco6ap2rlE/KLFKtQ+zuOIHXqvy+TWxUB53kd88xpxri6+KUwCR1zDaT9Z2UQ/5+tPaHpSqc5G8p31UlEgQgUDGB9yn/qgfwH2ofK1Vcjqqy7+KUQNXtgfwXz3+nGvKfq87mPl1lPZ6m/NerqlOTLwQgsHjercpO3Jv3UQKeaiSAKYFqB/vedtL2z6mH/O3IHyvVUU/naj9rSyQIQKBkAs9RflWE74YNDJ5XTzkxJVDPwD+sDaX8W8oh/6zffk0f6qyDE7Q/O+AkCECgJAJ++I3vx62zI3tfdjj2k1JOTAnU327qbqdV7C/lq/yz/vpqfaiCzag8P5QZwH8IQGB6At9WFqM6XVW/+yEgqc59ZuSZEmiu/VTVLqvKN/WQf9bmH6oPN0lVcRqWr29T3TkzhP8QgMDkBB6jTYd1tjp+e/Pk5ofakimB5ttSHe110n20IeSfdbgvNjxu/CozhP8QgMDkBL6rTScd0Mra7grZ0JZ5PaYEmm9PZbXLMvNpQ8g/G2Xm6cPdAcaNJ2QG8R8CEBifwIO1SYSO7IHWZ89tSb67Yb406NGnZR5YyCu2w+FHZ79EalM6RIWJ0O7a8H6ENrULypIYgdcE6cgeTBYkxq6IuUwJxDhQNHWwalPIv7e9T/qI37Lr4XYZ5WcQkCAAgQkIHKFtyu6Uk+bnaYA2Jt9h8RtpUi5slyY7O7RtfH3vJsHacup3EQlne5PfBkWKS+DRgUzzVcUbBrKnLFMuV0ZPlD4q+WBOajeBLOR/oIrpM9S2pd2DFWiPYPZgTg8BHIAeGME++glevmAtUtoikjEl2nKP8nqb9Ezp+hLzJatYBM6UOXaq2zw3vXUs5HOi2RMMT7Pm4AA0y3/Y3tfVj9HqZ94wg1vwm5+XvqN0YgvKQhFmEvAT8Xx2fOHMxa375imASKmNUcNIfKeyJdoBZqrCtGzjiBfPeBqg7YkpgXbVcNtD/rNra4PZCxr+vkbD+2f3QwjgAAyB0/BPdzW8/7zdd8EBcLmZEsir/fSWnSeTd5PaHPKfXSvRzrh9qy0pKAEcgKAVI7NuDmhatMGlakSeEvAjTX9b9Y7Iv3QCX1COj5LOLT3n2BlGiwC08ULL2C1gDOtwAMaAVfOqfo73nTXvc9TuuhIB6OVwqb74iWZ+uMr9vT/wOSSBW2XVS6XXSneEtLA6o9ZU1qtWl/1EOV810VZsVAsBHIBaME+0E9+S9teJtqxuoy46AKbpl5vMl54lcZeAIARNDvnvKn0jqH1VmxWxf7b1+SFV12Ut+eMA1IJ54p1EcwAeopIsO3Fp0t+QuwTi1qGv8vctfl0L+ffWSEQH4MpeA/kciwAOQKz6mG1NNAfAB//1ZhvZse++S2AviSmBGBWfhfzb+mCfcShHvEaHCMA4NVjzujgANQMfc3fRHACbH3GQGRPr1KszJTA1wlIy6HrIfzbEiBGAiGPYbG6d/Y4DELvqI3aeiINMU7XIlEBT5OfMIeTfzz7aHQC2MOIY1k+uo0twAGJXfMTOgwMws80wJTCTR9XfCPkPJhwxOscUwOD6avwXHIDGq2CoARE7Dw5Af5UxJdDPpIolhPyHU43WN++Wudw1M7zOGv0VB6BR/CN3TgRgJKJQKzAlUF11EPIfzTaaA+Dxizdsjq63xtbAAWgMfaEdR4wARAwzFoJZ00pMCZQLmpB/MZ4ey32bbqQU8QQmEh9sgcBIAn4ksL3oKPIrVUnFCOyv1a6TotRdanb4nv5tiqHu/FrrB2xnR3a+VoIDIAIQvIJkXrQoQLQwY+QaZEpg8toh5D8eu4j9MtrYNR7RDqyNAxC/kqOF0dYRspXiYwtjIVMC41UFIf/xeGVrR3QAeApgVjtB/+MABK2YHrOiOQDLyLaI9xv3IAv3kbsEilUJV/kX45S3VsRrc4gA5NVUoGU4AIEqY4ApETtRxLONAfhCLWZKYHB1EPIfzKbILxH7ZLSTlyIcO7UODkD86o4YRos42MSvycUWMiUws6YI+c/kMem3iH0SB2DS2qxpOxyAmkBPsZuInSjiYDMF4to3ZUpgMXJC/uU1vYh9MmL0sjziLcgJByB+JUbsRBEHm/g12W9hl6cECPn3t4dplkTrk47sLJqmQGxbPQEcgOoZT7sHIgDTEoy9fdemBAj5V9Meo10EGPHEpRry5AqBCgksr7zvkyI9xOUXFZa3y1m3/cFBPNinmtbNGFEN19bnSgQgfhXfIxOjvVAjWrgxfi0Ws7DNUwKE/Iu1gUnW8m250cZyIgCT1GTN20RrNDUXP5ndRetM0cKNyVRkAUPbNiVAyL9ApU+5SkSHPOLU5ZSY27c5DkAadRqtM60qbKulgS5JK9tylwBX+dfT/HAA6uHcur0sl3CJHiHb95UeK20m+U1Ya0p3Sw6ZL5TOlo6Xfi3dIaWaojkA5ugowAWpAk3Ebk8J7Cz9r7RbIjZnZn5BH94kpdzvsrJE/x/xyZwRn18yTj365Ur7ST6+bC1tJK0l3S/5BV8ek8+RTpJ+Ll0rkSomMFf5v076gzTORXG+HeXL0k5SiukQGT1OeetYd+8UQSZqsy/y+ojkwaeOup1mH7fIxhdLpPoIHKpdTVNnVWz7uPqKX9qellVOz5V8QL9PKsrFEbsfSc+Q/Kh0UskEPFXxWsleZdFKyVvPA+j/SY4epJReI2PzytPkspemBLAltka/S8CO+RYtYZ1SMQ6XsU2OBXn73iQlgLL1yZIjxnllGWfZacrj8RKpJALzlM+vpHEqYdS6Dkv6rHplKYXkgX9Umer+/e0pgGuhjRurTCcHbA+OsKXSn9rWLI4J1h58opXKG0PnydbvlszP5f+MtKJEmoKAw0jXSFUd3P6svJ85hX11bep54KoYTJrvYXUVnv30EXhDwPawZZ+VLKiLgOeiJ+3HVWznOfLoyQfnd0u3SVUwcJ6nSL6WgDQBAc8x3y5VVTm9+fpiq8jTAr7AsdfeCJ+PlE2kZgjgADTDPepeb5RhEcaEzIazooJaYtdT9P/Cmph5P9w2vQR80X87asVbpaxB1fHf0wLzpYhhTF8DcbdUB4ei+zhR9pCaIYAD0Az3iHtdRUYV7bN1rffTiKBkk6fPvtMAL18bs5oULvnAEi35VovvSXNrNsxzVu+VHE7z1ZyRkueUro5kkGx5aDB7MAcCXSQQsR/6FrlIaQUZ8y7Jz6V4XgOG7aB9fqmB/Y7cZUQH4KOy+uEjLa9uhU2V9Q+koyV/jpKuiGLIEjt87/EywWzCHAh0jUBEByDSWLWvGoSnJA6V6j6p7G2L/6AvL+ldEOFzNAdgN0F5RQQwssFX3jsa4KhAhCtao3nVvohmXYkEAQg0RyDi/HKEsWojVcmR0s+kLZqrnhl7/rC+rTpjScNfojkA7xOPSGeVvh5gvuS3mNkhaDJF6FSzyx/x7GO2jXyHQJsJROyDTY5VK6iy3ymdLz0/WMW7rt4YyaZIDsD2AvOkSHB6bPFUgKcEPDWwSc/yOj822akGlTPi4DPIVpZDoI0EIvbBpsaqfVTBDvf/p9RkuH9YO3uDflx+2Ap1/hbJAXh5nQWfcF++ONDRgH+X6p4WiDSvluGLOPhktvEfAl0gELEP1j1WPUwVfYR0rBQl3D+o7dnWvQf9WPfySA5A0yH2ouw9LXCI5OsDnl50oxLWa8qrHmZ6xMFnmL38BoG2EYjWB/0M/bruWHK4/x2SX0r2AimV9OwohkZxAHzBxmZRoBS0ww8O+qF0lFTHtEBEByDiBUgFq4/VINAKAtH6oA/+dgKqTp4uPlP6oBQ13D+IgZ9wGyJFcQC2C0FjMiP8KGFPC/ybVOW0QEQHINrZx2Q1yFYQSJeAb8eNlKoepxxC/7Z0nLRlpIKPYcvWWrfKY0VhU6I4AD6bTjl5WuA/JL9N6mkVFcSP+/SjkSMlHIBItYEtXSPgh6atEqzQVTkAvnDu7ZKv7vc99SknH3cd9W48RXEA1mmcRDkGPFLZ/Ej6vvRwqex0ZdkZTpkfDsCUANkcAlMQiNj/qnAA9hYjh/s/JIW6j36KugvxDJUoDoC9uzalZ6kwnhb4V2nFEgtW99W1o0xfTyssN2olfocABCohENEBKHOM8vUN/yv9XNqqEoLNZRrimBfFAbizuXqobM8Ozb1P8t0CTy1pL1V419OYtqw2fsg0GbAtBCAwMYGIDkAZY5QPjm+VfHX/CyemE3vD2yKYF8UBiBbaLrNuPC3wY+m70rwpMy6jc01pQt/mEQehPiNZAIEWEoh2B4ARTztGPVF5+O15H5HaEu5XUfrStX1LGlgQxQH4UwNlr3uXz9EOz5PeI006LTBt56qizDgAVVAlTwiMJhCx7006Rrks35J+Ifkq+TanW1W4yyMUMIoDcKpg3BcBSMU2eFrg/ZLvFthvgn2VOb82we5zN4k4COUaykIItIxAxL43rgPgcP/BksP9/9iy+hlUHF/Q6Fe8N56iOACLROKUxmnUZ8Bm2tVPpP+TxpkWGLdz1VGiiGHIOsrNPiDQNIFoDsCdAnL9GFD20rpnSB+VVpO6ko6NUtAoDoB5+GDYtfRcFdjTAu+WikwLRHQAog1CXWtDlLe7BKI5376W628FqsNjxjelX0rbFFi/bauEOdZFcgC+plq+q201XaA8nhb4gOS3WD1lxPo4ACMA8TMEOkLAY/dDgpV11PjkcP9bJIf7XxTM9rrMOVk78p1hIVIkB+BqEbET0NW0uQr+U+k70sYDINyu5TcN+K2pxUQAmiLPfrtMYD0VPtozOIY5AHvK3tOlj0ldCveruDPSB2d8a/hLJAfAKOZLPsh1OT1Phfe0wLukFXJAXJGzrMlFOABN0mffXSUQsd/ljU1+V8HXJYf7t+1qZS0p9+/0/6hIDKI5AG5A/xYJUEO2zNV+D5U8LbDvLBuGedmzVq3l69ray8q17ImdQAACGYFo8/+2q3dscnTizZLD/S+RlpG6nO5R4V8nFblGojZO0RwAF/wT0rG1EYi9oy1k3s+kI6WNlpja28mWLGr8X8SzkcahYAAEKiQQsc9lY9MTVG6H+z8urV4hg5SyfpuM9e1/oVJEB8D3R/6D5Lc+kRYTeL7+mcc7pesWLwr1N+JgFAoQxkCgZAIR+5zHbl/Hdby0nURaTOBL+ndYRBjRLiLJGPlCtydJP5e2yhZ2/L+nBf5TcigpWoo4GEVjhD0QKJNAxD63QAWMekwpk/04eX1DKzv0HzJFjABkoHxP6eOl47IF/H+AwPIBOUQcjAJiwiQIlEYgYp/j4L+0ej3X/wHpAOm+pYtjfYrsAJjU9dJ+0nukOyVSTAIbxjQLqyDQWgL0ubhV65PXp0p+HXyoi/5mI4vuANhee0+HSjtIx0qkeAQino3Eo4RFECiPAH2uPJZl5XSvMvJF7FtKvng7fErBAcggXqQP+0rPlC7JFvI/BAEGoxDVgBEdIbCCyrluR8qaSjFPkKG7SL718ZZUjE7JAciYHq0Pfl3kIdJd2UL+N0oAB6BR/Oy8YwTc37p+X32UKr9KhrxM2lPyc1uSSik6AAbspwXOl3yriR+fS2qWAPORzfJn790igMPdfH37lscvSA73L5BCz/XLvtyUqgOQFeaP+uCLLZgWyIg0898vNFqzmV2zVwh0jgAOd7NVfop2v6v0WunmZk2Zbu+pOwBZ6ZkWyEg095+zkubYs+duEaCvNVPfvivtTZIP/nYCkk9tcQBcEb3TAklcgZl865lZAAalmTz4BoGqCNDXqiKbn2/2hMMt9LOf6OfvrUhtcgCyCvG0gJ8d4GmBS7OF/K+cAGHJyhGzAwg8QAAHoL6GcKp25TP+AyVHAFqV2ugAZBXkaQE/Rpi7BTIi1f5nUKqWL7lDICNAX8tIVPc/C/c/VrtoRbg/D1WbHQCXN5sW2F6fmRbIawHlLdugvKzICQIQGEKAaNsQOFP+1Npwfx6XtjsAWZkv0gemBTIa1fxnUKqGK7lCYDYBIgCziZTz3eH+3aRWhvvzEHXFAcjK3nu3wN3ZQv6XQoBBqRSMZAKBoQRW1a+rDV2DH8clcIM28NX9Dvf/ftyNU16/aw6A6+o2ab60nXSMRCqHAA5AORzJBQLDCBBpG0ZnvN86Fe7PQ9NFByDjcJE+PEXy3QKXZQv5PzEBXwPQ5fY0MTg2hMAYBHAAxoA1ZNXecP91Q9Zr9U8M2HPm9N4tcHera7vawi2v7B9c7S7IHQKdJ0Ckbbom0Nlwfx42HIDFVLJpAd8tcGweKJYVIsDgVAgTK0FgYgL0scnQdT7cn4cNB2AmlQv1NXvlMNMCM9kU+cbgVIQS60BgcgL0sfHZnaZNdpd8dX9nw/152HAA8qgwLZBPZfRS5idHM2INCExDAAegOL0s3P8YbXJy8c26syYOwOC67p0WOG7wavzSQ4DBqQcGHyFQAQH62GiohPtHM3pgDRyA0aA8LfBkyXcLXD569U6vweDU6eqn8DUQIMo2HDLh/uF8ZvyKAzADx9AvvltgW8lvg7p36Jrd/XFLFX257hafkkOgUgLrKPeHVLqHdDP33P6rJML96dZhMpb7QOe7Bf6G+hhcICb7SKTqCLxBWUdre+4TpGoILKNsfQHbNVK0em/anvvEZIHELciCQKqXwAu0u6ukpjtBxP07YvKwequjM3vDAehMVc/ZWUX9rRSxjzdtk8P9flUvCQKNEVhDe/a0wD1S0x0i2v5vEpODJKYFBKHEhANQIsygWa0lu7Lpxmj9uml7fHW/x5Vlg9YdZnWQwA4q8wlS050j4v7PFJfHdbBNVFVkHICqyDafL+H+wWOor+4n3N98G8WCAQSyzsu0QH8nzjrv+gPYsbg4ARyA4qxSWnMnGXuSFNGJb9omwv0pteSO27qmyu/wHdMC/YMZ0wLTdw4cgOkZRsphLRnj8cJ3FzV9oI22f8L9kVoqtoxFwNMCv5GidaoI9vxBXJgWGKs5/X1lHIC/o0j6QxYxvFqliNAnI9mQRQy5uj/pJo7xawjBL+jguQOcO/nhEtMCgjBGwgEYA1bQVXeRXb+TIh10I9nyAbHhIr+gjRezRhPYSqs4rLdIitSxItpyoxgdJNHhBaFAwgEoACnoKtn0IOH+0ePiX1WHH5TmBa1LzILADAIr6pufDcBDgkZ37jxHxNMCe8wgypc8AjgAeVRiLyPcP9mY4HHCD/vxmOqxlZMEQSDFIrC5zLGn6sdR5h3YWFacSzb3x7TA4DaOAzCYTcRfdpRRJ0qMA9MzuEwc50vrSSQINEZgBe05O9v3QYvOXS4DpgUGN20cgMFsIv1CuL/cMaF3jL1LFX2E5MeOO7pCgkAtBDbUXuZLXLlbXefu7ehniDXTAoLQk3AAemAE/Ei4v56xIRsn/MbWd0h+WRIJAqUT8FsT7Wna4+TinXo7tzt5Ni1A2E8wlHAAFnOI+Jdwf/3jQ+YI3KEGkUUFIrYNbEqMwAay157lQilrZPxvjgXTAmqISjgAizlE+ku4v7lxIW9MPleNw3cWrRqpkWBLfAK9Z/t3y9y8xsWyZrl4WmD3+E2pMgtxACpDO3bGWbifx383OyYMGpNvUY1+XnJkhgSBgQTswdtjvFga1JhYHodNl6cFcAAGduNaf9hBe/sN40Uy4+WpqqvXSKtIJAg8QMBP5LKHeLvEAT49Bjeq3uy4den+YBwAVXiDiXB/euNE79h+k9qOx/xtGmxD7LpBAqtr3/YEz5R6Gwaf0+VxuuqyK9MCOACq7AYS4f50x4dBY7ujAgdKyzfQnthlzQSys/1btd9BDYLl6bLpyrQADkDNA4d2R7g/3XGhyJjuazj8MLdN6m9a7LFKAispc3t4fp90kYbAOulzavsrRHEAqhwxZua9hr76nR73SIwN7WfQ+9jh5WY2Bb6lRGBLGWuP7nqJjttNBp4W2E1qW8IBqL5GCfd3c8zoPVZcoWbmY8hG1Tc39lAGgd6X8Tgc3FuZfO4mj2xa4MFlNLAgeeAAVFsR2yv7EyTGDBi4Dfjhb34Z0TMkO4akYAQeKXvsqV0r0WlhkNcG2jQtgANQzQA0d8k4QrifMSRvDPGyP0p+OFybTihUnPSSb/uyR2bPjLN9OuygDjt7ua8FSX1aAAdAlVhy8ljiN83Nbi98h0leG7hTbSV77DBRgZI747DsHqof7YFdKuVVDMvgMqoNpD4tgAMwbIQY77cttLpPIka1GX6H0aA2cL7aj49Ja0ukCgj0Pp6X8BwdcVBHHHd5qtMCOADTDzIO98+X7pLGbTesD7O8NnCH2tICaWeJVAKBhygPe1Z/lvKAswwuZbQBTwvsKqWScACmqymH+4kgMnaUMXYMyiN77LAdTdKYBLbR+l+TeBkPnXRQByt7ue///ZyUQhgPB0AVNUHaTtv8Siq77ZAfTAe1AT+q/H3SuhJpBAE/dOPTkm+7GASU5bCpsg1cp7b3asnTTlETDsB4NbO6Vv+4xPQhY0eVY8ewvO0IvF4KNa5EMsbzJg7FenDzFf4kCDRBYB3t9AvSKVJK0wJNsEphnw73nyO9WeLJbinUWDtt9AukPiMdJ60fpYhRHIBnCsiJ0iOigOmAHX4fwhelR0uvla6XSEsJ2CF1m/yslMK0wFLL+WQC20rHSz+QeJKbIPSks/T5idKzpJ9IviuGVA8Bcz9J2rSe3cXfiw/+hObqC8258zsU5bBob/KZr1+R6bnwYaGsLv52rZi8SoriMDMFoMoYkFbT8o9JXD/U34/9GtyDpNmRkE207FDpKqmL/buJMl8u1vOkTqdHqfS3S01UQJf2eYcYL5D2kEYlRwQc/u4Sn6Jl/Z24+I2STSccgPwaeJEW+/ntReuzK+v5DN8XVfuuqmFpBf34QukXkrfpCp+mynmuGNth7WTyGejFUlPwu7DfC8X3YMln9+Mkn+lm0wJd4DROGX2B6n9LTU4L4ADMbM3b6OsvpXHqsSvrOuL3hJm4Cn3bUmv9l3SD1BVWTZTzq4Vqo4UrfYKGVUnH8gHqaGkfaRlpmrSWNvarUJ1nE50j8j59zYTDqU1MC+AACLzSXGm+xMN8+vunr/ExG5/VT5N6X7AWuT+mbNtTp6mgFLfdXEYz79/faadpxAvF9D3SBlLZ6THK8BRpGvvauu1vxWXnsoGPyA8HYM6cfxQjwv39fdKh+69LVYwDOypfXxR7i9TW/txEuc4Tz07d+fZlGlApHcgX7P1Q2r+GBuQz3ddJPvNtopNE3qcjJL7FxxGTOlKXHYCtBdhz1JHbQ1O2nS0ue9bQAD1v7bHgDKmpsrZtv8+vod5C7GINWcGFf9N1nCvF8P3SvAZqdF3t84sSdwv01+E14vJKadqpF2UxNHXRAVhVRD4scXV/f7u7WVzeIi0v1Z38rIzDJcb0/noZx0n5Zd0V19T+PECOA4Z1F/NyaO846QVSEx1du52RHqtvp0rUTz+Dk8Rlpxm0yv3SNQfAV6ZfLtHWZjLwmPAN6aFS08nRrzdJ50vU0/gMfEIVoR5lRrXp28qeBlKcge/d/by0TbXVMlHunhY4ULpWok5nMnCHXiA5YlJ26ooDsJnA/VSibfUzuFBc9i27YZWU3y7Kx2MWUYH+ehvWll9WEv/Q2Vwq64ZB4LfFfE4UpwOklULX5mLjHqx/X5KYFuhv21eLy8ulMqcF2u4AONz/IYlwf3978gV4B0sRooAyY2haX7++S/qzxLg+msEXhtJswY+e/3fYisaQz8Bzeb6YbHspxeT5wNMk6refgR06X0VdRmqzA/APAnSZRBvqZ/AtcUkxTOxIoW91O0riluL+es3a+q/Fp9VpK5UuKyz/l7I4XVxeI/nMJ/Xk21n8qGEeILK0frO27sHvU9Ka0jSpjQ6AHzxzrJSx4v9SFueKyxOnaTCBtt1IthwiXSFRxzMZLBSTViefIVLpixncJhZfkR7T0hr3tMCXJSI+/W3e0wIvkyadFmiTAzBXHD4o3SUxNsxksEhM3iqlEO6XmWOl5bT2c6SfSUwdLq5332Ld6uQrx7veyS8Ug3dI67S6ppcW7lH6eLLU9XrPK/8p4vLopagKf2qLA/AMlXihlMem68uOFpeNpS6kR6iQdgLtGHe53lvvAGzT0Qr22Y3n7/aUupg8LeCDFtMC/QOcpwU+KY0zLZC6A7CFynuM1OXBflDZzxOXvaUuphVV6BdLngsfxKfNyxeq3K1Oq6l0ba7A2WXzxUzzpfUk0uIX6BwmEIT8+vvBdeJS9N0CqToAq6iM86U7pdl9pevfPSVoNj4IkubMsZPoqID7RVfaxq+6UPGXtrxC/Y6D70n7SQ+SSP0EdteiM6SudOxxynmCuOzQj2zGkhQdgOepBG3v++PUc++63xabh82oYb5kBOw0vlL6vdTLrI2fP58Vus3/3djbWHmXq1zzpQ0l0mgCnhZ4o3Sj1Mb2ME2Z7EQ6UrKGlJdScgD84i9f6DUNj7Zu66fmPSmvglmWS2AXLf2idKvUxjbx0txSt2zhgS2qPIey/aSyZ0vLSaTxCfhhIYdL3C3QP6hdKS4HSLPvFkjBAfCZ26GSr39p42A9TZl8APOFwCtIpPEJ2DF2HzhLmqYeIm3ra4EeIrU+ufJulyLBH9cWX63q+alHSKRyCOyhbP4gjVsXXVj/1+LS+3Co6A7Ac2XvJdRlbls+QlwI9wtCSelxyudr0h1SymOBL4rtTPqcSppiZfkijRdJXKhTTVP1tMA/S0wL9PcPTwt8QsrOfqL1ny1l22aSI2LRbItgzwXi8mSJVA0B31Z9sHSRFKG+x7XBTnNn0iNV0lRCgz4YeT52687UTvMF9bTAVyWmBfoHM08LHC2NO8BUvf4C2XRnQLuqLveo/B3uf6dEuF8QakieLttH+o50tzSqfiL87qkM292p9DGVNgL8QTacLPt89annMknNEHB4j2mB2P1kUP9h+eKD0EbNdB32KgIbSP8qXSJFbY8+yXmi1Lk0VyV2WCxSxSySPV+QdpZIMQj44sp/kW6SIrUVbKE+BrWBC9VW95VIMQh4anF/6YdStGeQ+HjT2bSjSu6D7qCOVNdyh2BeL60ukWISeIjMcpiZaYHm+0td/TK1/fhhPu+SCPcLQtA0T3a9X/JUWtPt63TZsLLU6fQ0lb6J6wF81agPKL76nJQOgcfL1DOlpjsv+6cOetvA/6lNbpxON+q8pX7B0gukn0tNnFT8Sfv1FAVJBJ4q2Xvu7VBVfXZ4zleLriOR0iTgaYGDJKYF6ukzVfXFNuTrq86fkmY3wuolBDbXf1+TVtdjh8/RvjZasm/+LSGwg/7/UapiUPDVoEdKT5I6d7WlytzW5GkB3wPchAdfRTslz2r6fxVcfcLyHolbggWhJWklleMA6USpijbjPB0pWlMi5RBYVcs+Lvme5zIqYKHycScl1CIILU5PUNl8HUcZbYY84DiqDXxXbW1ei/sTRVv84K3PCMTN0qj2UOT3q5TPywBbjIAfKHK4NMnTne7Tdr7a01d9+upPUjcIeFrgzVJZHbZIp2adcgbHVDg63L9fN7oTpVxCwCelr5F8wd4k7dQH/ndLq0ukMQmsrfUN3x63H787qAKu128/kt4oPVQidZeAoz1fl5gWGNxfBvUjluczc7jf95MT7heEDqftVfZDpBOkQSen9+o3397+Wenpkk9MwqbU5sMfLJIbSusuIXqL/l8m+ZYOEgR6CeypL5+Wtu1dyGcIjEng+1rfkaWFY27H6u0m4OiyTzbXlzynf6fkE9G/LPmsfyQIQKBJAtndAkwL5J/ZcsY/mMvFarg+gyNBAAIQgEDCBDwtwEOEBh/scASWsvGbSudLviKcBAEIQAACLSHA3QJLD3Qc9PtZHK12vklL2jrFgAAEIACBWQSYFug/8HXdGfBT2XzXEAkCEIAABDpAgGkBHAHC/R3o6BQRAhCAwCACe+qHs6WunwV3rfwO9286qFGwHAIQgAAEukGAaYHuOECE+7vRpyklBCAAgbEIMC3QXkfgLrWEw6S5Y7UIVoYABCAAgU4RYFqgXY7AsWq9W3aqBVNYCEAAAhCYmIDfF+5XDvMQoXSdAT8l9MCJWwAbQgACEIBApwn4cZ88RCgtJyAL9/tFLiQIQAACEIDAVAT20tbnSF27Wj618h6nOiLcLwgkCEAAAhAoj0A2LeCXUKV2YGy7vYT7y2vn5AQBCEAAAgMIZNMCbT+oplC+u1VHvrqfcP+AxspiCEAAAhAon8BeypJpgeaiIQ73b1V+tZIjBCAAAQhAYDQBpgXqdwAuV7Vwdf/otskaEIAABCBQAwGmBap3BAj319CQ2QUEIAABCExG4InajGmB8p2Bn4sr4f7J2iRbQQACEIBATQSYFijPASDcX1OjZTcQgAAEIFAeAaYFJncECPeX1w7JCQIQgAAEGiLgaYFzpRRuq4tgo8P9WzdUV+wWAhCAAAQgUCoBpgVGO0CE+0ttcmQGgeEEHjT8Z36FAARKJrBMyfmRHQQgAAEIQAACQQnsLbvOkyKE11OwgSv+gzZkzIIABCAAgWIENtRqfpNgCgfdaDZyEWCxNsZaEIAABCAQiEA2379INkU7sKZmDy/5CdSwMQUCEIAABAYT4Ir/apweXvM7uM3xCwQgAAEINEiAcH81B/7eiAXTAg02cHYNAQhAAAIzCWTh/lu0uPdgxefqeDAtMLMN8g0CEIAABGomQLi/uoN8EQeKaYGaGzy7gwAEINB1Ajzit9kDf69zcJca42HS3K43SsoPAQhAAALVESDcH+fA3+sE+DPTAtW1e3KGAAQg0GkCe6n0vOY3rgOQOQTHqp627HRLpfAQgAAEIFAKAcL98Q/62cE/++9pgQ9KK5XSAsgEAhCAAAQ6RYBwf3oH/swByP7/SS12/061WgoLAQhAAAJTEdhLWxPuT98ByByBo1Wfm07VItgYAhCAAARaTSAL99+vUmYHD/63g8XtqtP5EtMCgkCCAAQgAIHFBLJw/836ygG/3QyYFqDXQwACEIDAAwT21N+zJQ783WLgaYFNHmgB/IEABCAAgU4R2ECl9at6Cfd368Df6+gxLdCpLk9hIQCBrhNYTgAOkgj3d/fA3+sE+PPF0tMlEgQgAAEItJTAnioX4X4O/LMdgOw70wIt7fgUCwIQ6C4Bwv0c9LOD/Kj/TAt0d5yg5BCAQIsIEO7nwD/qgD/od08LPK1FfYGiQKCPwDJ9S2IvWFfmbSStLdn2RdKl0pUSCQK9BPbUl89I2/Qu5DMExiTwfa3/JumSMbdj9XYTWEPF21zy8Wg1yccjX1fk49EF0m0SaUoCa2n710jfla6WBnnrN+q3H0v/LDncS+ouAdf/NySu7h/cXwb1I5bnM/Ng/h5pRYnUXQI7qugfls6U7pMG9Zd79dsp0vulrSTSmAS20Ppfke6QBkEetNzwj5IcvnuQROoGAYf73yzdLA1qGyyHzTRt4CK1rf0kUncIrKqi+iT0NGnStvNzbbuXRBpBwKGU/5LukSaF3bvdX5TPu6T1JVJ7CTxBRTtL6q17PsOjqjbgiOS89nYnSiYC20meQizzhOI7ys+PGyflENhJy+xhV9Fp71K+35aeKHmuhtQOAg73f00i3F9Nv6miL7YlT08LvFtiWkAQWpL8nogDpBOlqtrpNcr7KRKph4DDardKVUHvzdcXaDhU7AsJSWkScLjfF2aV6Z33thE+19MX28D5QrVDBvQ0x5HMal/M91HpOqmONukI9yslkgjsI90p1QG+dx/e5xFL9q9/pEQIPF52nin11iWf4dF0G/BDhB4ukdIgsKzMfIZ0rNREBNH77LwT4HmWus78hw0Qf5Adr5N8DQIpJoGHyKwFUhOddVjb4Tecj6wNeCzzNUcrSKSYBObJLF+df6WU1VtT/x0J2FPqZJqrUjsc3xT8vP3eIns+J/l6BFIMAg73+9n9N0l5dcYyuERrA54W2FcixSDgs/39pR9Kw27fa6IdXSGb1pU6lz6kEjcBvOg+T5V9vv3DjgqpGQKP1m5/LxWtM9aDVaQ24GmBec10HfYqAo4avkP6ixSpXcy25Yuyr1NpE5X2bmk2iIjfb5Cdn5B4oIMg1JR82+ZXJcL9/X3EoUufyUTrK56euSugXU1z8rTAOyWmBQShhuS7vHxd2ZFSKscYRyW2lzqT/lslbbpjjrt/H4x+Kb1QojMLQgXJobp/lvxkx3Hrp+3re77Qjuga0hsD8tlCNm0u/SygbRHahqc7nyyRqiGwjrI9WPL0S4T6HtcGP720E8kh9UXSuIAire+owGHSphKpHAKPUjaE+/P7xa/FpvcMIaoDkLUEX129UIrUZ6PYwrRA1krK+b+Lsvm85OcyRKnjSexwtGIdqfXppSrhJIAibuPQzU+kZ0k+eyWNT2A9bXK4RLi/v19cJS4HSg5r9qboDoBttaP/nxLTAv316mkBz00TSRSECdLq2ub1Utue/vnqCVgkt8nXZXHEg/m0Nv1V5fqgNC+5GmnG4Adptz64XSdNy75t29ux9Jz6oDOCFBwAmf9A2kx/7SS3rY7KKM9F4uKHoJGKEdhZq/lsf5FUBv9oefhpta1PC1XCaODLtMdztd+VniL5IEfqJ7C7Fp0hlcm9LXn9Rlx26Ec2Y0lKDkBm+PP14VKpLfVUZjk88D8sA8X/GQRW0bdXSl2YHrxiRslb+MVhwS6Fei9TeedLDnOTFj9+2ddORLsXt8zBfNK8HAk5SCriNKboALj9ezCfL90pTcqprdt5DttsVpRIc+ZsIQiOqLpftLXO88rV6ofRbdmxyswq2APeN6UnSF1Mvj7iDZIvnsyY8H8xC7+++pPSmlLRlKoDkJXP48CxEm2gn8F54vKkDFTH/tv5eZH0K6mrbaPVt5s/psMVmzXoC8XAFwANmt/VT61Ku6g0J0tZ+fm/lMUp4uI+MW5K3QHIysvdAkvbwux+cbQgbZyBavn/R6h8Ptu/WprNoWvfPV62NvnJbl2r0EHldcjvy9IkB4AUGsiDl5SvS1M+g+p69nIPdC+XZl/dr0WFUlscABd2VelDUioPbZldl1V+XyQub5OWl9qWllOBniP9TGJKcOlxsdUOwFaq7Co7TKp5nyYur5E8GKaeHO73LTqE+/vbusP9n5bGCfdr9b7UJgcgK5ynBY6TUu3DVdp9rrjsnYFK/L8vdjxEulyqklmqeTsa0trUtYsAx22EfhmRb3PZMdEWYO/1d9K45e7C+pOG+/OaQhsdgKycnha4hDaU24eOFpcUpwV8Yes+0hGS75LqQn+fpIw+QWj9RaB07mId4EQ1hgOklaToaV0Z+CWJUF5/3V4jLq+QlpHKSm12AMzIkbAPS0wL9LcnnyS8VUphWmA92en3IPxZmuSA2LVtfH1Y65Ovhu9axU5T3pvEy1GBbQO2DHv2B0rXStOUsY3b2hlaINk5Kju13QHIeG2uDz+V2tg+pi2TDxb7ZqCC/Xck0GPW7dK05ezS9l8MVo+VmPMyGsVEncIX03mO9AVSBO//sbLjVKlLHbRoWX8rLn5qWVWpKw5Axu+F+sCccX5f8wnVQzNQDf5fS/t+k3S+VLSfsN5MVs9rsP5q27Wf44xnOLPix+0IV4rh+6V5tdXa0h35jNaeKuH+/jp0uP+VUpnhfmXXl7rmABjAqtJHJKYF+tudpwUOlpo4MfCJwP9IjOn99TLOuH6jGKYw3Sszp08OD40Dh3Xzefkg7AeqOCqwnFRl8kHN4X4f5KiPmQyqDPfn1WkXHYCMA9MCM9teb1+sa1rAT6t7jXS61Lt/Pk/Ow9e8dCZtppLiyU/eWPI62iVi+q/SBhW0okcrT1/Fnrffri/zXQ+e86wzddkByDj/oz5cIXW9/c0uv6cKvyFVMQ74HRWflRxxmL1fvk/OZJF4PkTqVPq4SkujKZ+BHasjJd92M20oeh3l4WgN4f7+evKFj6+SfCFk3QkHYDFxn4l+VOJkor993iwub5amjQw6LO3I30kS43U1DN4htp1Lq6rEF0k0quoYmK/nBn0gHyf5oOYQ33US9TOTgZ0hnwWtLTWVcABmkt9GX38p0Vb7GZwtLnvOxFXo2xZayydp10twrY6BI4hNXLuh3TaffKX0rRINrFoGd4jx16Q9pFHpUVrh9xJ10s/gZHExn6YTDkB+DbxIi5kW6G+3nhb4ujRqWmAFrfMP0i8kb8MYUC0DPxL84VKnk5/8RQiv2obW25HPEu83SGvManU+o/2cRLi/vy4c7n+11ES4X7vtSzgAfUj+vsDTAh+TGFP627GnBXyr3uxpgYdr2aHSVVLvWMHn6njcIta+tookAnYCfJZKg6uPgSMvX5B8RuuDmw9y8J/JwM6QnSI7R5ESDsDo2mBaYGZb7u3bPgnYS/K4+yMJp38wq15uZX32mX+ESKLMiJN2kikXS2VBJh9YTtMGTlNb3DVO95hhCQ7ADBxDv/ggd6k0TVtgW/iV1QY8vbrJ0BZb449RQpou8hnSLtKnJXukJAg0QeB67fS1ksNzvkCHlDaBo2X+ttJ/SfemXRSsT5iAQ/4HS7tLf0m4HLWYvrX24otW7pHK8rzIB5bD2oCdTt/yuI4UPREBmKyG7AgcLw1rB/wGnzLbgE8o3ic9WCKNScAPR/A9kn+RyqwU8oJnbxvwE812k1JJOADT1RTTAvT/3v5fxedT1UR9K/Uq0zVVtjYBT1XsIx0hERWg85bVYW9QezpIWlZKKeEATF9bc5XFfOkuqaz2RD7dZukwv6OIvp6NVBGBDZWvowKXSXQ4GEzSBnyP8wJpPSnFhANQXq35gTfHSJO0I7aBm9vAeZKPSWtJpJoI+KEVL5COlXhoBR2x6GCcWrg/rzvhAORRmW4Z0wKMIUXHEK93p+SItCPTpIYJbKb9f1DiXnY68aBOfKPaR4rh/ryuhQOQR2X6ZUwLMH4MGj+y5Reqmflsf93pmxs5lE1gRWWYRQWyCuN/tzt16uH+vD6CA5BHpbxlnhZwZJGxAwZuA75OJDvbn/YFa8qKVAeBrbQTRwV8oRcduZsMHO73fbdtSzgA9dSopwW41qibY4ePGZdLPoY8TCIlSmA12e3bMXwwwBHoBoM2hfvzuh0OQB6VapZ5WsAHAe4+6sbY4eeBOPrjSHJqdwfJZNIwAn7SoG/TuFXCGWgfgzaG+/PaMw5AHpVql22v7E+QGDfayeBK1a0dvYdLpJYTWEPlc1TAL8WgQ7eDwRmqyzaG+1WsvoQD0IeklgWe/z1Qukpi3EifgU8YsrP95fWZ1EECWVTgdpWdTp0eg7aH+/O6JA5AHpX6lvkE4jCJaYH0xguP8R4zHAneWiJB4AECfiiMb+/4k4QjEJ9BV8L9DzTOWX9wAGYBaejrDtov0wLxx4psPD9V9eXI78oNtRd2mwABHjscv0OfoXa0RwJtqSoTcQCqIjt+vkwLxB4vblaV+mzf13CQIDAWgQ20tqMCl0iZF8n/5lg4dHeQ1PWrc3EA1AiCpTVlD9MCzY0Ns8fl7Gzfd3GQIDAVgd6ogN8pPrux8b1aJlm4f/2parE9G+MAxK1LTwv8RmJMqJ/BHeLuB/Z0OTqo4pOqJPAIZe7bRa6W6OTVM/iDONOhBaEn4QD0wAj4kWmB6seF3rH3fLUBR2rXDtgWMKmlBHgZUbWdPAv3L9fS9jNNsXAApqFX37bZtABRw/LHit6X8djhIkGgMQJ+drijAtdJvZ4pn8fnQbh/dDPGARjNKNIaO8oYpgXGHwvyxs8/iqXP9h8cqYKxBQImsJLEy4gm7+gO9z/OIElDCeAADMUT8kemBSYfFxxBOVbyuxk42w/ZvDFqNoGdtcC3nyyS8jxZli3lcpMY+ep+wv2CUCDhABSAFHQVpgWW9vtRY+AVqkNHVjcOWpeYBYGRBNbQGsdJoxp7F393uP+r0voSqTgBHIDirKKuuZMMO0nqYr8vUuYPiE3Xb/eN2naxqyABXxtwjFSkwXdtHV+5u09Bjqw2kwAOwEweqX7LpgW4o6h/jMyuBfITWkkQSIqAHz4xX7pL6tqBfVR5/SZGs/FdFKTJCOAATMYt6lZMCwweJ7O7gYgGRG292DWDgC9UuVQadSDs4u9Hi8vDZtDiyyQEcAAmoRZ/mx1l4olSF8eGUWU+XVy68rbP+C0VC/sIEO4fPHBdIFqE+/uazMQLcAAmRhd+Q6YFBo8jTAuEb77dM5Bw/+AOS7i/mv6AA1AN10i5Mi0weFy5QRXlu4aYFojUYjtoC+H+wZ3U4f6NOtgm6igyDkAdlGPsw3cLMC2QP854WmC3GNWEFV0isLkK+zNp1LxVF393uP/JXWoMDZQVB6AB6A3ukmmBwWMt0wINNsyu7Xo1Ffij0t1SFw/uov80iQAAHOJJREFUo8p8grgsJ5GqJYADUC3fqLn7ZTd3SKP6YRd/v15cXiv5za2kggSAVRCUVnO4/xzpYGl5idRP4Dwt8mM7SRCAQPkEPPf91/KzbUWOdo4+J50qMS1QsEpxAEaDysL9P9CqG49evdNrMDh1uvopfA0E6GPDIWfXTCzQarwwaDgrwiVD+Kyi3+ZLZ0v7SqTRBBicRjNiDQhMQ4A+Npqer5k4QLpQ4m6BIbyIAOTDcbjfj6p9r7RC/ioszSHA4JQDhUUQKJEAfaw4zLW06iek30u7Ft+sO2viAMys68319acS4f6ZXIp+u6LoiqwHAQhMRAAHYHxsO2uTkySmBWaxwwFYDCQL95+lr0+ZxYivxQkwOBVnxZoQmIQAfWwSanPmMC2Qww0HYPHV/Vm4f8UcRiwqRuAerXZdsVVZCwIQmJAAUbYJwS3ZjGmBHn5ddgA2EwfC/T2NYcqPV2p7P5SDBAEIVEeACEA5bD0tcKLU6WmBLjoAWbjfV/cT7i+nMzkXzkzKY0lOEBhEgH42iMz4y338890CF0idvFugaw6Ar+73w2p8dT/hfkEoMXFmUiJMsoLAAAK3afktA35j8WQE1tZmvlvgZOmxk2WR5lZdcQAc7v+J9ANpXppVFd5qHIDwVYSBLSFAFKCaitxF2Z4kLZDWrWYXsXJtuwPQG+7fLxb61lmDA9C6KqVAQQnQ16qrGB8Tex8i1OpjZJsLR7i/uk6SlzODUh4VlkGgfAL0tfKZzs4xmxbwQ4RaOy3QRgeAcP/splzPdwalejizFwgwBVBfG2j1tECbHADC/fV1irw9MSjlUWEZBMon4FtuSfUR8HGyldMCbXEACPfX1xkG7YkIwCAyLIdAuQRwtsvlWTS33mmBxxTdKPJ6qTsAjxTcH0tc3d9sK7tdu7+5WRPYOwQ6QwBnu9mq9rTAb6UFUtJ3C6TqAGTh/nNUAU+VSM0S4IykWf7svVsEcACar28fO5OfFkjRAXC4/1yJh/k03wkyC3AAMhL8h0D1BOwA8Njt6jkX2UM2LeCHCCU3LZCSA7C5AGfP7n94kZphndoIcFFSbajZEQTm8OKteI3gUTLpJOlT0hrxzMu3KAUHYFmZ/k7pLOkp+cVgacMECEk2XAHsvnME6HPxqtzHqjdK50nPimdev0XRHQC/uvEY6T+lFfvNZ0kQAgxGQSoCMzpDgD4Xt6ofKtO+J31YslMQNkV2AAzxJGnvsPSaMezeZnY7dK8MRkPx8CMESicQsc95aoK0mMAy+vc26RvScosXxfsb1QFYR6iOlbaMh6wxi3yr3b9KfmtVtMRFgNFqBHvaTiCiA+Cr4g+X/tZ2+GOU74Va9yuSHYJwKaIDYJu+Lm0djlZzBn1/CY8P6L+do2gp4mAUjRH2QKBMAhGd7uVVwFdIj5f+UGZhE8/LjtHbI5YhogPwJoHizX2LW8vF+vc06TnSJYsXzfHUSLSEAxCtRrCn7QQi9rlsbDpR8H1V/L9IN7W9IgqW731ab6eC69a2WjQHYGOV/D9qK33cHTnc/2/SttJPZpmZdbJZixv7eqP2fEdje2fHEOgmgcgOgGvkPsm3xHka96tS16cFHB35nBRqKiCaA+A57rlSl9NRKvw20vulu3JARHMAIg5EOdhYBIFWEYjY7/LGpqtF/eXSE6QzpS6nx6jwz48EIJIDsL7AvCwSnJptcbj/6dKzpYVSXlpJC/3kqUgp4lxkJD7YAoEqCFyjTKNddZ/nAGRl/40+eFrgIOnmbGEH/x8cqcyRHABfKLFCJDg12eLw+b9L20k/HrFPd7BQISTZE/FMZARGfoZA8gTuVwmuClaKDUfYc69+/6TkaYGvSV2cFnisyr29FCJFcgCeG4JIvUZk4X5fIHJngV0P87ALbF7JKjgAlWAlUwiMJBCt720gi4ucoNhxOVDaU/ITXruWnhelwFEcgNUF5NFRoNRgx5+0j/0lh/v/Msb+cADGgMWqEGg5gWgOgJ/WOs5tyido/V0k3/nVpWmBJ6q8IVIUB8AhkbBPSyqxphzuf6/kq/t/NEG+o0JsE2Q59SbRBqGpC0QGEEiEQMS+N+5JiqcFDpM8LeDnv3RhWsBOT4hjbwgjBGMLqe3pByqgr+7/D6lIuD+Px7idKy+PspdxEWDZRMkPAsUIROx7k45RnhbwdWB7SWdLbU6rqHCeLmk8RXEA1mucRHUG/FlZP0Py26HGCffnWTRp58rLq6xlEc9Cyiob+UAgMoGIfW/aMerXAr6z9Gbplsjwp7RtWk5T7n7x5lEcgDbe++9w/3zJZ/0/lMpIIRpNT0EiXoncYx4fIdBqAhEdgDKmKT0t8AnJ0wLfkNo4LRDi7bZRHIBo97OqzU2VjtbWnuc/RJo03J9nQBmdKy/fSZf5XmR3VhIEIFA/gYgOQJknKVcK6UslXzR3Tv14K91jiHEzigNwXaWo68vc4f5nLpE/l53K7Fxl2BZxACqjXOQBgRQIROx/VYxRv1Jl7CS9RWrLtMANERpYFAdgYQQYU9jgs3yf7fus32f/VaQ1lGm0qZKIFyFVwZ48IRCRgN/D4feGREpVOAAun8+Y/0vytMA3pZSnBVyWS6TGUxQH4PTGSUxugOf3feCfL3nev6pUVceaxt6IZyDTlIdtIZAagWh9sOppSk8LvETaWzo3tcpaYu8F+p/3npfaixPFAXCl+uE4KSVf0e8r+32Ffx224wCk1DqwFQL1EIjmAPiOrjqe6XK89uNpgbdKi6SU0i+jGBvFATCP70WBMsIOh/v/Q/LV/T8YsW6ZP1ftWU9ia7TBZ5IysA0EUiYQrQ8uK5jr1wT0Hu3nY5KnBb5V0z7L2E1Zd4VNbUskB8Avh4ie/PQ+h/vfK1UZ7s/jQAQgjwrLINBtAtEcANdG3WOVGbxY2ls6T4qcLpVxx0UxMJIDcJag/CIKmFl2ONzv5/bvL9UR7p+1+we+1t2p8myYvYyLAGcT4TsE6iUQsQ82NVY5tL6j9DYp6rTAJ2Wbn58SIkVyAAzkPdLfQpBZbITD/X5Tn8P9Ry1e1NjfpjrVsAJHPPsYZi+/QaBtBCL2wSbHKk8LfFTaSvrfYJV9lez5bCSbojkAvxOcrwYB9GPZsZ3071Ld4f48BNGuAbhbRl6XZyjLIACB2ghEdAAijFWOjLxIepJ0fm21MXxH/6KfQ922Gc0BML6DpIX+0FBaqP063P906WIpSmrSq85j4Ds3IkVr8mxkGQTaTiCiAxBprPK08g7S26VbG2wM39S+j2xw/0nt2hXmJz75AFOXsnC/39QULdlR832jdbEosp+TokHqkD1vDNYW3F626BD/SEX1eFWkv9a5zk8jAeqxxZEJTwvUycL7OkOaK5HGILCP1rXHVkdlOdz/yDFsq3vV9WriMA5rvNm6W8HS/eEALGXBpzlz/FjZcfpu1ev6gu7IydMC50lVc3D+3o/H75Ap4hRABsq3SjxFujZbUMF/P47xOdLTpEjh/tlFjRRSy2yLGHrMbOM/BLpEIFpfjHANwLD6/7l+dJT5HVKV0wInKv89Jb80jTQhgYdpu19LZXprDve/X4oY7pdZfenpWlJm+cvIy52HVD+Bedrl76Uy6rDMPL4km1aqHwd7FIFjpDLrctq8fJtbKm3Bx5cjSuZ3n/LznQgrSqQSCCyjPF4l+crOaRvnd5RH5HC/zOtLr9aSactd9vYH9FnJgqoJPFM7uF4quy7Lyu8Psm3zqiGQfx+Bw7WkrDosK59N+6yMvWAfmXdaCRx91v/Y2EVN1zp7lf8kjVtRvqDwfyQ/JCLF9F4ZXVbHLCsfz6OR6iGwvHbzMclnVmXVX1X5uK/59itSfQQ+oF1VVZ+T5vu4+opf2p58ovkMyY/qvVcqWnZHlL8neUx0Hsmk5ZKxdLGhBv3ZJXqE/j9Z2kXaWvKFFutIN0ue1/H8vs9IfLW6bwXxtqmmiNcAXJEqzMTsnid7feXyronYvZrs/Ka0l3SQlHK/k/lJpGjXABhaxDFrVGX6gH/0EvlY4qjAbtI2ksuzunS35Da9UDpf8vHF1xT4uEOCQCUE7JEW9UbrWs8DPalaAj4buV6qq07L3o9f1+rBk1QtAV/IXHbdTZvfm6stMrmXQSDyXQBllK8teUS7qtYRlkVtgRuwHI7MzZe+L60tpZocmfut9OJUC5CI3UQAEqkozITAJASu1kbTeuRlbn/BJIVgm0IENtJaJ0pl1leEvBaoTKsUIsBK4xJwm4lQx702fGPcQrA+BCDQT2B5LbpP6u1cTX/2NRWk8gmkHvIf1S6ZEii/zThHR4zGuWhtVD2V8fsvqykquZZJgCmAMmlWk9cGyjZaPXEBYLl13ZaQ/ygqTAmMIjTZ7z74V/nAtEmsSvEiwEnKmfQ20Q4sScOsyPho8/8uZsQ5x4rwV56tw7e/kt4rdaE/+uJRh4cXSEwJCEJJKVqfjDhulYS6Pdl0YcBJvbYietLRBptU69ghf9+qunuqBZjC7gO07SkSdwlMAbFn02h9cq5sW6PHPj4GJIADELBSZpmEAzALSAu+diXkP6qqmBIYRaj47xGn5SKOXcWJdmBNHID4lRyxE0U724hfi0st7FrIf2nJ8z8xJZDPZdylV467QQ3rRxy7aih2OrvAAYhfVxE7UcSzjfg1ufgxo10N+Y+qH6YERhEa/nvEPsl1AMPrrPFfcQAar4KRBkTrRL5F6KqRVrNCLwFC/r00Bn9mSmAwm1G/RIzKRTx5GcWxU7/jAMSv7mid6Hoh4/nuxdsNIf/irLwmUwLj8crWxgHISPC/MAEcgMKoGlsxmgMQcaBprHJG7LjLV/mPQDPyZ6YERiKasULEKYBoY9cMYHzpxn3HKddzxFtpcABGtyhC/qMZFVmDKYEilBavc53+3VV89VrWxAGoBfPkOyECMDm7OraMNv/vMkc806ijLorug5B/UVLF1mNKoBiniNfmRBy/itHsyFo4ALErOqIHTQRgcJsh5D+YzbS/MCUwmmC0vhnxMeajKXZoDRyA2JWNAxC7fjLrCPlnJKr9z5TAcL7RonPLy9x1h5vMr00SwAFokv7ofUcMoUU7yxhNsdo1CPlXy3d27kwJzCay9HvEvhnxJGYpsY5/wgGI3QAcQouWIg4yTTEi5N8U+TlzmBLoZ8/TAPuZsGQIARyAIXAC/BQxAhAtzNhENRHyb4J6/z6ZEpjJJGLfjDiGzaTW4W84ALErP1r47D7huiY2ssqtI+RfOeKxdsCUwFJcEaNz0cawpbT41In3j6dczdE6jx8BbCegq4mQf9yaZ0pgzhwcgLjtM6RlRABCVsvfjYp2DUDEAebvsCr8QMi/QrglZt31KYGIUwDRTmJKbG7pZ4UDELcO15ZpKwczL+JFRlUjmqcdnCC9V6K/VE17+vyzKYHPK6uVps8uqRxukbW3BrN4/WD2YE4PAQa0HhjBPtoBiJYuj2ZQxfY45H+6tGvF+yH78gm8RlmeJm1Tftahc4wWpYt2EhO68uo2DgegbuLF9xex43QlAuAHmHxMOkqK6IgVb0XdXjObEnhRhzBEcwCW7RD75IqKAxC3yu4OaFrEOcayMfkq/+Olt0jLSKS0CXhK4JvSAmmVtItSyPpoffTGQlazUiMEcAAawV5opzcUWqveldo+BfBM4fyDtHu9WNlbDQR8l8BJ0uY17KvJXSxscuc5++5K1DCn6PEX4QDErSO/3vPmYOZdHMyesszJQv7fV4aE/MuiGi+fHWTSqVKbpwTOC4b93GD2YA4EkiHgq8/9ms8IckSijQ6jr/L/bRDGEeq5Kza09S6BTYK15X1lDwkCEJiAwCHaJsqA7Avi2pYc8r9eisIYO+qtC0/3tHFK4MIgbfo22RHxYmaZRTKBNp7Rtalmjw5UmO8FsmVaUwj5T0uwHdu3dUrgG0Gq57uy444gtmAGBJIkcLasbvrMcJFsWD1Jev1Gz9MiQv7Nt6mm2/Ts/bdpSsB3stwlzS5j3d/36O9+LIEABMYh8HKtXHfHnb2/j49jcOB1Cfk335Zmt61I39s0JfC5hseNnwceBzANAskQ8HPoL5CaGih9J8IGydDKNzQL+d/fIMem6o/9jtd3blEbeVF+M0pqqR/Be4PURP3fo/16eoUEAQiUQGBv5dHUwetNJdjfZBbztHNC/s0cCJo4+JS1zzZMCbxcbb8sHuPk8/4mOzz7hkAbCTgMP04nLGPdY7TPlC8UJeRff5spo91FyaMNUwJfrnncOF77c9SSBAEIlEjAYezjpLoGx4u0rweXaH+dWRHyr6+d1NUem9pP6lMC7gs/kurgd6b2s1adHZ19QaBLBPxc8zrC2Qu1n00TBTtPdv9OqmPAYx/d4ZzylIBfi/zdivuE+1yqJwwynQSBNAjMlZl+PkBVBx978b6NKMVEyL+6dlFVe0sp35SnBPxWvvdJ90llMz9ceXpcIkEAAjUQ8Lz8O6S7pLI6sy8y/IKU4hvTCPmX1w7Kak9tzSf1KYHHq4+X9WyRy5TX8yUSBCDQAIEttc8fS9MOtqcpjz0bsL+MXc5TJl0L+fs2q2nrvOztI9pUdhl780t5SsAX6b1MOnfCduQD/8ESZ/2CQIJA0wR2kQGHS75nv3eQGvbZA/ZR0tOkVN9738WQ/7dVX++WhtVtE789SzadE9CuKlmkPCWgqnog7aq/H5F8EnC3lMfL0wau2/+W9pE8nUBqAYFUB/4WoK+kCH7xxh6Sw3xbSRtLa0r2+G+U/iqdL50s/UKyw5Bicsj/g9Kbpa604TtVVp91eRB+o/QpKVLaQsZcLn1aekUkwyq2ZZHyf630rYr3U0f27le++NevxPbZvZ/jf4P0Z8nTjSQIQAACjRLYSHs/Uco7U2nrsoUq72OlLNkBiFbW3rfqHSD7fGCMZmOV9ixQeVO8fkZmkyAAAQjEJ/B0mdi11/c65L/6rKqJ7gDYXEegujglkOrts7OaGF8hAAEIxCHg8Pe9UpVncZHydvj19QPwp+AA2HSfEX9FisS1aluuVXkfJ5EgAAEIQKAEAj74Vz1wR8p/ocrbG/KfjTAVByCzu2tTArep4Htlhec/BCAAAQhMRuCl2izSwblqW76r8vrCzWEpNQfAZfFFgmdKVfOLkr+fF7C1RIIABCAAgQkIbK9tHAqPMqhXacewkP9sdCk6AC5D16YEfA3ESrMrj+8QgAAEIDCcgO81PkWq8qAbJe8/qpw7Dccx49dUHYCsEAfqw61SFP5V2nFoVmj+QwACEIBAMQL/T6tVOTBHybtIyH82sdQdAJenK1MCfrgOdwbMbsF8hwAEIDCAgB9ctFCKcpCuwo5xQv6zMbXBAXCZujIl8MXZFch3CEAAAhDIJ+DHylZx0I2S50KVb9hV/vlUli5tiwOQlajtdwncroKulRWW/xCIQuBBUQzBDgj0EHhJz+e2fTxCBfLFjX4cM2kxga/p32Mkv5ymjWllFerZbSwYZUqbAA5A2vXXRuv9PPJ9W1gwP8v/DdILJd8iRppJ4Hx9tRPwPzMXt+abn2JJgkAoAjgAoaoDY0RgW2mNlpG4ROXZS/KLfEiDCThU/kopu0tg8Jrp/bJ7eiZjcdsJ4AC0vYbTK9926Zk81GJC/kPx5P7YximBDVTS9XJLy0IINEQAB6Ah8Ox2IAG/7a8Nya9PfZNEyH+y2vSUwKOkT062ecitNgxpFUZ1lgAOQGerPmzB23C19MWiu5t0WFjKaRjm6yYOkl4m+fn6qae1Uy8A9reLAA5Au+qzDaVZJvFCfE/2P1o6I/FyRDJ/gYzZRTorklET2JJ6256gyGwSmQAOQOTa6aZtqZ7p+Wz19dJzpZu6WXWVlvpC5e6oSsp3CfjxxyQIhCGAAxCmKjBkCYErEyThkL+v8v5sgranZHJ2l0CqUwJ/TQk2trafAA5A++s4tRKm9jAYQv71t7AUpwRuEabL60fFHiEwmAAOwGA2/NIMAc+d39vMrsfaKyH/sXCVvnJqUwKni8D9pVMgQwhMQQAHYAp4bFoJgUXK9cRKci4v0+zBPoT8y2M6SU7ZlEAKDw768SQFZBsIVEkAB6BKuuQ9KYEjJ92whu14sE8NkMfcRfbgoHPG3K6u1X3m79c+kyAAAQhAYASBNfS7IwF/C6Q7ZMs/SRFS294GWBbTVZTRV6RI7ca2/LSsApIPBCAAgS4QOFSFjDKQL5Qtjw0EHQdgeGVEe73wXsPN5VcIQAACEOglsKa+XC017QR8Wzas3mtYgM84AKMrYSutcrbUdPs5arSprAEBCEAAArMJPEsLmhrAs8fQzrYpwnccgGK1sJJW8+OYm2pDfiBUW95tUYw4a0EAAhAokcB/K6+6B/A/ap87lViGsrPCARiPaHaXQJ3t6D6Z+JzxzGRtCEAAAhDoJbCcvvxEqmvwjhjy7+XhzzgAs4mM/l73lMBbR5vEGhCAAAQgMIqAQ7k/kqp0AiJd5T+KBw7AKEL5v9dxl4Bv+Xt7/u5ZCgEIQAACkxBwJODjUhVOwEXKN3LIfzYvHIDZRMb77imBKm4zdZ4vGM8U1oYABCAAgaIE9tOKfhJfGY6AHzn8CclnhiklHIDpa2sTZfFzqYx25Dx+IT1CIkEAAhCAQIUEVlbenmP129UmGcDv0XZ+op/nhVNMOADl1dr+yuoUaZJ25G1OlZ4pkSAAAQhAoEYCy2tfvtLaj4K9Who2iN+t338jvUPaUEo54QCUX3uPUZYfky6QhrUj/3b+knUfrf8kCCRLYJlkLcdwCPQT8D3XPqtfX3KUwIO1HQO/htXPibcT0IZkB+BTwQqyhezxtRRtSH4I1baSHUU/ltrpZskRJz9cyPf3kyCQPAFfWEWCQFsIXKaCWCQITEPAB3hHi0gQaDUB3gbY6uqlcBCAAAQgAIF8AjgA+VxYCgEIQAACEGg1ARyAVlcvhYMABCAAAQjkE8AByOfCUghAAAIQgECrCeAAtLp6KRwEIAABCEAgnwAOQD4XlkIAAhCAAARaTQAHoNXVS+EgAAEIQAAC+QRwAPK5sBQCEIAABCDQagI4AK2uXgoHAQhAAAIQyCeAA5DPhaUQgAAEIACBVhPAAWh19VI4CEAAAhCAQD4BHIB8LiyFAAQgAAEItJoADkCrq5fCQQACEIAABPIJ4ADkc2EpBCAAAQhAoNUEcABaXb0UDgIQgAAEIJBPAAcgnwtLIQABCEAAAq0mgAPQ6uqlcC0l8LeA5YpoU0BMmASBOARwAOLUBZZAoCiBO4uuWON6t9e4L3YFAQiUQAAHoASIZAGBmgncVPP+iuzu5iIrsQ4EIBCHAA5AnLrAEggUJfDnoivWtN7V2s+tNe2L3UAAAiURwAEoCSTZQKBGAhdqX/fUuL9Ruzpn1Ar8DgEIxCOAAxCvTrAIAqMIeL79lFEr1fj78TXui11BAAIlEcABKAkk2UCgZgI/rHl/w3b3o2E/8hsEIAABCEAAAuUR2FhZ3Sf59rsmdXZ5RSInCEAAAhCAAASKEDhCKzV58Pe+X1HEUNaBAAQgAAEIQKA8Atspq3ulppyAi7Tv5csrDjlBAAIQgAAEIFCUwGFasSkHYL+iRrIeBCAAAQhAAALlEpir7M6V6nYCPltuMcgNAhCAAAQgAIFxCWylDW6Q6nICfqt9rTSukawPAQhAAAIQgED5BPZQloukqp0AX/W/TvnmkyMEIAABCEAAApMSeJQ29GN5q3ICTlDea09qHNtBAAIQgAAEIFAdgQ2V9fFSmU7A/crv49IKEgkCEIAABCAAgaAE/ITPV0vXSNM6Aqcpj90lEgQgAAEIQAACiRDwHQJvksa9S8BPGDxWeqa0jESCAARaSIDO3cJKpUgQyCGwg5btI+0mbSF5qmA1yQ8S8sWDfsXwedKvpWOkv0okCECgxQT+P343UXFhg238AAAAAElFTkSuQmCC;" vertex="1" parent="1">
          <mxGeometry x="272" y="230" width="12" height="12" as="geometry" />
        </mxCell>
        <mxCell id="57NM1Wxke1sPUCWePYtD-5" value="&lt;font style=&quot;color: rgb(255, 255, 255);&quot;&gt;Image&lt;/font&gt;&lt;div&gt;&lt;span style=&quot;background-color: transparent;&quot;&gt;&lt;font style=&quot;color: rgb(255, 255, 255);&quot;&gt;Encoder&lt;br&gt;&lt;/font&gt;&lt;/span&gt;&lt;/div&gt;" style="text;html=1;align=center;verticalAlign=middle;resizable=0;points=[];autosize=1;" vertex="1" parent="1">
          <mxGeometry x="265" y="264" width="70" height="40" as="geometry" />
        </mxCell>
        <mxCell id="57NM1Wxke1sPUCWePYtD-7" value="" style="edgeStyle=orthogonalEdgeStyle;rounded=0;orthogonalLoop=1;jettySize=auto;html=1;" edge="1" parent="1" source="57NM1Wxke1sPUCWePYtD-6" target="57NM1Wxke1sPUCWePYtD-1">
          <mxGeometry relative="1" as="geometry" />
        </mxCell>
        <mxCell id="57NM1Wxke1sPUCWePYtD-6" value="Input Image" style="whiteSpace=wrap;html=1;aspect=fixed;fillColor=#f8cecc;strokeColor=#b85450;" vertex="1" parent="1">
          <mxGeometry x="160" y="244" width="80" height="80" as="geometry" />
        </mxCell>
        <mxCell id="57NM1Wxke1sPUCWePYtD-38" style="edgeStyle=orthogonalEdgeStyle;rounded=0;orthogonalLoop=1;jettySize=auto;html=1;entryX=0.5;entryY=0;entryDx=0;entryDy=0;" edge="1" parent="1" source="57NM1Wxke1sPUCWePYtD-8" target="57NM1Wxke1sPUCWePYtD-22">
          <mxGeometry relative="1" as="geometry" />
        </mxCell>
        <mxCell id="57NM1Wxke1sPUCWePYtD-8" value="Q-Former" style="rounded=1;whiteSpace=wrap;html=1;fillColor=#fad7ac;strokeColor=#b46504;" vertex="1" parent="1">
          <mxGeometry x="360" y="254" width="120" height="60" as="geometry" />
        </mxCell>
        <mxCell id="57NM1Wxke1sPUCWePYtD-31" style="edgeStyle=orthogonalEdgeStyle;rounded=0;orthogonalLoop=1;jettySize=auto;html=1;entryX=0;entryY=0.5;entryDx=0;entryDy=0;" edge="1" parent="1" source="57NM1Wxke1sPUCWePYtD-10" target="57NM1Wxke1sPUCWePYtD-25">
          <mxGeometry relative="1" as="geometry">
            <Array as="points">
              <mxPoint x="520" y="374" />
              <mxPoint x="520" y="350" />
            </Array>
          </mxGeometry>
        </mxCell>
        <mxCell id="57NM1Wxke1sPUCWePYtD-32" style="edgeStyle=orthogonalEdgeStyle;rounded=0;orthogonalLoop=1;jettySize=auto;html=1;entryX=0;entryY=0.5;entryDx=0;entryDy=0;" edge="1" parent="1" source="57NM1Wxke1sPUCWePYtD-10" target="57NM1Wxke1sPUCWePYtD-27">
          <mxGeometry relative="1" as="geometry">
            <Array as="points">
              <mxPoint x="520" y="374" />
              <mxPoint x="520" y="234" />
            </Array>
          </mxGeometry>
        </mxCell>
        <mxCell id="57NM1Wxke1sPUCWePYtD-10" value="Perceiver Resampler" style="rounded=1;whiteSpace=wrap;html=1;fillColor=light-dark(#E6D6FF,#392F3F);strokeColor=#9673a6;" vertex="1" parent="1">
          <mxGeometry x="360" y="344" width="120" height="60" as="geometry" />
        </mxCell>
        <mxCell id="57NM1Wxke1sPUCWePYtD-18" value="" style="shape=image;verticalLabelPosition=bottom;labelBackgroundColor=default;verticalAlign=top;aspect=fixed;imageAspect=0;image=data:image/png,iVBORw0KGgoAAAANSUhEUgAAAgAAAAIACAYAAAD0eNT6AAAAAXNSR0IArs4c6QAAAERlWElmTU0AKgAAAAgAAYdpAAQAAAABAAAAGgAAAAAAA6ABAAMAAAABAAEAAKACAAQAAAABAAACAKADAAQAAAABAAACAAAAAAAL+LWFAABAAElEQVR4Ae2dB9gkVZm2B8kMGQQRYQQlZzAQVBARUTHrugYw/KZVd1Exu7sOq7LmFcOaXRzTCq6KGAEVRVAkSQ6iDklyHHLyfx5myunv6+ru6u4K76m6z3U939ddXXXqPfcJ9dZ7KiwzhwQBCHSBwM4q5JOkXaUtpQ2k1aV7pFulv0jnS7+WfiZdLpEgAAEIQAACEEiQwKqy+S2SD+x/G0P3ad1fSM+RHiSRIAABCEAAAhBIgIAP2q+TrpPGOfDnrXum8niCRIIABCAAAQhAIDCBh8k2h/HzDuaTLrtf+X1SWlEiQQACEIAABCAQjMCjZc810qQH+lHbnaS81wlWZsyBAAQgAAEIdJrAHir9ImnUQXza38/VPtbtNGkKDwEIQAACEAhCYGvZcYM07cG96PYna18rByk7ZkAAAhCAAAQ6SWCuSu2z8qIH77LW+0InaVNoCEAAAhCAQBACh8mOsg7q4+bztCAMMAMCEIAABCDQKQLbq7T3SuMeuMta/0/a9wqdIk5hIQABCEAAAgEIHCEbyjqYT5rPqwJwwAQIQAACEIBAZwhsrJL6iX2THrjL2s7XH5AgAIEECfCYzwQrDZMhIAIvkSL0X9+BsAs1AgEIpEcgwgCSHjUshkDzBPZv3oS/W/D0v3/iAwQgAAEIQAAClRFYRTnfLZUVxp82H784iAQBCCRGgAhAYhWGuRAQgc2l5QOR2CaQLZgCAQgUJIADUBAUq0EgEIFNA9liU9aTVgtmE+ZAAAIjCOAAjADEzxAISGDNgDatEdAmTIIABIYQwAEYAoefIBCUwEoB7fJ1CSQIQCAhAjgACVUWpkJgCYFlApKIaFNATJgEgTgEcADi1AWWQAACEIAABGojgANQG2p2BAEIQAACEIhDAAcgTl1gCQQgAAEIQKA2AjgAtaFmRxCAAAQgAIE4BHAA4tQFlkAAAhCAAARqI4ADUBtqdgQBCEAAAhCIQwAHIE5dYAkEIAABCECgNgI4ALWhZkcQgAAEIACBOARwAOLUBZZAAAIQgAAEaiOAA1AbanYEAQhAAAIQiEMAByBOXWAJBCAAAQhAoDYCOAC1oWZHEIAABCAAgTgEcADi1AWWQAACEIAABGojgANQG2p2BAEIQAACEIhDAAcgTl1gCQQgAAEIQKA2AjgAtaFmRxCAAAQgAIE4BJaLYwqWQGBqApsqhy2l9aQVluR2g/5fJp0t3b5kGf8gMIzAOvpxe2lDaZUlK96m/5dLbkduUyQIJE8AByD5Kux0AXyQf7b0XOnJ0trSoHSvfjhdOlr6urRQIkEgI7C7PrxQepr0yGzhgP8Xa/mPpW9JvxuwDoshAAEIQKACAnOV5zula6S/TaD7tM33pO2kFNMbZPQk5a5ymy1SBCmbnyXZMZyUzRna9jnSMhIJAhCAAAQqJPAM5e2Q/qQDdu92dgQ+JdmhSCnhAExfW5soi19Kve1hms/HK6/NJBIEIAABCJRMYHnl54P1NIP0oG3/qHx3LtneKrPDAZiO7gHafJE0qD1MuvxW5fmP05nG1hCAAAQg0EtgZX35mTTpwFxkuzuVvw+sKSQcgMlqyRf0fVkq0h4mXed+5f+uycxjKwhAAAIQ6CXgM/9jpUkH5HG3O1L7WqPXgICfcQDGr5SttMnZ0rjtYdL13zG+iWwBAQhAAAK9BD6nL5MOwpNu56u8I08J4AD0tpDRnx3yd3h+0vYwyXaOBPjuFBIEIAABCExAwLf4TTL4lrGNpwQOmsDmOjbBAShGeSWtdphURnuYJI+btO+Ni5nKWhCAAAQgkBFYSx+ulSYZeMvc5kjZEG1KAAcgayWD/9cd8h/U5o4ebCK/QAACEIBAHoEPa+GgQbXu5Qtly655Rja0DAdgOPiX6ucqrvKftN3tPdxcfoUABCAAgYzAmvpQ95ztqME90l0COABZS5n5v46r/Ee1k7zfj5lpJt8gAAEIQGAQgX/RD3kDaYRlEaYEcAD6W06UkH9eG/UFgTwkqL/OWNIwAd4G2HAFsPtcAs/PXRpjoW07U4o0JRCDTHNWOOT/e2nb5kwYumc/Jvh5Q9fgRwg0QAAHoAHo7HIogdX1625D12j+x3ky4XjJZ+Kk5ghkIf+vyYRVmzOj0J6fWmgtVoJAjQRwAGqEza4KEfD99ym8pXJF2flp6XuS71gg1UvALx/6rfTKenc78d7crhlvJ8bHhlUQoEFWQZU8pyHgudyUkp9VcIoU+cFBKfEsYqsf7HOatH2RlYOs4wgFzwQIUhmYsZgADgAtIRqBDaIZVMCeR2idkySmBArAmmKVLOS/QHnMnSKfpjZ9aFM7Zr8QyCOAA5BHhWVNEkhxYDcvpgSqbTWphfzzaKTatvPKwrIWEMABaEEltqwIvo0q5ZRNCeySciGC2Z5iyD8PYeptO69MLEuYAA5AwpXXUtNvaEG5PCVwohT1XQKpIM6e5Z9qyH825+tnL+A7BJokgAPQJH32nUfg8ryFCS7zlMAnpCOlaO8SSAGnLwY9RfJDodqSrmhLQShHOwjgALSjHttUCj9kp02JBweNX5vRH+wzfonmzPmrNrpmkg3ZBgJVEcABqIos+U5K4DxtePOkGwfdjgcHFauY7Cr/FB7sU6xES9fyMwtIEAhFAAcgVHVgjAjcI/2shSSyuwSYEsivXIf8T5Zemf9z8kt/lHwJKEDrCOAAtK5KW1Ggr7eiFPmFYEqgn0sbQ/69pbxDX77fu4DPEIhAAAcgQi1gw2wCP9aCv8xe2KLvTAksrsw2h/x7m6sd2ht7F/AZAhCAAAQGE3iFfvJ9023XJO8SeENALn5QzzjJ6/uCz7bX790q4ybjgGFdCEAAAl0nsKwAeE647QcIl+9iaZwHB6XuAPjBPrd2pG4/oHKSIAABCEBgTAJ+v/vtUhecgDtVTh/Yi6RUHYAs5N+F+nQZz5Z88ScJAhCAAAQmIPBibdOVA4bLWWRKIEUHoCsh/6yt+lZW39lAggAEIACBKQi8RdtmA2sX/i9UeXcdwis1B8BX+S+SulB3LuNt0l4SCQIQgAAESiDgR8LeK3XlIDJsSiAVB6BrIX+3zWulPSQSBCAAAQiUSGA/5XWd1BUnwOU8Upr9LoEUHACHvz0H3qW6+oPKu6lEggAEIACBCgg8THn+RurSgWWhyts7JRDdAehayN9tcYHkiAcJAskQWC4ZSzG0KAHX6U6Sz8B8//Fq0vKS5yUvk/4o+fY6z8mmmC6X0U+UDpUOlpaR2p7mqYDHSy7vZ6SoyQfAT0mvjGpgBXa5H71O+mYFeded5craoSMYGyzZsafc/HruP0keP0gQgEBAAivIJj9i1leQe0AadXbs5+2fIPlMci0p1bS/DO/ilMC7VO5RdVz378+WTWcHtKtKDg75j/sAJG0SJj1IljxBOkw6S7pPyuN1v5b7xOHz0jMkThwFgQSBpgm4I/6TdKmU13GLLLtF235Qmj3PrEVJpI1l5UlSkbK2ZZ2IF0PaqWwL3yLl8MHQZ8wpJkcEHbXwQb1IWWevc6W2sxPq6CIJAhBogMAu2qfPQGZ3zkm/u1M7ipBi8oD2EclnKpOWn+1gV6QN2GH2sylSTU+S4RdIRco6ap2rlE/KLFKtQ+zuOIHXqvy+TWxUB53kd88xpxri6+KUwCR1zDaT9Z2UQ/5+tPaHpSqc5G8p31UlEgQgUDGB9yn/qgfwH2ofK1Vcjqqy7+KUQNXtgfwXz3+nGvKfq87mPl1lPZ6m/NerqlOTLwQgsHjercpO3Jv3UQKeaiSAKYFqB/vedtL2z6mH/O3IHyvVUU/naj9rSyQIQKBkAs9RflWE74YNDJ5XTzkxJVDPwD+sDaX8W8oh/6zffk0f6qyDE7Q/O+AkCECgJAJ++I3vx62zI3tfdjj2k1JOTAnU327qbqdV7C/lq/yz/vpqfaiCzag8P5QZwH8IQGB6At9WFqM6XVW/+yEgqc59ZuSZEmiu/VTVLqvKN/WQf9bmH6oPN0lVcRqWr29T3TkzhP8QgMDkBB6jTYd1tjp+e/Pk5ofakimB5ttSHe110n20IeSfdbgvNjxu/CozhP8QgMDkBL6rTScd0Mra7grZ0JZ5PaYEmm9PZbXLMvNpQ8g/G2Xm6cPdAcaNJ2QG8R8CEBifwIO1SYSO7IHWZ89tSb67Yb406NGnZR5YyCu2w+FHZ79EalM6RIWJ0O7a8H6ENrULypIYgdcE6cgeTBYkxq6IuUwJxDhQNHWwalPIv7e9T/qI37Lr4XYZ5WcQkCAAgQkIHKFtyu6Uk+bnaYA2Jt9h8RtpUi5slyY7O7RtfH3vJsHacup3EQlne5PfBkWKS+DRgUzzVcUbBrKnLFMuV0ZPlD4q+WBOajeBLOR/oIrpM9S2pd2DFWiPYPZgTg8BHIAeGME++glevmAtUtoikjEl2nKP8nqb9Ezp+hLzJatYBM6UOXaq2zw3vXUs5HOi2RMMT7Pm4AA0y3/Y3tfVj9HqZ94wg1vwm5+XvqN0YgvKQhFmEvAT8Xx2fOHMxa375imASKmNUcNIfKeyJdoBZqrCtGzjiBfPeBqg7YkpgXbVcNtD/rNra4PZCxr+vkbD+2f3QwjgAAyB0/BPdzW8/7zdd8EBcLmZEsir/fSWnSeTd5PaHPKfXSvRzrh9qy0pKAEcgKAVI7NuDmhatMGlakSeEvAjTX9b9Y7Iv3QCX1COj5LOLT3n2BlGiwC08ULL2C1gDOtwAMaAVfOqfo73nTXvc9TuuhIB6OVwqb74iWZ+uMr9vT/wOSSBW2XVS6XXSneEtLA6o9ZU1qtWl/1EOV810VZsVAsBHIBaME+0E9+S9teJtqxuoy46AKbpl5vMl54lcZeAIARNDvnvKn0jqH1VmxWxf7b1+SFV12Ut+eMA1IJ54p1EcwAeopIsO3Fp0t+QuwTi1qGv8vctfl0L+ffWSEQH4MpeA/kciwAOQKz6mG1NNAfAB//1ZhvZse++S2AviSmBGBWfhfzb+mCfcShHvEaHCMA4NVjzujgANQMfc3fRHACbH3GQGRPr1KszJTA1wlIy6HrIfzbEiBGAiGPYbG6d/Y4DELvqI3aeiINMU7XIlEBT5OfMIeTfzz7aHQC2MOIY1k+uo0twAGJXfMTOgwMws80wJTCTR9XfCPkPJhwxOscUwOD6avwXHIDGq2CoARE7Dw5Af5UxJdDPpIolhPyHU43WN++Wudw1M7zOGv0VB6BR/CN3TgRgJKJQKzAlUF11EPIfzTaaA+Dxizdsjq63xtbAAWgMfaEdR4wARAwzFoJZ00pMCZQLmpB/MZ4ey32bbqQU8QQmEh9sgcBIAn4ksL3oKPIrVUnFCOyv1a6TotRdanb4nv5tiqHu/FrrB2xnR3a+VoIDIAIQvIJkXrQoQLQwY+QaZEpg8toh5D8eu4j9MtrYNR7RDqyNAxC/kqOF0dYRspXiYwtjIVMC41UFIf/xeGVrR3QAeApgVjtB/+MABK2YHrOiOQDLyLaI9xv3IAv3kbsEilUJV/kX45S3VsRrc4gA5NVUoGU4AIEqY4ApETtRxLONAfhCLWZKYHB1EPIfzKbILxH7ZLSTlyIcO7UODkD86o4YRos42MSvycUWMiUws6YI+c/kMem3iH0SB2DS2qxpOxyAmkBPsZuInSjiYDMF4to3ZUpgMXJC/uU1vYh9MmL0sjziLcgJByB+JUbsRBEHm/g12W9hl6cECPn3t4dplkTrk47sLJqmQGxbPQEcgOoZT7sHIgDTEoy9fdemBAj5V9Meo10EGPHEpRry5AqBCgksr7zvkyI9xOUXFZa3y1m3/cFBPNinmtbNGFEN19bnSgQgfhXfIxOjvVAjWrgxfi0Ws7DNUwKE/Iu1gUnW8m250cZyIgCT1GTN20RrNDUXP5ndRetM0cKNyVRkAUPbNiVAyL9ApU+5SkSHPOLU5ZSY27c5DkAadRqtM60qbKulgS5JK9tylwBX+dfT/HAA6uHcur0sl3CJHiHb95UeK20m+U1Ya0p3Sw6ZL5TOlo6Xfi3dIaWaojkA5ugowAWpAk3Ebk8J7Cz9r7RbIjZnZn5BH94kpdzvsrJE/x/xyZwRn18yTj365Ur7ST6+bC1tJK0l3S/5BV8ek8+RTpJ+Ll0rkSomMFf5v076gzTORXG+HeXL0k5SiukQGT1OeetYd+8UQSZqsy/y+ojkwaeOup1mH7fIxhdLpPoIHKpdTVNnVWz7uPqKX9qellVOz5V8QL9PKsrFEbsfSc+Q/Kh0UskEPFXxWsleZdFKyVvPA+j/SY4epJReI2PzytPkspemBLAltka/S8CO+RYtYZ1SMQ6XsU2OBXn73iQlgLL1yZIjxnllGWfZacrj8RKpJALzlM+vpHEqYdS6Dkv6rHplKYXkgX9Umer+/e0pgGuhjRurTCcHbA+OsKXSn9rWLI4J1h58opXKG0PnydbvlszP5f+MtKJEmoKAw0jXSFUd3P6svJ85hX11bep54KoYTJrvYXUVnv30EXhDwPawZZ+VLKiLgOeiJ+3HVWznOfLoyQfnd0u3SVUwcJ6nSL6WgDQBAc8x3y5VVTm9+fpiq8jTAr7AsdfeCJ+PlE2kZgjgADTDPepeb5RhEcaEzIazooJaYtdT9P/Cmph5P9w2vQR80X87asVbpaxB1fHf0wLzpYhhTF8DcbdUB4ei+zhR9pCaIYAD0Az3iHtdRUYV7bN1rffTiKBkk6fPvtMAL18bs5oULvnAEi35VovvSXNrNsxzVu+VHE7z1ZyRkueUro5kkGx5aDB7MAcCXSQQsR/6FrlIaQUZ8y7Jz6V4XgOG7aB9fqmB/Y7cZUQH4KOy+uEjLa9uhU2V9Q+koyV/jpKuiGLIEjt87/EywWzCHAh0jUBEByDSWLWvGoSnJA6V6j6p7G2L/6AvL+ldEOFzNAdgN0F5RQQwssFX3jsa4KhAhCtao3nVvohmXYkEAQg0RyDi/HKEsWojVcmR0s+kLZqrnhl7/rC+rTpjScNfojkA7xOPSGeVvh5gvuS3mNkhaDJF6FSzyx/x7GO2jXyHQJsJROyDTY5VK6iy3ymdLz0/WMW7rt4YyaZIDsD2AvOkSHB6bPFUgKcEPDWwSc/yOj822akGlTPi4DPIVpZDoI0EIvbBpsaqfVTBDvf/p9RkuH9YO3uDflx+2Ap1/hbJAXh5nQWfcF++ONDRgH+X6p4WiDSvluGLOPhktvEfAl0gELEP1j1WPUwVfYR0rBQl3D+o7dnWvQf9WPfySA5A0yH2ouw9LXCI5OsDnl50oxLWa8qrHmZ6xMFnmL38BoG2EYjWB/0M/bruWHK4/x2SX0r2AimV9OwohkZxAHzBxmZRoBS0ww8O+qF0lFTHtEBEByDiBUgFq4/VINAKAtH6oA/+dgKqTp4uPlP6oBQ13D+IgZ9wGyJFcQC2C0FjMiP8KGFPC/ybVOW0QEQHINrZx2Q1yFYQSJeAb8eNlKoepxxC/7Z0nLRlpIKPYcvWWrfKY0VhU6I4AD6bTjl5WuA/JL9N6mkVFcSP+/SjkSMlHIBItYEtXSPgh6atEqzQVTkAvnDu7ZKv7vc99SknH3cd9W48RXEA1mmcRDkGPFLZ/Ej6vvRwqex0ZdkZTpkfDsCUANkcAlMQiNj/qnAA9hYjh/s/JIW6j36KugvxDJUoDoC9uzalZ6kwnhb4V2nFEgtW99W1o0xfTyssN2olfocABCohENEBKHOM8vUN/yv9XNqqEoLNZRrimBfFAbizuXqobM8Ozb1P8t0CTy1pL1V419OYtqw2fsg0GbAtBCAwMYGIDkAZY5QPjm+VfHX/CyemE3vD2yKYF8UBiBbaLrNuPC3wY+m70rwpMy6jc01pQt/mEQehPiNZAIEWEoh2B4ARTztGPVF5+O15H5HaEu5XUfrStX1LGlgQxQH4UwNlr3uXz9EOz5PeI006LTBt56qizDgAVVAlTwiMJhCx7006Rrks35J+Ifkq+TanW1W4yyMUMIoDcKpg3BcBSMU2eFrg/ZLvFthvgn2VOb82we5zN4k4COUaykIItIxAxL43rgPgcP/BksP9/9iy+hlUHF/Q6Fe8N56iOACLROKUxmnUZ8Bm2tVPpP+TxpkWGLdz1VGiiGHIOsrNPiDQNIFoDsCdAnL9GFD20rpnSB+VVpO6ko6NUtAoDoB5+GDYtfRcFdjTAu+WikwLRHQAog1CXWtDlLe7BKI5376W628FqsNjxjelX0rbFFi/bauEOdZFcgC+plq+q201XaA8nhb4gOS3WD1lxPo4ACMA8TMEOkLAY/dDgpV11PjkcP9bJIf7XxTM9rrMOVk78p1hIVIkB+BqEbET0NW0uQr+U+k70sYDINyu5TcN+K2pxUQAmiLPfrtMYD0VPtozOIY5AHvK3tOlj0ldCveruDPSB2d8a/hLJAfAKOZLPsh1OT1Phfe0wLukFXJAXJGzrMlFOABN0mffXSUQsd/ljU1+V8HXJYf7t+1qZS0p9+/0/6hIDKI5AG5A/xYJUEO2zNV+D5U8LbDvLBuGedmzVq3l69ray8q17ImdQAACGYFo8/+2q3dscnTizZLD/S+RlpG6nO5R4V8nFblGojZO0RwAF/wT0rG1EYi9oy1k3s+kI6WNlpja28mWLGr8X8SzkcahYAAEKiQQsc9lY9MTVG6H+z8urV4hg5SyfpuM9e1/oVJEB8D3R/6D5Lc+kRYTeL7+mcc7pesWLwr1N+JgFAoQxkCgZAIR+5zHbl/Hdby0nURaTOBL+ndYRBjRLiLJGPlCtydJP5e2yhZ2/L+nBf5TcigpWoo4GEVjhD0QKJNAxD63QAWMekwpk/04eX1DKzv0HzJFjABkoHxP6eOl47IF/H+AwPIBOUQcjAJiwiQIlEYgYp/j4L+0ej3X/wHpAOm+pYtjfYrsAJjU9dJ+0nukOyVSTAIbxjQLqyDQWgL0ubhV65PXp0p+HXyoi/5mI4vuANhee0+HSjtIx0qkeAQino3Eo4RFECiPAH2uPJZl5XSvMvJF7FtKvng7fErBAcggXqQP+0rPlC7JFvI/BAEGoxDVgBEdIbCCyrluR8qaSjFPkKG7SL718ZZUjE7JAciYHq0Pfl3kIdJd2UL+N0oAB6BR/Oy8YwTc37p+X32UKr9KhrxM2lPyc1uSSik6AAbspwXOl3yriR+fS2qWAPORzfJn790igMPdfH37lscvSA73L5BCz/XLvtyUqgOQFeaP+uCLLZgWyIg0898vNFqzmV2zVwh0jgAOd7NVfop2v6v0WunmZk2Zbu+pOwBZ6ZkWyEg095+zkubYs+duEaCvNVPfvivtTZIP/nYCkk9tcQBcEb3TAklcgZl865lZAAalmTz4BoGqCNDXqiKbn2/2hMMt9LOf6OfvrUhtcgCyCvG0gJ8d4GmBS7OF/K+cAGHJyhGzAwg8QAAHoL6GcKp25TP+AyVHAFqV2ugAZBXkaQE/Rpi7BTIi1f5nUKqWL7lDICNAX8tIVPc/C/c/VrtoRbg/D1WbHQCXN5sW2F6fmRbIawHlLdugvKzICQIQGEKAaNsQOFP+1Npwfx6XtjsAWZkv0gemBTIa1fxnUKqGK7lCYDYBIgCziZTz3eH+3aRWhvvzEHXFAcjK3nu3wN3ZQv6XQoBBqRSMZAKBoQRW1a+rDV2DH8clcIM28NX9Dvf/ftyNU16/aw6A6+o2ab60nXSMRCqHAA5AORzJBQLDCBBpG0ZnvN86Fe7PQ9NFByDjcJE+PEXy3QKXZQv5PzEBXwPQ5fY0MTg2hMAYBHAAxoA1ZNXecP91Q9Zr9U8M2HPm9N4tcHera7vawi2v7B9c7S7IHQKdJ0Ckbbom0Nlwfx42HIDFVLJpAd8tcGweKJYVIsDgVAgTK0FgYgL0scnQdT7cn4cNB2AmlQv1NXvlMNMCM9kU+cbgVIQS60BgcgL0sfHZnaZNdpd8dX9nw/152HAA8qgwLZBPZfRS5idHM2INCExDAAegOL0s3P8YbXJy8c26syYOwOC67p0WOG7wavzSQ4DBqQcGHyFQAQH62GiohPtHM3pgDRyA0aA8LfBkyXcLXD569U6vweDU6eqn8DUQIMo2HDLh/uF8ZvyKAzADx9AvvltgW8lvg7p36Jrd/XFLFX257hafkkOgUgLrKPeHVLqHdDP33P6rJML96dZhMpb7QOe7Bf6G+hhcICb7SKTqCLxBWUdre+4TpGoILKNsfQHbNVK0em/anvvEZIHELciCQKqXwAu0u6ukpjtBxP07YvKwequjM3vDAehMVc/ZWUX9rRSxjzdtk8P9flUvCQKNEVhDe/a0wD1S0x0i2v5vEpODJKYFBKHEhANQIsygWa0lu7Lpxmj9uml7fHW/x5Vlg9YdZnWQwA4q8wlS050j4v7PFJfHdbBNVFVkHICqyDafL+H+wWOor+4n3N98G8WCAQSyzsu0QH8nzjrv+gPYsbg4ARyA4qxSWnMnGXuSFNGJb9omwv0pteSO27qmyu/wHdMC/YMZ0wLTdw4cgOkZRsphLRnj8cJ3FzV9oI22f8L9kVoqtoxFwNMCv5GidaoI9vxBXJgWGKs5/X1lHIC/o0j6QxYxvFqliNAnI9mQRQy5uj/pJo7xawjBL+jguQOcO/nhEtMCgjBGwgEYA1bQVXeRXb+TIh10I9nyAbHhIr+gjRezRhPYSqs4rLdIitSxItpyoxgdJNHhBaFAwgEoACnoKtn0IOH+0ePiX1WHH5TmBa1LzILADAIr6pufDcBDgkZ37jxHxNMCe8wgypc8AjgAeVRiLyPcP9mY4HHCD/vxmOqxlZMEQSDFIrC5zLGn6sdR5h3YWFacSzb3x7TA4DaOAzCYTcRfdpRRJ0qMA9MzuEwc50vrSSQINEZgBe05O9v3QYvOXS4DpgUGN20cgMFsIv1CuL/cMaF3jL1LFX2E5MeOO7pCgkAtBDbUXuZLXLlbXefu7ehniDXTAoLQk3AAemAE/Ei4v56xIRsn/MbWd0h+WRIJAqUT8FsT7Wna4+TinXo7tzt5Ni1A2E8wlHAAFnOI+Jdwf/3jQ+YI3KEGkUUFIrYNbEqMwAay157lQilrZPxvjgXTAmqISjgAizlE+ku4v7lxIW9MPleNw3cWrRqpkWBLfAK9Z/t3y9y8xsWyZrl4WmD3+E2pMgtxACpDO3bGWbifx383OyYMGpNvUY1+XnJkhgSBgQTswdtjvFga1JhYHodNl6cFcAAGduNaf9hBe/sN40Uy4+WpqqvXSKtIJAg8QMBP5LKHeLvEAT49Bjeq3uy4den+YBwAVXiDiXB/euNE79h+k9qOx/xtGmxD7LpBAqtr3/YEz5R6Gwaf0+VxuuqyK9MCOACq7AYS4f50x4dBY7ujAgdKyzfQnthlzQSys/1btd9BDYLl6bLpyrQADkDNA4d2R7g/3XGhyJjuazj8MLdN6m9a7LFKAispc3t4fp90kYbAOulzavsrRHEAqhwxZua9hr76nR73SIwN7WfQ+9jh5WY2Bb6lRGBLGWuP7nqJjttNBp4W2E1qW8IBqL5GCfd3c8zoPVZcoWbmY8hG1Tc39lAGgd6X8Tgc3FuZfO4mj2xa4MFlNLAgeeAAVFsR2yv7EyTGDBi4Dfjhb34Z0TMkO4akYAQeKXvsqV0r0WlhkNcG2jQtgANQzQA0d8k4QrifMSRvDPGyP0p+OFybTihUnPSSb/uyR2bPjLN9OuygDjt7ua8FSX1aAAdAlVhy8ljiN83Nbi98h0leG7hTbSV77DBRgZI747DsHqof7YFdKuVVDMvgMqoNpD4tgAMwbIQY77cttLpPIka1GX6H0aA2cL7aj49Ja0ukCgj0Pp6X8BwdcVBHHHd5qtMCOADTDzIO98+X7pLGbTesD7O8NnCH2tICaWeJVAKBhygPe1Z/lvKAswwuZbQBTwvsKqWScACmqymH+4kgMnaUMXYMyiN77LAdTdKYBLbR+l+TeBkPnXRQByt7ue///ZyUQhgPB0AVNUHaTtv8Siq77ZAfTAe1AT+q/H3SuhJpBAE/dOPTkm+7GASU5bCpsg1cp7b3asnTTlETDsB4NbO6Vv+4xPQhY0eVY8ewvO0IvF4KNa5EMsbzJg7FenDzFf4kCDRBYB3t9AvSKVJK0wJNsEphnw73nyO9WeLJbinUWDtt9AukPiMdJ60fpYhRHIBnCsiJ0iOigOmAHX4fwhelR0uvla6XSEsJ2CF1m/yslMK0wFLL+WQC20rHSz+QeJKbIPSks/T5idKzpJ9IviuGVA8Bcz9J2rSe3cXfiw/+hObqC8258zsU5bBob/KZr1+R6bnwYaGsLv52rZi8SoriMDMFoMoYkFbT8o9JXD/U34/9GtyDpNmRkE207FDpKqmL/buJMl8u1vOkTqdHqfS3S01UQJf2eYcYL5D2kEYlRwQc/u4Sn6Jl/Z24+I2STSccgPwaeJEW+/ntReuzK+v5DN8XVfuuqmFpBf34QukXkrfpCp+mynmuGNth7WTyGejFUlPwu7DfC8X3YMln9+Mkn+lm0wJd4DROGX2B6n9LTU4L4ADMbM3b6OsvpXHqsSvrOuL3hJm4Cn3bUmv9l3SD1BVWTZTzq4Vqo4UrfYKGVUnH8gHqaGkfaRlpmrSWNvarUJ1nE50j8j59zYTDqU1MC+AACLzSXGm+xMN8+vunr/ExG5/VT5N6X7AWuT+mbNtTp6mgFLfdXEYz79/faadpxAvF9D3SBlLZ6THK8BRpGvvauu1vxWXnsoGPyA8HYM6cfxQjwv39fdKh+69LVYwDOypfXxR7i9TW/txEuc4Tz07d+fZlGlApHcgX7P1Q2r+GBuQz3ddJPvNtopNE3qcjJL7FxxGTOlKXHYCtBdhz1JHbQ1O2nS0ue9bQAD1v7bHgDKmpsrZtv8+vod5C7GINWcGFf9N1nCvF8P3SvAZqdF3t84sSdwv01+E14vJKadqpF2UxNHXRAVhVRD4scXV/f7u7WVzeIi0v1Z38rIzDJcb0/noZx0n5Zd0V19T+PECOA4Z1F/NyaO846QVSEx1du52RHqtvp0rUTz+Dk8Rlpxm0yv3SNQfAV6ZfLtHWZjLwmPAN6aFS08nRrzdJ50vU0/gMfEIVoR5lRrXp28qeBlKcge/d/by0TbXVMlHunhY4ULpWok5nMnCHXiA5YlJ26ooDsJnA/VSibfUzuFBc9i27YZWU3y7Kx2MWUYH+ehvWll9WEv/Q2Vwq64ZB4LfFfE4UpwOklULX5mLjHqx/X5KYFuhv21eLy8ulMqcF2u4AONz/IYlwf3978gV4B0sRooAyY2haX7++S/qzxLg+msEXhtJswY+e/3fYisaQz8Bzeb6YbHspxeT5wNMk6refgR06X0VdRmqzA/APAnSZRBvqZ/AtcUkxTOxIoW91O0riluL+es3a+q/Fp9VpK5UuKyz/l7I4XVxeI/nMJ/Xk21n8qGEeILK0frO27sHvU9Ka0jSpjQ6AHzxzrJSx4v9SFueKyxOnaTCBtt1IthwiXSFRxzMZLBSTViefIVLpixncJhZfkR7T0hr3tMCXJSI+/W3e0wIvkyadFmiTAzBXHD4o3SUxNsxksEhM3iqlEO6XmWOl5bT2c6SfSUwdLq5332Ld6uQrx7veyS8Ug3dI67S6ppcW7lH6eLLU9XrPK/8p4vLopagKf2qLA/AMlXihlMem68uOFpeNpS6kR6iQdgLtGHe53lvvAGzT0Qr22Y3n7/aUupg8LeCDFtMC/QOcpwU+KY0zLZC6A7CFynuM1OXBflDZzxOXvaUuphVV6BdLngsfxKfNyxeq3K1Oq6l0ba7A2WXzxUzzpfUk0uIX6BwmEIT8+vvBdeJS9N0CqToAq6iM86U7pdl9pevfPSVoNj4IkubMsZPoqID7RVfaxq+6UPGXtrxC/Y6D70n7SQ+SSP0EdteiM6SudOxxynmCuOzQj2zGkhQdgOepBG3v++PUc++63xabh82oYb5kBOw0vlL6vdTLrI2fP58Vus3/3djbWHmXq1zzpQ0l0mgCnhZ4o3Sj1Mb2ME2Z7EQ6UrKGlJdScgD84i9f6DUNj7Zu66fmPSmvglmWS2AXLf2idKvUxjbx0txSt2zhgS2qPIey/aSyZ0vLSaTxCfhhIYdL3C3QP6hdKS4HSLPvFkjBAfCZ26GSr39p42A9TZl8APOFwCtIpPEJ2DF2HzhLmqYeIm3ra4EeIrU+ufJulyLBH9cWX63q+alHSKRyCOyhbP4gjVsXXVj/1+LS+3Co6A7Ac2XvJdRlbls+QlwI9wtCSelxyudr0h1SymOBL4rtTPqcSppiZfkijRdJXKhTTVP1tMA/S0wL9PcPTwt8QsrOfqL1ny1l22aSI2LRbItgzwXi8mSJVA0B31Z9sHSRFKG+x7XBTnNn0iNV0lRCgz4YeT52687UTvMF9bTAVyWmBfoHM08LHC2NO8BUvf4C2XRnQLuqLveo/B3uf6dEuF8QakieLttH+o50tzSqfiL87qkM292p9DGVNgL8QTacLPt89annMknNEHB4j2mB2P1kUP9h+eKD0EbNdB32KgIbSP8qXSJFbY8+yXmi1Lk0VyV2WCxSxSySPV+QdpZIMQj44sp/kW6SIrUVbKE+BrWBC9VW95VIMQh4anF/6YdStGeQ+HjT2bSjSu6D7qCOVNdyh2BeL60ukWISeIjMcpiZaYHm+0td/TK1/fhhPu+SCPcLQtA0T3a9X/JUWtPt63TZsLLU6fQ0lb6J6wF81agPKL76nJQOgcfL1DOlpjsv+6cOetvA/6lNbpxON+q8pX7B0gukn0tNnFT8Sfv1FAVJBJ4q2Xvu7VBVfXZ4zleLriOR0iTgaYGDJKYF6ukzVfXFNuTrq86fkmY3wuolBDbXf1+TVtdjh8/RvjZasm/+LSGwg/7/UapiUPDVoEdKT5I6d7WlytzW5GkB3wPchAdfRTslz2r6fxVcfcLyHolbggWhJWklleMA6USpijbjPB0pWlMi5RBYVcs+Lvme5zIqYKHycScl1CIILU5PUNl8HUcZbYY84DiqDXxXbW1ei/sTRVv84K3PCMTN0qj2UOT3q5TPywBbjIAfKHK4NMnTne7Tdr7a01d9+upPUjcIeFrgzVJZHbZIp2adcgbHVDg63L9fN7oTpVxCwCelr5F8wd4k7dQH/ndLq0ukMQmsrfUN3x63H787qAKu128/kt4oPVQidZeAoz1fl5gWGNxfBvUjluczc7jf95MT7heEDqftVfZDpBOkQSen9+o3397+Wenpkk9MwqbU5sMfLJIbSusuIXqL/l8m+ZYOEgR6CeypL5+Wtu1dyGcIjEng+1rfkaWFY27H6u0m4OiyTzbXlzynf6fkE9G/LPmsfyQIQKBJAtndAkwL5J/ZcsY/mMvFarg+gyNBAAIQgEDCBDwtwEOEBh/scASWsvGbSudLviKcBAEIQAACLSHA3QJLD3Qc9PtZHK12vklL2jrFgAAEIACBWQSYFug/8HXdGfBT2XzXEAkCEIAABDpAgGkBHAHC/R3o6BQRAhCAwCACe+qHs6WunwV3rfwO9286qFGwHAIQgAAEukGAaYHuOECE+7vRpyklBCAAgbEIMC3QXkfgLrWEw6S5Y7UIVoYABCAAgU4RYFqgXY7AsWq9W3aqBVNYCEAAAhCYmIDfF+5XDvMQoXSdAT8l9MCJWwAbQgACEIBApwn4cZ88RCgtJyAL9/tFLiQIQAACEIDAVAT20tbnSF27Wj618h6nOiLcLwgkCEAAAhAoj0A2LeCXUKV2YGy7vYT7y2vn5AQBCEAAAgMIZNMCbT+oplC+u1VHvrqfcP+AxspiCEAAAhAon8BeypJpgeaiIQ73b1V+tZIjBCAAAQhAYDQBpgXqdwAuV7Vwdf/otskaEIAABCBQAwGmBap3BAj319CQ2QUEIAABCExG4InajGmB8p2Bn4sr4f7J2iRbQQACEIBATQSYFijPASDcX1OjZTcQgAAEIFAeAaYFJncECPeX1w7JCQIQgAAEGiLgaYFzpRRuq4tgo8P9WzdUV+wWAhCAAAQgUCoBpgVGO0CE+0ttcmQGgeEEHjT8Z36FAARKJrBMyfmRHQQgAAEIQAACQQnsLbvOkyKE11OwgSv+gzZkzIIABCAAgWIENtRqfpNgCgfdaDZyEWCxNsZaEIAABCAQiEA2379INkU7sKZmDy/5CdSwMQUCEIAABAYT4Ir/apweXvM7uM3xCwQgAAEINEiAcH81B/7eiAXTAg02cHYNAQhAAAIzCWTh/lu0uPdgxefqeDAtMLMN8g0CEIAABGomQLi/uoN8EQeKaYGaGzy7gwAEINB1Ajzit9kDf69zcJca42HS3K43SsoPAQhAAALVESDcH+fA3+sE+DPTAtW1e3KGAAQg0GkCe6n0vOY3rgOQOQTHqp627HRLpfAQgAAEIFAKAcL98Q/62cE/++9pgQ9KK5XSAsgEAhCAAAQ6RYBwf3oH/swByP7/SS12/061WgoLAQhAAAJTEdhLWxPuT98ByByBo1Wfm07VItgYAhCAAARaTSAL99+vUmYHD/63g8XtqtP5EtMCgkCCAAQgAIHFBLJw/836ygG/3QyYFqDXQwACEIDAAwT21N+zJQ783WLgaYFNHmgB/IEABCAAgU4R2ECl9at6Cfd368Df6+gxLdCpLk9hIQCBrhNYTgAOkgj3d/fA3+sE+PPF0tMlEgQgAAEItJTAnioX4X4O/LMdgOw70wIt7fgUCwIQ6C4Bwv0c9LOD/Kj/TAt0d5yg5BCAQIsIEO7nwD/qgD/od08LPK1FfYGiQKCPwDJ9S2IvWFfmbSStLdn2RdKl0pUSCQK9BPbUl89I2/Qu5DMExiTwfa3/JumSMbdj9XYTWEPF21zy8Wg1yccjX1fk49EF0m0SaUoCa2n710jfla6WBnnrN+q3H0v/LDncS+ouAdf/NySu7h/cXwb1I5bnM/Ng/h5pRYnUXQI7qugfls6U7pMG9Zd79dsp0vulrSTSmAS20Ppfke6QBkEetNzwj5IcvnuQROoGAYf73yzdLA1qGyyHzTRt4CK1rf0kUncIrKqi+iT0NGnStvNzbbuXRBpBwKGU/5LukSaF3bvdX5TPu6T1JVJ7CTxBRTtL6q17PsOjqjbgiOS89nYnSiYC20meQizzhOI7ys+PGyflENhJy+xhV9Fp71K+35aeKHmuhtQOAg73f00i3F9Nv6miL7YlT08LvFtiWkAQWpL8nogDpBOlqtrpNcr7KRKph4DDardKVUHvzdcXaDhU7AsJSWkScLjfF2aV6Z33thE+19MX28D5QrVDBvQ0x5HMal/M91HpOqmONukI9yslkgjsI90p1QG+dx/e5xFL9q9/pEQIPF52nin11iWf4dF0G/BDhB4ukdIgsKzMfIZ0rNREBNH77LwT4HmWus78hw0Qf5Adr5N8DQIpJoGHyKwFUhOddVjb4Tecj6wNeCzzNUcrSKSYBObJLF+df6WU1VtT/x0J2FPqZJqrUjsc3xT8vP3eIns+J/l6BFIMAg73+9n9N0l5dcYyuERrA54W2FcixSDgs/39pR9Kw27fa6IdXSGb1pU6lz6kEjcBvOg+T5V9vv3DjgqpGQKP1m5/LxWtM9aDVaQ24GmBec10HfYqAo4avkP6ixSpXcy25Yuyr1NpE5X2bmk2iIjfb5Cdn5B4oIMg1JR82+ZXJcL9/X3EoUufyUTrK56euSugXU1z8rTAOyWmBQShhuS7vHxd2ZFSKscYRyW2lzqT/lslbbpjjrt/H4x+Kb1QojMLQgXJobp/lvxkx3Hrp+3re77Qjuga0hsD8tlCNm0u/SygbRHahqc7nyyRqiGwjrI9WPL0S4T6HtcGP720E8kh9UXSuIAire+owGHSphKpHAKPUjaE+/P7xa/FpvcMIaoDkLUEX129UIrUZ6PYwrRA1krK+b+Lsvm85OcyRKnjSexwtGIdqfXppSrhJIAibuPQzU+kZ0k+eyWNT2A9bXK4RLi/v19cJS4HSg5r9qboDoBttaP/nxLTAv316mkBz00TSRSECdLq2ub1Utue/vnqCVgkt8nXZXHEg/m0Nv1V5fqgNC+5GmnG4Adptz64XSdNy75t29ux9Jz6oDOCFBwAmf9A2kx/7SS3rY7KKM9F4uKHoJGKEdhZq/lsf5FUBv9oefhpta1PC1XCaODLtMdztd+VniL5IEfqJ7C7Fp0hlcm9LXn9Rlx26Ec2Y0lKDkBm+PP14VKpLfVUZjk88D8sA8X/GQRW0bdXSl2YHrxiRslb+MVhwS6Fei9TeedLDnOTFj9+2ddORLsXt8zBfNK8HAk5SCriNKboALj9ezCfL90pTcqprdt5DttsVpRIc+ZsIQiOqLpftLXO88rV6ofRbdmxyswq2APeN6UnSF1Mvj7iDZIvnsyY8H8xC7+++pPSmlLRlKoDkJXP48CxEm2gn8F54vKkDFTH/tv5eZH0K6mrbaPVt5s/psMVmzXoC8XAFwANmt/VT61Ku6g0J0tZ+fm/lMUp4uI+MW5K3QHIysvdAkvbwux+cbQgbZyBavn/R6h8Ptu/WprNoWvfPV62NvnJbl2r0EHldcjvy9IkB4AUGsiDl5SvS1M+g+p69nIPdC+XZl/dr0WFUlscABd2VelDUioPbZldl1V+XyQub5OWl9qWllOBniP9TGJKcOlxsdUOwFaq7Co7TKp5nyYur5E8GKaeHO73LTqE+/vbusP9n5bGCfdr9b7UJgcgK5ynBY6TUu3DVdp9rrjsnYFK/L8vdjxEulyqklmqeTsa0trUtYsAx22EfhmRb3PZMdEWYO/1d9K45e7C+pOG+/OaQhsdgKycnha4hDaU24eOFpcUpwV8Yes+0hGS75LqQn+fpIw+QWj9RaB07mId4EQ1hgOklaToaV0Z+CWJUF5/3V4jLq+QlpHKSm12AMzIkbAPS0wL9LcnnyS8VUphWmA92en3IPxZmuSA2LVtfH1Y65Ovhu9axU5T3pvEy1GBbQO2DHv2B0rXStOUsY3b2hlaINk5Kju13QHIeG2uDz+V2tg+pi2TDxb7ZqCC/Xck0GPW7dK05ezS9l8MVo+VmPMyGsVEncIX03mO9AVSBO//sbLjVKlLHbRoWX8rLn5qWVWpKw5Axu+F+sCccX5f8wnVQzNQDf5fS/t+k3S+VLSfsN5MVs9rsP5q27Wf44xnOLPix+0IV4rh+6V5tdXa0h35jNaeKuH+/jp0uP+VUpnhfmXXl7rmABjAqtJHJKYF+tudpwUOlpo4MfCJwP9IjOn99TLOuH6jGKYw3Sszp08OD40Dh3Xzefkg7AeqOCqwnFRl8kHN4X4f5KiPmQyqDPfn1WkXHYCMA9MCM9teb1+sa1rAT6t7jXS61Lt/Pk/Ow9e8dCZtppLiyU/eWPI62iVi+q/SBhW0okcrT1/Fnrffri/zXQ+e86wzddkByDj/oz5cIXW9/c0uv6cKvyFVMQ74HRWflRxxmL1fvk/OZJF4PkTqVPq4SkujKZ+BHasjJd92M20oeh3l4WgN4f7+evKFj6+SfCFk3QkHYDFxn4l+VOJkor993iwub5amjQw6LO3I30kS43U1DN4htp1Lq6rEF0k0quoYmK/nBn0gHyf5oOYQ33US9TOTgZ0hnwWtLTWVcABmkt9GX38p0Vb7GZwtLnvOxFXo2xZayydp10twrY6BI4hNXLuh3TaffKX0rRINrFoGd4jx16Q9pFHpUVrh9xJ10s/gZHExn6YTDkB+DbxIi5kW6G+3nhb4ujRqWmAFrfMP0i8kb8MYUC0DPxL84VKnk5/8RQiv2obW25HPEu83SGvManU+o/2cRLi/vy4c7n+11ES4X7vtSzgAfUj+vsDTAh+TGFP627GnBXyr3uxpgYdr2aHSVVLvWMHn6njcIta+tookAnYCfJZKg6uPgSMvX5B8RuuDmw9y8J/JwM6QnSI7R5ESDsDo2mBaYGZb7u3bPgnYS/K4+yMJp38wq15uZX32mX+ESKLMiJN2kikXS2VBJh9YTtMGTlNb3DVO95hhCQ7ADBxDv/ggd6k0TVtgW/iV1QY8vbrJ0BZb449RQpou8hnSLtKnJXukJAg0QeB67fS1ksNzvkCHlDaBo2X+ttJ/SfemXRSsT5iAQ/4HS7tLf0m4HLWYvrX24otW7pHK8rzIB5bD2oCdTt/yuI4UPREBmKyG7AgcLw1rB/wGnzLbgE8o3ic9WCKNScAPR/A9kn+RyqwU8oJnbxvwE812k1JJOADT1RTTAvT/3v5fxedT1UR9K/Uq0zVVtjYBT1XsIx0hERWg85bVYW9QezpIWlZKKeEATF9bc5XFfOkuqaz2RD7dZukwv6OIvp6NVBGBDZWvowKXSXQ4GEzSBnyP8wJpPSnFhANQXq35gTfHSJO0I7aBm9vAeZKPSWtJpJoI+KEVL5COlXhoBR2x6GCcWrg/rzvhAORRmW4Z0wKMIUXHEK93p+SItCPTpIYJbKb9f1DiXnY68aBOfKPaR4rh/ryuhQOQR2X6ZUwLMH4MGj+y5Reqmflsf93pmxs5lE1gRWWYRQWyCuN/tzt16uH+vD6CA5BHpbxlnhZwZJGxAwZuA75OJDvbn/YFa8qKVAeBrbQTRwV8oRcduZsMHO73fbdtSzgA9dSopwW41qibY4ePGZdLPoY8TCIlSmA12e3bMXwwwBHoBoM2hfvzuh0OQB6VapZ5WsAHAe4+6sbY4eeBOPrjSHJqdwfJZNIwAn7SoG/TuFXCGWgfgzaG+/PaMw5AHpVql22v7E+QGDfayeBK1a0dvYdLpJYTWEPlc1TAL8WgQ7eDwRmqyzaG+1WsvoQD0IeklgWe/z1Qukpi3EifgU8YsrP95fWZ1EECWVTgdpWdTp0eg7aH+/O6JA5AHpX6lvkE4jCJaYH0xguP8R4zHAneWiJB4AECfiiMb+/4k4QjEJ9BV8L9DzTOWX9wAGYBaejrDtov0wLxx4psPD9V9eXI78oNtRd2mwABHjscv0OfoXa0RwJtqSoTcQCqIjt+vkwLxB4vblaV+mzf13CQIDAWgQ20tqMCl0iZF8n/5lg4dHeQ1PWrc3EA1AiCpTVlD9MCzY0Ns8fl7Gzfd3GQIDAVgd6ogN8pPrux8b1aJlm4f/2parE9G+MAxK1LTwv8RmJMqJ/BHeLuB/Z0OTqo4pOqJPAIZe7bRa6W6OTVM/iDONOhBaEn4QD0wAj4kWmB6seF3rH3fLUBR2rXDtgWMKmlBHgZUbWdPAv3L9fS9jNNsXAApqFX37bZtABRw/LHit6X8djhIkGgMQJ+drijAtdJvZ4pn8fnQbh/dDPGARjNKNIaO8oYpgXGHwvyxs8/iqXP9h8cqYKxBQImsJLEy4gm7+gO9z/OIElDCeAADMUT8kemBSYfFxxBOVbyuxk42w/ZvDFqNoGdtcC3nyyS8jxZli3lcpMY+ep+wv2CUCDhABSAFHQVpgWW9vtRY+AVqkNHVjcOWpeYBYGRBNbQGsdJoxp7F393uP+r0voSqTgBHIDirKKuuZMMO0nqYr8vUuYPiE3Xb/eN2naxqyABXxtwjFSkwXdtHV+5u09Bjqw2kwAOwEweqX7LpgW4o6h/jMyuBfITWkkQSIqAHz4xX7pL6tqBfVR5/SZGs/FdFKTJCOAATMYt6lZMCwweJ7O7gYgGRG292DWDgC9UuVQadSDs4u9Hi8vDZtDiyyQEcAAmoRZ/mx1l4olSF8eGUWU+XVy68rbP+C0VC/sIEO4fPHBdIFqE+/uazMQLcAAmRhd+Q6YFBo8jTAuEb77dM5Bw/+AOS7i/mv6AA1AN10i5Mi0weFy5QRXlu4aYFojUYjtoC+H+wZ3U4f6NOtgm6igyDkAdlGPsw3cLMC2QP854WmC3GNWEFV0isLkK+zNp1LxVF393uP/JXWoMDZQVB6AB6A3ukmmBwWMt0wINNsyu7Xo1Ffij0t1SFw/uov80iQAAHOJJREFUo8p8grgsJ5GqJYADUC3fqLn7ZTd3SKP6YRd/v15cXiv5za2kggSAVRCUVnO4/xzpYGl5idRP4Dwt8mM7SRCAQPkEPPf91/KzbUWOdo4+J50qMS1QsEpxAEaDysL9P9CqG49evdNrMDh1uvopfA0E6GPDIWfXTCzQarwwaDgrwiVD+Kyi3+ZLZ0v7SqTRBBicRjNiDQhMQ4A+Npqer5k4QLpQ4m6BIbyIAOTDcbjfj6p9r7RC/ioszSHA4JQDhUUQKJEAfaw4zLW06iek30u7Ft+sO2viAMys68319acS4f6ZXIp+u6LoiqwHAQhMRAAHYHxsO2uTkySmBWaxwwFYDCQL95+lr0+ZxYivxQkwOBVnxZoQmIQAfWwSanPmMC2Qww0HYPHV/Vm4f8UcRiwqRuAerXZdsVVZCwIQmJAAUbYJwS3ZjGmBHn5ddgA2EwfC/T2NYcqPV2p7P5SDBAEIVEeACEA5bD0tcKLU6WmBLjoAWbjfV/cT7i+nMzkXzkzKY0lOEBhEgH42iMz4y338890CF0idvFugaw6Ar+73w2p8dT/hfkEoMXFmUiJMsoLAAAK3afktA35j8WQE1tZmvlvgZOmxk2WR5lZdcQAc7v+J9ANpXppVFd5qHIDwVYSBLSFAFKCaitxF2Z4kLZDWrWYXsXJtuwPQG+7fLxb61lmDA9C6KqVAQQnQ16qrGB8Tex8i1OpjZJsLR7i/uk6SlzODUh4VlkGgfAL0tfKZzs4xmxbwQ4RaOy3QRgeAcP/splzPdwalejizFwgwBVBfG2j1tECbHADC/fV1irw9MSjlUWEZBMon4FtuSfUR8HGyldMCbXEACPfX1xkG7YkIwCAyLIdAuQRwtsvlWTS33mmBxxTdKPJ6qTsAjxTcH0tc3d9sK7tdu7+5WRPYOwQ6QwBnu9mq9rTAb6UFUtJ3C6TqAGTh/nNUAU+VSM0S4IykWf7svVsEcACar28fO5OfFkjRAXC4/1yJh/k03wkyC3AAMhL8h0D1BOwA8Njt6jkX2UM2LeCHCCU3LZCSA7C5AGfP7n94kZphndoIcFFSbajZEQTm8OKteI3gUTLpJOlT0hrxzMu3KAUHYFmZ/k7pLOkp+cVgacMECEk2XAHsvnME6HPxqtzHqjdK50nPimdev0XRHQC/uvEY6T+lFfvNZ0kQAgxGQSoCMzpDgD4Xt6ofKtO+J31YslMQNkV2AAzxJGnvsPSaMezeZnY7dK8MRkPx8CMESicQsc95aoK0mMAy+vc26RvScosXxfsb1QFYR6iOlbaMh6wxi3yr3b9KfmtVtMRFgNFqBHvaTiCiA+Cr4g+X/tZ2+GOU74Va9yuSHYJwKaIDYJu+Lm0djlZzBn1/CY8P6L+do2gp4mAUjRH2QKBMAhGd7uVVwFdIj5f+UGZhE8/LjtHbI5YhogPwJoHizX2LW8vF+vc06TnSJYsXzfHUSLSEAxCtRrCn7QQi9rlsbDpR8H1V/L9IN7W9IgqW731ab6eC69a2WjQHYGOV/D9qK33cHTnc/2/SttJPZpmZdbJZixv7eqP2fEdje2fHEOgmgcgOgGvkPsm3xHka96tS16cFHB35nBRqKiCaA+A57rlSl9NRKvw20vulu3JARHMAIg5EOdhYBIFWEYjY7/LGpqtF/eXSE6QzpS6nx6jwz48EIJIDsL7AvCwSnJptcbj/6dKzpYVSXlpJC/3kqUgp4lxkJD7YAoEqCFyjTKNddZ/nAGRl/40+eFrgIOnmbGEH/x8cqcyRHABfKLFCJDg12eLw+b9L20k/HrFPd7BQISTZE/FMZARGfoZA8gTuVwmuClaKDUfYc69+/6TkaYGvSV2cFnisyr29FCJFcgCeG4JIvUZk4X5fIHJngV0P87ALbF7JKjgAlWAlUwiMJBCt720gi4ucoNhxOVDaU/ITXruWnhelwFEcgNUF5NFRoNRgx5+0j/0lh/v/Msb+cADGgMWqEGg5gWgOgJ/WOs5tyido/V0k3/nVpWmBJ6q8IVIUB8AhkbBPSyqxphzuf6/kq/t/NEG+o0JsE2Q59SbRBqGpC0QGEEiEQMS+N+5JiqcFDpM8LeDnv3RhWsBOT4hjbwgjBGMLqe3pByqgr+7/D6lIuD+Px7idKy+PspdxEWDZRMkPAsUIROx7k45RnhbwdWB7SWdLbU6rqHCeLmk8RXEA1mucRHUG/FlZP0Py26HGCffnWTRp58rLq6xlEc9Cyiob+UAgMoGIfW/aMerXAr6z9Gbplsjwp7RtWk5T7n7x5lEcgDbe++9w/3zJZ/0/lMpIIRpNT0EiXoncYx4fIdBqAhEdgDKmKT0t8AnJ0wLfkNo4LRDi7bZRHIBo97OqzU2VjtbWnuc/RJo03J9nQBmdKy/fSZf5XmR3VhIEIFA/gYgOQJknKVcK6UslXzR3Tv14K91jiHEzigNwXaWo68vc4f5nLpE/l53K7Fxl2BZxACqjXOQBgRQIROx/VYxRv1Jl7CS9RWrLtMANERpYFAdgYQQYU9jgs3yf7fus32f/VaQ1lGm0qZKIFyFVwZ48IRCRgN/D4feGREpVOAAun8+Y/0vytMA3pZSnBVyWS6TGUxQH4PTGSUxugOf3feCfL3nev6pUVceaxt6IZyDTlIdtIZAagWh9sOppSk8LvETaWzo3tcpaYu8F+p/3npfaixPFAXCl+uE4KSVf0e8r+32Ffx224wCk1DqwFQL1EIjmAPiOrjqe6XK89uNpgbdKi6SU0i+jGBvFATCP70WBMsIOh/v/Q/LV/T8YsW6ZP1ftWU9ia7TBZ5IysA0EUiYQrQ8uK5jr1wT0Hu3nY5KnBb5V0z7L2E1Zd4VNbUskB8Avh4ie/PQ+h/vfK1UZ7s/jQAQgjwrLINBtAtEcANdG3WOVGbxY2ls6T4qcLpVxx0UxMJIDcJag/CIKmFl2ONzv5/bvL9UR7p+1+we+1t2p8myYvYyLAGcT4TsE6iUQsQ82NVY5tL6j9DYp6rTAJ2Wbn58SIkVyAAzkPdLfQpBZbITD/X5Tn8P9Ry1e1NjfpjrVsAJHPPsYZi+/QaBtBCL2wSbHKk8LfFTaSvrfYJV9lez5bCSbojkAvxOcrwYB9GPZsZ3071Ld4f48BNGuAbhbRl6XZyjLIACB2ghEdAAijFWOjLxIepJ0fm21MXxH/6KfQ922Gc0BML6DpIX+0FBaqP063P906WIpSmrSq85j4Ds3IkVr8mxkGQTaTiCiAxBprPK08g7S26VbG2wM39S+j2xw/0nt2hXmJz75AFOXsnC/39QULdlR832jdbEosp+TokHqkD1vDNYW3F626BD/SEX1eFWkv9a5zk8jAeqxxZEJTwvUycL7OkOaK5HGILCP1rXHVkdlOdz/yDFsq3vV9WriMA5rvNm6W8HS/eEALGXBpzlz/FjZcfpu1ev6gu7IydMC50lVc3D+3o/H75Ap4hRABsq3SjxFujZbUMF/P47xOdLTpEjh/tlFjRRSy2yLGHrMbOM/BLpEIFpfjHANwLD6/7l+dJT5HVKV0wInKv89Jb80jTQhgYdpu19LZXprDve/X4oY7pdZfenpWlJm+cvIy52HVD+Bedrl76Uy6rDMPL4km1aqHwd7FIFjpDLrctq8fJtbKm3Bx5cjSuZ3n/LznQgrSqQSCCyjPF4l+crOaRvnd5RH5HC/zOtLr9aSactd9vYH9FnJgqoJPFM7uF4quy7Lyu8Psm3zqiGQfx+Bw7WkrDosK59N+6yMvWAfmXdaCRx91v/Y2EVN1zp7lf8kjVtRvqDwfyQ/JCLF9F4ZXVbHLCsfz6OR6iGwvHbzMclnVmXVX1X5uK/59itSfQQ+oF1VVZ+T5vu4+opf2p58ovkMyY/qvVcqWnZHlL8neUx0Hsmk5ZKxdLGhBv3ZJXqE/j9Z2kXaWvKFFutIN0ue1/H8vs9IfLW6bwXxtqmmiNcAXJEqzMTsnid7feXyronYvZrs/Ka0l3SQlHK/k/lJpGjXABhaxDFrVGX6gH/0EvlY4qjAbtI2ksuzunS35Da9UDpf8vHF1xT4uEOCQCUE7JEW9UbrWs8DPalaAj4buV6qq07L3o9f1+rBk1QtAV/IXHbdTZvfm6stMrmXQSDyXQBllK8teUS7qtYRlkVtgRuwHI7MzZe+L60tpZocmfut9OJUC5CI3UQAEqkozITAJASu1kbTeuRlbn/BJIVgm0IENtJaJ0pl1leEvBaoTKsUIsBK4xJwm4lQx702fGPcQrA+BCDQT2B5LbpP6u1cTX/2NRWk8gmkHvIf1S6ZEii/zThHR4zGuWhtVD2V8fsvqykquZZJgCmAMmlWk9cGyjZaPXEBYLl13ZaQ/ygqTAmMIjTZ7z74V/nAtEmsSvEiwEnKmfQ20Q4sScOsyPho8/8uZsQ5x4rwV56tw7e/kt4rdaE/+uJRh4cXSEwJCEJJKVqfjDhulYS6Pdl0YcBJvbYietLRBptU69ghf9+qunuqBZjC7gO07SkSdwlMAbFn02h9cq5sW6PHPj4GJIADELBSZpmEAzALSAu+diXkP6qqmBIYRaj47xGn5SKOXcWJdmBNHID4lRyxE0U724hfi0st7FrIf2nJ8z8xJZDPZdylV467QQ3rRxy7aih2OrvAAYhfVxE7UcSzjfg1ufgxo10N+Y+qH6YERhEa/nvEPsl1AMPrrPFfcQAar4KRBkTrRL5F6KqRVrNCLwFC/r00Bn9mSmAwm1G/RIzKRTx5GcWxU7/jAMSv7mid6Hoh4/nuxdsNIf/irLwmUwLj8crWxgHISPC/MAEcgMKoGlsxmgMQcaBprHJG7LjLV/mPQDPyZ6YERiKasULEKYBoY9cMYHzpxn3HKddzxFtpcABGtyhC/qMZFVmDKYEilBavc53+3VV89VrWxAGoBfPkOyECMDm7OraMNv/vMkc806ijLorug5B/UVLF1mNKoBiniNfmRBy/itHsyFo4ALErOqIHTQRgcJsh5D+YzbS/MCUwmmC0vhnxMeajKXZoDRyA2JWNAxC7fjLrCPlnJKr9z5TAcL7RonPLy9x1h5vMr00SwAFokv7ofUcMoUU7yxhNsdo1CPlXy3d27kwJzCay9HvEvhnxJGYpsY5/wgGI3QAcQouWIg4yTTEi5N8U+TlzmBLoZ8/TAPuZsGQIARyAIXAC/BQxAhAtzNhENRHyb4J6/z6ZEpjJJGLfjDiGzaTW4W84ALErP1r47D7huiY2ssqtI+RfOeKxdsCUwFJcEaNz0cawpbT41In3j6dczdE6jx8BbCegq4mQf9yaZ0pgzhwcgLjtM6RlRABCVsvfjYp2DUDEAebvsCr8QMi/QrglZt31KYGIUwDRTmJKbG7pZ4UDELcO15ZpKwczL+JFRlUjmqcdnCC9V6K/VE17+vyzKYHPK6uVps8uqRxukbW3BrN4/WD2YE4PAQa0HhjBPtoBiJYuj2ZQxfY45H+6tGvF+yH78gm8RlmeJm1Tftahc4wWpYt2EhO68uo2DgegbuLF9xex43QlAuAHmHxMOkqK6IgVb0XdXjObEnhRhzBEcwCW7RD75IqKAxC3yu4OaFrEOcayMfkq/+Olt0jLSKS0CXhK4JvSAmmVtItSyPpoffTGQlazUiMEcAAawV5opzcUWqveldo+BfBM4fyDtHu9WNlbDQR8l8BJ0uY17KvJXSxscuc5++5K1DCn6PEX4QDErSO/3vPmYOZdHMyesszJQv7fV4aE/MuiGi+fHWTSqVKbpwTOC4b93GD2YA4EkiHgq8/9ms8IckSijQ6jr/L/bRDGEeq5Kza09S6BTYK15X1lDwkCEJiAwCHaJsqA7Avi2pYc8r9eisIYO+qtC0/3tHFK4MIgbfo22RHxYmaZRTKBNp7Rtalmjw5UmO8FsmVaUwj5T0uwHdu3dUrgG0Gq57uy444gtmAGBJIkcLasbvrMcJFsWD1Jev1Gz9MiQv7Nt6mm2/Ts/bdpSsB3stwlzS5j3d/36O9+LIEABMYh8HKtXHfHnb2/j49jcOB1Cfk335Zmt61I39s0JfC5hseNnwceBzANAskQ8HPoL5CaGih9J8IGydDKNzQL+d/fIMem6o/9jtd3blEbeVF+M0pqqR/Be4PURP3fo/16eoUEAQiUQGBv5dHUwetNJdjfZBbztHNC/s0cCJo4+JS1zzZMCbxcbb8sHuPk8/4mOzz7hkAbCTgMP04nLGPdY7TPlC8UJeRff5spo91FyaMNUwJfrnncOF77c9SSBAEIlEjAYezjpLoGx4u0rweXaH+dWRHyr6+d1NUem9pP6lMC7gs/kurgd6b2s1adHZ19QaBLBPxc8zrC2Qu1n00TBTtPdv9OqmPAYx/d4ZzylIBfi/zdivuE+1yqJwwynQSBNAjMlZl+PkBVBx978b6NKMVEyL+6dlFVe0sp35SnBPxWvvdJ90llMz9ceXpcIkEAAjUQ8Lz8O6S7pLI6sy8y/IKU4hvTCPmX1w7Kak9tzSf1KYHHq4+X9WyRy5TX8yUSBCDQAIEttc8fS9MOtqcpjz0bsL+MXc5TJl0L+fs2q2nrvOztI9pUdhl780t5SsAX6b1MOnfCduQD/8ESZ/2CQIJA0wR2kQGHS75nv3eQGvbZA/ZR0tOkVN9738WQ/7dVX++WhtVtE789SzadE9CuKlmkPCWgqnog7aq/H5F8EnC3lMfL0wau2/+W9pE8nUBqAYFUB/4WoK+kCH7xxh6Sw3xbSRtLa0r2+G+U/iqdL50s/UKyw5Bicsj/g9Kbpa604TtVVp91eRB+o/QpKVLaQsZcLn1aekUkwyq2ZZHyf630rYr3U0f27le++NevxPbZvZ/jf4P0Z8nTjSQIQAACjRLYSHs/Uco7U2nrsoUq72OlLNkBiFbW3rfqHSD7fGCMZmOV9ixQeVO8fkZmkyAAAQjEJ/B0mdi11/c65L/6rKqJ7gDYXEegujglkOrts7OaGF8hAAEIxCHg8Pe9UpVncZHydvj19QPwp+AA2HSfEX9FisS1aluuVXkfJ5EgAAEIQKAEAj74Vz1wR8p/ocrbG/KfjTAVByCzu2tTArep4Htlhec/BCAAAQhMRuCl2izSwblqW76r8vrCzWEpNQfAZfFFgmdKVfOLkr+fF7C1RIIABCAAgQkIbK9tHAqPMqhXacewkP9sdCk6AC5D16YEfA3ESrMrj+8QgAAEIDCcgO81PkWq8qAbJe8/qpw7Dccx49dUHYCsEAfqw61SFP5V2nFoVmj+QwACEIBAMQL/T6tVOTBHybtIyH82sdQdAJenK1MCfrgOdwbMbsF8hwAEIDCAgB9ctFCKcpCuwo5xQv6zMbXBAXCZujIl8MXZFch3CEAAAhDIJ+DHylZx0I2S50KVb9hV/vlUli5tiwOQlajtdwncroKulRWW/xCIQuBBUQzBDgj0EHhJz+e2fTxCBfLFjX4cM2kxga/p32Mkv5ymjWllFerZbSwYZUqbAA5A2vXXRuv9PPJ9W1gwP8v/DdILJd8iRppJ4Hx9tRPwPzMXt+abn2JJgkAoAjgAoaoDY0RgW2mNlpG4ROXZS/KLfEiDCThU/kopu0tg8Jrp/bJ7eiZjcdsJ4AC0vYbTK9926Zk81GJC/kPx5P7YximBDVTS9XJLy0IINEQAB6Ah8Ox2IAG/7a8Nya9PfZNEyH+y2vSUwKOkT062ecitNgxpFUZ1lgAOQGerPmzB23C19MWiu5t0WFjKaRjm6yYOkl4m+fn6qae1Uy8A9reLAA5Au+qzDaVZJvFCfE/2P1o6I/FyRDJ/gYzZRTorklET2JJ6256gyGwSmQAOQOTa6aZtqZ7p+Wz19dJzpZu6WXWVlvpC5e6oSsp3CfjxxyQIhCGAAxCmKjBkCYErEyThkL+v8v5sgranZHJ2l0CqUwJ/TQk2trafAA5A++s4tRKm9jAYQv71t7AUpwRuEabL60fFHiEwmAAOwGA2/NIMAc+d39vMrsfaKyH/sXCVvnJqUwKni8D9pVMgQwhMQQAHYAp4bFoJgUXK9cRKci4v0+zBPoT8y2M6SU7ZlEAKDw768SQFZBsIVEkAB6BKuuQ9KYEjJ92whu14sE8NkMfcRfbgoHPG3K6u1X3m79c+kyAAAQhAYASBNfS7IwF/C6Q7ZMs/SRFS294GWBbTVZTRV6RI7ca2/LSsApIPBCAAgS4QOFSFjDKQL5Qtjw0EHQdgeGVEe73wXsPN5VcIQAACEOglsKa+XC017QR8Wzas3mtYgM84AKMrYSutcrbUdPs5arSprAEBCEAAArMJPEsLmhrAs8fQzrYpwnccgGK1sJJW8+OYm2pDfiBUW95tUYw4a0EAAhAokcB/K6+6B/A/ap87lViGsrPCARiPaHaXQJ3t6D6Z+JzxzGRtCEAAAhDoJbCcvvxEqmvwjhjy7+XhzzgAs4mM/l73lMBbR5vEGhCAAAQgMIqAQ7k/kqp0AiJd5T+KBw7AKEL5v9dxl4Bv+Xt7/u5ZCgEIQAACkxBwJODjUhVOwEXKN3LIfzYvHIDZRMb77imBKm4zdZ4vGM8U1oYABCAAgaIE9tOKfhJfGY6AHzn8CclnhiklHIDpa2sTZfFzqYx25Dx+IT1CIkEAAhCAQIUEVlbenmP129UmGcDv0XZ+op/nhVNMOADl1dr+yuoUaZJ25G1OlZ4pkSAAAQhAoEYCy2tfvtLaj4K9Who2iN+t338jvUPaUEo54QCUX3uPUZYfky6QhrUj/3b+knUfrf8kCCRLYJlkLcdwCPQT8D3XPqtfX3KUwIO1HQO/htXPibcT0IZkB+BTwQqyhezxtRRtSH4I1baSHUU/ltrpZskRJz9cyPf3kyCQPAFfWEWCQFsIXKaCWCQITEPAB3hHi0gQaDUB3gbY6uqlcBCAAAQgAIF8AjgA+VxYCgEIQAACEGg1ARyAVlcvhYMABCAAAQjkE8AByOfCUghAAAIQgECrCeAAtLp6KRwEIAABCEAgnwAOQD4XlkIAAhCAAARaTQAHoNXVS+EgAAEIQAAC+QRwAPK5sBQCEIAABCDQagI4AK2uXgoHAQhAAAIQyCeAA5DPhaUQgAAEIACBVhPAAWh19VI4CEAAAhCAQD4BHIB8LiyFAAQgAAEItJoADkCrq5fCQQACEIAABPIJ4ADkc2EpBCAAAQhAoNUEcABaXb0UDgIQgAAEIJBPAAcgnwtLIQABCEAAAq0mgAPQ6uqlcC0l8LeA5YpoU0BMmASBOARwAOLUBZZAoCiBO4uuWON6t9e4L3YFAQiUQAAHoASIZAGBmgncVPP+iuzu5iIrsQ4EIBCHAA5AnLrAEggUJfDnoivWtN7V2s+tNe2L3UAAAiURwAEoCSTZQKBGAhdqX/fUuL9Ruzpn1Ar8DgEIxCOAAxCvTrAIAqMIeL79lFEr1fj78TXui11BAAIlEcABKAkk2UCgZgI/rHl/w3b3o2E/8hsEIAABCEAAAuUR2FhZ3Sf59rsmdXZ5RSInCEAAAhCAAASKEDhCKzV58Pe+X1HEUNaBAAQgAAEIQKA8Atspq3ulppyAi7Tv5csrDjlBAAIQgAAEIFCUwGFasSkHYL+iRrIeBCAAAQhAAALlEpir7M6V6nYCPltuMcgNAhCAAAQgAIFxCWylDW6Q6nICfqt9rTSukawPAQhAAAIQgED5BPZQloukqp0AX/W/TvnmkyMEIAABCEAAApMSeJQ29GN5q3ICTlDea09qHNtBAAIQgAAEIFAdgQ2V9fFSmU7A/crv49IKEgkCEIAABCAAgaAE/ITPV0vXSNM6Aqcpj90lEgQgAAEIQAACiRDwHQJvksa9S8BPGDxWeqa0jESCAARaSIDO3cJKpUgQyCGwg5btI+0mbSF5qmA1yQ8S8sWDfsXwedKvpWOkv0okCECgxQT+P343UXFhg238AAAAAElFTkSuQmCC;" vertex="1" parent="1">
          <mxGeometry x="363" y="257" width="12" height="12" as="geometry" />
        </mxCell>
        <mxCell id="57NM1Wxke1sPUCWePYtD-25" value="n-th Cross-Attention block" style="rounded=0;whiteSpace=wrap;html=1;fillColor=#fad9d5;strokeColor=#ae4132;" vertex="1" parent="1">
          <mxGeometry x="575" y="340" width="150" height="20" as="geometry" />
        </mxCell>
        <mxCell id="57NM1Wxke1sPUCWePYtD-26" value="n-th LM Block" style="rounded=0;whiteSpace=wrap;html=1;fillColor=#b1ddf0;strokeColor=#10739e;" vertex="1" parent="1">
          <mxGeometry x="575" y="364" width="150" height="20" as="geometry" />
        </mxCell>
        <mxCell id="57NM1Wxke1sPUCWePYtD-27" value="1st Cross-Attention block" style="rounded=0;whiteSpace=wrap;html=1;fillColor=#fad9d5;strokeColor=#ae4132;" vertex="1" parent="1">
          <mxGeometry x="575" y="224" width="150" height="20" as="geometry" />
        </mxCell>
        <mxCell id="57NM1Wxke1sPUCWePYtD-28" value="1st LM Block" style="rounded=0;whiteSpace=wrap;html=1;fillColor=#b1ddf0;strokeColor=#10739e;" vertex="1" parent="1">
          <mxGeometry x="575" y="249" width="150" height="20" as="geometry" />
        </mxCell>
        <mxCell id="57NM1Wxke1sPUCWePYtD-39" value="" style="shape=image;verticalLabelPosition=bottom;labelBackgroundColor=default;verticalAlign=top;aspect=fixed;imageAspect=0;image=data:image/png,iVBORw0KGgoAAAANSUhEUgAAAgAAAAIACAYAAAD0eNT6AAAAAXNSR0IArs4c6QAAAERlWElmTU0AKgAAAAgAAYdpAAQAAAABAAAAGgAAAAAAA6ABAAMAAAABAAEAAKACAAQAAAABAAACAKADAAQAAAABAAACAAAAAAAL+LWFAABAAElEQVR4Ae2dB9gkVZm2B8kMGQQRYQQlZzAQVBARUTHrugYw/KZVd1Exu7sOq7LmFcOaXRzTCq6KGAEVRVAkSQ6iDklyHHLyfx5myunv6+ru6u4K76m6z3U939ddXXXqPfcJ9dZ7KiwzhwQBCHSBwM4q5JOkXaUtpQ2k1aV7pFulv0jnS7+WfiZdLpEgAAEIQAACEEiQwKqy+S2SD+x/G0P3ad1fSM+RHiSRIAABCEAAAhBIgIAP2q+TrpPGOfDnrXum8niCRIIABCAAAQhAIDCBh8k2h/HzDuaTLrtf+X1SWlEiQQACEIAABCAQjMCjZc810qQH+lHbnaS81wlWZsyBAAQgAAEIdJrAHir9ImnUQXza38/VPtbtNGkKDwEIQAACEAhCYGvZcYM07cG96PYna18rByk7ZkAAAhCAAAQ6SWCuSu2z8qIH77LW+0InaVNoCEAAAhCAQBACh8mOsg7q4+bztCAMMAMCEIAABCDQKQLbq7T3SuMeuMta/0/a9wqdIk5hIQABCEAAAgEIHCEbyjqYT5rPqwJwwAQIQAACEIBAZwhsrJL6iX2THrjL2s7XH5AgAIEECfCYzwQrDZMhIAIvkSL0X9+BsAs1AgEIpEcgwgCSHjUshkDzBPZv3oS/W/D0v3/iAwQgAAEIQAAClRFYRTnfLZUVxp82H784iAQBCCRGgAhAYhWGuRAQgc2l5QOR2CaQLZgCAQgUJIADUBAUq0EgEIFNA9liU9aTVgtmE+ZAAAIjCOAAjADEzxAISGDNgDatEdAmTIIABIYQwAEYAoefIBCUwEoB7fJ1CSQIQCAhAjgACVUWpkJgCYFlApKIaFNATJgEgTgEcADi1AWWQAACEIAABGojgANQG2p2BAEIQAACEIhDAAcgTl1gCQQgAAEIQKA2AjgAtaFmRxCAAAQgAIE4BHAA4tQFlkAAAhCAAARqI4ADUBtqdgQBCEAAAhCIQwAHIE5dYAkEIAABCECgNgI4ALWhZkcQgAAEIACBOARwAOLUBZZAAAIQgAAEaiOAA1AbanYEAQhAAAIQiEMAByBOXWAJBCAAAQhAoDYCOAC1oWZHEIAABCAAgTgEcADi1AWWQAACEIAABGojgANQG2p2BAEIQAACEIhDAAcgTl1gCQQgAAEIQKA2AjgAtaFmRxCAAAQgAIE4BJaLYwqWQGBqApsqhy2l9aQVluR2g/5fJp0t3b5kGf8gMIzAOvpxe2lDaZUlK96m/5dLbkduUyQIJE8AByD5Kux0AXyQf7b0XOnJ0trSoHSvfjhdOlr6urRQIkEgI7C7PrxQepr0yGzhgP8Xa/mPpW9JvxuwDoshAAEIQKACAnOV5zula6S/TaD7tM33pO2kFNMbZPQk5a5ymy1SBCmbnyXZMZyUzRna9jnSMhIJAhCAAAQqJPAM5e2Q/qQDdu92dgQ+JdmhSCnhAExfW5soi19Kve1hms/HK6/NJBIEIAABCJRMYHnl54P1NIP0oG3/qHx3LtneKrPDAZiO7gHafJE0qD1MuvxW5fmP05nG1hCAAAQg0EtgZX35mTTpwFxkuzuVvw+sKSQcgMlqyRf0fVkq0h4mXed+5f+uycxjKwhAAAIQ6CXgM/9jpUkH5HG3O1L7WqPXgICfcQDGr5SttMnZ0rjtYdL13zG+iWwBAQhAAAK9BD6nL5MOwpNu56u8I08J4AD0tpDRnx3yd3h+0vYwyXaOBPjuFBIEIAABCExAwLf4TTL4lrGNpwQOmsDmOjbBAShGeSWtdphURnuYJI+btO+Ni5nKWhCAAAQgkBFYSx+ulSYZeMvc5kjZEG1KAAcgayWD/9cd8h/U5o4ebCK/QAACEIBAHoEPa+GgQbXu5Qtly655Rja0DAdgOPiX6ucqrvKftN3tPdxcfoUABCAAgYzAmvpQ95ztqME90l0COABZS5n5v46r/Ee1k7zfj5lpJt8gAAEIQGAQgX/RD3kDaYRlEaYEcAD6W06UkH9eG/UFgTwkqL/OWNIwAd4G2HAFsPtcAs/PXRpjoW07U4o0JRCDTHNWOOT/e2nb5kwYumc/Jvh5Q9fgRwg0QAAHoAHo7HIogdX1625D12j+x3ky4XjJZ+Kk5ghkIf+vyYRVmzOj0J6fWmgtVoJAjQRwAGqEza4KEfD99ym8pXJF2flp6XuS71gg1UvALx/6rfTKenc78d7crhlvJ8bHhlUQoEFWQZU8pyHgudyUkp9VcIoU+cFBKfEsYqsf7HOatH2RlYOs4wgFzwQIUhmYsZgADgAtIRqBDaIZVMCeR2idkySmBArAmmKVLOS/QHnMnSKfpjZ9aFM7Zr8QyCOAA5BHhWVNEkhxYDcvpgSqbTWphfzzaKTatvPKwrIWEMABaEEltqwIvo0q5ZRNCeySciGC2Z5iyD8PYeptO69MLEuYAA5AwpXXUtNvaEG5PCVwohT1XQKpIM6e5Z9qyH825+tnL+A7BJokgAPQJH32nUfg8ryFCS7zlMAnpCOlaO8SSAGnLwY9RfJDodqSrmhLQShHOwjgALSjHttUCj9kp02JBweNX5vRH+wzfonmzPmrNrpmkg3ZBgJVEcABqIos+U5K4DxtePOkGwfdjgcHFauY7Cr/FB7sU6xES9fyMwtIEAhFAAcgVHVgjAjcI/2shSSyuwSYEsivXIf8T5Zemf9z8kt/lHwJKEDrCOAAtK5KW1Ggr7eiFPmFYEqgn0sbQ/69pbxDX77fu4DPEIhAAAcgQi1gw2wCP9aCv8xe2KLvTAksrsw2h/x7m6sd2ht7F/AZAhCAAAQGE3iFfvJ9023XJO8SeENALn5QzzjJ6/uCz7bX790q4ybjgGFdCEAAAl0nsKwAeE647QcIl+9iaZwHB6XuAPjBPrd2pG4/oHKSIAABCEBgTAJ+v/vtUhecgDtVTh/Yi6RUHYAs5N+F+nQZz5Z88ScJAhCAAAQmIPBibdOVA4bLWWRKIEUHoCsh/6yt+lZW39lAggAEIACBKQi8RdtmA2sX/i9UeXcdwis1B8BX+S+SulB3LuNt0l4SCQIQgAAESiDgR8LeK3XlIDJsSiAVB6BrIX+3zWulPSQSBCAAAQiUSGA/5XWd1BUnwOU8Upr9LoEUHACHvz0H3qW6+oPKu6lEggAEIACBCgg8THn+RurSgWWhyts7JRDdAehayN9tcYHkiAcJAskQWC4ZSzG0KAHX6U6Sz8B8//Fq0vKS5yUvk/4o+fY6z8mmmC6X0U+UDpUOlpaR2p7mqYDHSy7vZ6SoyQfAT0mvjGpgBXa5H71O+mYFeded5craoSMYGyzZsafc/HruP0keP0gQgEBAAivIJj9i1leQe0AadXbs5+2fIPlMci0p1bS/DO/ilMC7VO5RdVz378+WTWcHtKtKDg75j/sAJG0SJj1IljxBOkw6S7pPyuN1v5b7xOHz0jMkThwFgQSBpgm4I/6TdKmU13GLLLtF235Qmj3PrEVJpI1l5UlSkbK2ZZ2IF0PaqWwL3yLl8MHQZ8wpJkcEHbXwQb1IWWevc6W2sxPq6CIJAhBogMAu2qfPQGZ3zkm/u1M7ipBi8oD2EclnKpOWn+1gV6QN2GH2sylSTU+S4RdIRco6ap2rlE/KLFKtQ+zuOIHXqvy+TWxUB53kd88xpxri6+KUwCR1zDaT9Z2UQ/5+tPaHpSqc5G8p31UlEgQgUDGB9yn/qgfwH2ofK1Vcjqqy7+KUQNXtgfwXz3+nGvKfq87mPl1lPZ6m/NerqlOTLwQgsHjercpO3Jv3UQKeaiSAKYFqB/vedtL2z6mH/O3IHyvVUU/naj9rSyQIQKBkAs9RflWE74YNDJ5XTzkxJVDPwD+sDaX8W8oh/6zffk0f6qyDE7Q/O+AkCECgJAJ++I3vx62zI3tfdjj2k1JOTAnU327qbqdV7C/lq/yz/vpqfaiCzag8P5QZwH8IQGB6At9WFqM6XVW/+yEgqc59ZuSZEmiu/VTVLqvKN/WQf9bmH6oPN0lVcRqWr29T3TkzhP8QgMDkBB6jTYd1tjp+e/Pk5ofakimB5ttSHe110n20IeSfdbgvNjxu/CozhP8QgMDkBL6rTScd0Mra7grZ0JZ5PaYEmm9PZbXLMvNpQ8g/G2Xm6cPdAcaNJ2QG8R8CEBifwIO1SYSO7IHWZ89tSb67Yb406NGnZR5YyCu2w+FHZ79EalM6RIWJ0O7a8H6ENrULypIYgdcE6cgeTBYkxq6IuUwJxDhQNHWwalPIv7e9T/qI37Lr4XYZ5WcQkCAAgQkIHKFtyu6Uk+bnaYA2Jt9h8RtpUi5slyY7O7RtfH3vJsHacup3EQlne5PfBkWKS+DRgUzzVcUbBrKnLFMuV0ZPlD4q+WBOajeBLOR/oIrpM9S2pd2DFWiPYPZgTg8BHIAeGME++glevmAtUtoikjEl2nKP8nqb9Ezp+hLzJatYBM6UOXaq2zw3vXUs5HOi2RMMT7Pm4AA0y3/Y3tfVj9HqZ94wg1vwm5+XvqN0YgvKQhFmEvAT8Xx2fOHMxa375imASKmNUcNIfKeyJdoBZqrCtGzjiBfPeBqg7YkpgXbVcNtD/rNra4PZCxr+vkbD+2f3QwjgAAyB0/BPdzW8/7zdd8EBcLmZEsir/fSWnSeTd5PaHPKfXSvRzrh9qy0pKAEcgKAVI7NuDmhatMGlakSeEvAjTX9b9Y7Iv3QCX1COj5LOLT3n2BlGiwC08ULL2C1gDOtwAMaAVfOqfo73nTXvc9TuuhIB6OVwqb74iWZ+uMr9vT/wOSSBW2XVS6XXSneEtLA6o9ZU1qtWl/1EOV810VZsVAsBHIBaME+0E9+S9teJtqxuoy46AKbpl5vMl54lcZeAIARNDvnvKn0jqH1VmxWxf7b1+SFV12Ut+eMA1IJ54p1EcwAeopIsO3Fp0t+QuwTi1qGv8vctfl0L+ffWSEQH4MpeA/kciwAOQKz6mG1NNAfAB//1ZhvZse++S2AviSmBGBWfhfzb+mCfcShHvEaHCMA4NVjzujgANQMfc3fRHACbH3GQGRPr1KszJTA1wlIy6HrIfzbEiBGAiGPYbG6d/Y4DELvqI3aeiINMU7XIlEBT5OfMIeTfzz7aHQC2MOIY1k+uo0twAGJXfMTOgwMws80wJTCTR9XfCPkPJhwxOscUwOD6avwXHIDGq2CoARE7Dw5Af5UxJdDPpIolhPyHU43WN++Wudw1M7zOGv0VB6BR/CN3TgRgJKJQKzAlUF11EPIfzTaaA+Dxizdsjq63xtbAAWgMfaEdR4wARAwzFoJZ00pMCZQLmpB/MZ4ey32bbqQU8QQmEh9sgcBIAn4ksL3oKPIrVUnFCOyv1a6TotRdanb4nv5tiqHu/FrrB2xnR3a+VoIDIAIQvIJkXrQoQLQwY+QaZEpg8toh5D8eu4j9MtrYNR7RDqyNAxC/kqOF0dYRspXiYwtjIVMC41UFIf/xeGVrR3QAeApgVjtB/+MABK2YHrOiOQDLyLaI9xv3IAv3kbsEilUJV/kX45S3VsRrc4gA5NVUoGU4AIEqY4ApETtRxLONAfhCLWZKYHB1EPIfzKbILxH7ZLSTlyIcO7UODkD86o4YRos42MSvycUWMiUws6YI+c/kMem3iH0SB2DS2qxpOxyAmkBPsZuInSjiYDMF4to3ZUpgMXJC/uU1vYh9MmL0sjziLcgJByB+JUbsRBEHm/g12W9hl6cECPn3t4dplkTrk47sLJqmQGxbPQEcgOoZT7sHIgDTEoy9fdemBAj5V9Meo10EGPHEpRry5AqBCgksr7zvkyI9xOUXFZa3y1m3/cFBPNinmtbNGFEN19bnSgQgfhXfIxOjvVAjWrgxfi0Ws7DNUwKE/Iu1gUnW8m250cZyIgCT1GTN20RrNDUXP5ndRetM0cKNyVRkAUPbNiVAyL9ApU+5SkSHPOLU5ZSY27c5DkAadRqtM60qbKulgS5JK9tylwBX+dfT/HAA6uHcur0sl3CJHiHb95UeK20m+U1Ya0p3Sw6ZL5TOlo6Xfi3dIaWaojkA5ugowAWpAk3Ebk8J7Cz9r7RbIjZnZn5BH94kpdzvsrJE/x/xyZwRn18yTj365Ur7ST6+bC1tJK0l3S/5BV8ek8+RTpJ+Ll0rkSomMFf5v076gzTORXG+HeXL0k5SiukQGT1OeetYd+8UQSZqsy/y+ojkwaeOup1mH7fIxhdLpPoIHKpdTVNnVWz7uPqKX9qellVOz5V8QL9PKsrFEbsfSc+Q/Kh0UskEPFXxWsleZdFKyVvPA+j/SY4epJReI2PzytPkspemBLAltka/S8CO+RYtYZ1SMQ6XsU2OBXn73iQlgLL1yZIjxnllGWfZacrj8RKpJALzlM+vpHEqYdS6Dkv6rHplKYXkgX9Umer+/e0pgGuhjRurTCcHbA+OsKXSn9rWLI4J1h58opXKG0PnydbvlszP5f+MtKJEmoKAw0jXSFUd3P6svJ85hX11bep54KoYTJrvYXUVnv30EXhDwPawZZ+VLKiLgOeiJ+3HVWznOfLoyQfnd0u3SVUwcJ6nSL6WgDQBAc8x3y5VVTm9+fpiq8jTAr7AsdfeCJ+PlE2kZgjgADTDPepeb5RhEcaEzIazooJaYtdT9P/Cmph5P9w2vQR80X87asVbpaxB1fHf0wLzpYhhTF8DcbdUB4ei+zhR9pCaIYAD0Az3iHtdRUYV7bN1rffTiKBkk6fPvtMAL18bs5oULvnAEi35VovvSXNrNsxzVu+VHE7z1ZyRkueUro5kkGx5aDB7MAcCXSQQsR/6FrlIaQUZ8y7Jz6V4XgOG7aB9fqmB/Y7cZUQH4KOy+uEjLa9uhU2V9Q+koyV/jpKuiGLIEjt87/EywWzCHAh0jUBEByDSWLWvGoSnJA6V6j6p7G2L/6AvL+ldEOFzNAdgN0F5RQQwssFX3jsa4KhAhCtao3nVvohmXYkEAQg0RyDi/HKEsWojVcmR0s+kLZqrnhl7/rC+rTpjScNfojkA7xOPSGeVvh5gvuS3mNkhaDJF6FSzyx/x7GO2jXyHQJsJROyDTY5VK6iy3ymdLz0/WMW7rt4YyaZIDsD2AvOkSHB6bPFUgKcEPDWwSc/yOj822akGlTPi4DPIVpZDoI0EIvbBpsaqfVTBDvf/p9RkuH9YO3uDflx+2Ap1/hbJAXh5nQWfcF++ONDRgH+X6p4WiDSvluGLOPhktvEfAl0gELEP1j1WPUwVfYR0rBQl3D+o7dnWvQf9WPfySA5A0yH2ouw9LXCI5OsDnl50oxLWa8qrHmZ6xMFnmL38BoG2EYjWB/0M/bruWHK4/x2SX0r2AimV9OwohkZxAHzBxmZRoBS0ww8O+qF0lFTHtEBEByDiBUgFq4/VINAKAtH6oA/+dgKqTp4uPlP6oBQ13D+IgZ9wGyJFcQC2C0FjMiP8KGFPC/ybVOW0QEQHINrZx2Q1yFYQSJeAb8eNlKoepxxC/7Z0nLRlpIKPYcvWWrfKY0VhU6I4AD6bTjl5WuA/JL9N6mkVFcSP+/SjkSMlHIBItYEtXSPgh6atEqzQVTkAvnDu7ZKv7vc99SknH3cd9W48RXEA1mmcRDkGPFLZ/Ej6vvRwqex0ZdkZTpkfDsCUANkcAlMQiNj/qnAA9hYjh/s/JIW6j36KugvxDJUoDoC9uzalZ6kwnhb4V2nFEgtW99W1o0xfTyssN2olfocABCohENEBKHOM8vUN/yv9XNqqEoLNZRrimBfFAbizuXqobM8Ozb1P8t0CTy1pL1V419OYtqw2fsg0GbAtBCAwMYGIDkAZY5QPjm+VfHX/CyemE3vD2yKYF8UBiBbaLrNuPC3wY+m70rwpMy6jc01pQt/mEQehPiNZAIEWEoh2B4ARTztGPVF5+O15H5HaEu5XUfrStX1LGlgQxQH4UwNlr3uXz9EOz5PeI006LTBt56qizDgAVVAlTwiMJhCx7006Rrks35J+Ifkq+TanW1W4yyMUMIoDcKpg3BcBSMU2eFrg/ZLvFthvgn2VOb82we5zN4k4COUaykIItIxAxL43rgPgcP/BksP9/9iy+hlUHF/Q6Fe8N56iOACLROKUxmnUZ8Bm2tVPpP+TxpkWGLdz1VGiiGHIOsrNPiDQNIFoDsCdAnL9GFD20rpnSB+VVpO6ko6NUtAoDoB5+GDYtfRcFdjTAu+WikwLRHQAog1CXWtDlLe7BKI5376W628FqsNjxjelX0rbFFi/bauEOdZFcgC+plq+q201XaA8nhb4gOS3WD1lxPo4ACMA8TMEOkLAY/dDgpV11PjkcP9bJIf7XxTM9rrMOVk78p1hIVIkB+BqEbET0NW0uQr+U+k70sYDINyu5TcN+K2pxUQAmiLPfrtMYD0VPtozOIY5AHvK3tOlj0ldCveruDPSB2d8a/hLJAfAKOZLPsh1OT1Phfe0wLukFXJAXJGzrMlFOABN0mffXSUQsd/ljU1+V8HXJYf7t+1qZS0p9+/0/6hIDKI5AG5A/xYJUEO2zNV+D5U8LbDvLBuGedmzVq3l69ray8q17ImdQAACGYFo8/+2q3dscnTizZLD/S+RlpG6nO5R4V8nFblGojZO0RwAF/wT0rG1EYi9oy1k3s+kI6WNlpja28mWLGr8X8SzkcahYAAEKiQQsc9lY9MTVG6H+z8urV4hg5SyfpuM9e1/oVJEB8D3R/6D5Lc+kRYTeL7+mcc7pesWLwr1N+JgFAoQxkCgZAIR+5zHbl/Hdby0nURaTOBL+ndYRBjRLiLJGPlCtydJP5e2yhZ2/L+nBf5TcigpWoo4GEVjhD0QKJNAxD63QAWMekwpk/04eX1DKzv0HzJFjABkoHxP6eOl47IF/H+AwPIBOUQcjAJiwiQIlEYgYp/j4L+0ej3X/wHpAOm+pYtjfYrsAJjU9dJ+0nukOyVSTAIbxjQLqyDQWgL0ubhV65PXp0p+HXyoi/5mI4vuANhee0+HSjtIx0qkeAQino3Eo4RFECiPAH2uPJZl5XSvMvJF7FtKvng7fErBAcggXqQP+0rPlC7JFvI/BAEGoxDVgBEdIbCCyrluR8qaSjFPkKG7SL718ZZUjE7JAciYHq0Pfl3kIdJd2UL+N0oAB6BR/Oy8YwTc37p+X32UKr9KhrxM2lPyc1uSSik6AAbspwXOl3yriR+fS2qWAPORzfJn790igMPdfH37lscvSA73L5BCz/XLvtyUqgOQFeaP+uCLLZgWyIg0898vNFqzmV2zVwh0jgAOd7NVfop2v6v0WunmZk2Zbu+pOwBZ6ZkWyEg095+zkubYs+duEaCvNVPfvivtTZIP/nYCkk9tcQBcEb3TAklcgZl865lZAAalmTz4BoGqCNDXqiKbn2/2hMMt9LOf6OfvrUhtcgCyCvG0gJ8d4GmBS7OF/K+cAGHJyhGzAwg8QAAHoL6GcKp25TP+AyVHAFqV2ugAZBXkaQE/Rpi7BTIi1f5nUKqWL7lDICNAX8tIVPc/C/c/VrtoRbg/D1WbHQCXN5sW2F6fmRbIawHlLdugvKzICQIQGEKAaNsQOFP+1Npwfx6XtjsAWZkv0gemBTIa1fxnUKqGK7lCYDYBIgCziZTz3eH+3aRWhvvzEHXFAcjK3nu3wN3ZQv6XQoBBqRSMZAKBoQRW1a+rDV2DH8clcIM28NX9Dvf/ftyNU16/aw6A6+o2ab60nXSMRCqHAA5AORzJBQLDCBBpG0ZnvN86Fe7PQ9NFByDjcJE+PEXy3QKXZQv5PzEBXwPQ5fY0MTg2hMAYBHAAxoA1ZNXecP91Q9Zr9U8M2HPm9N4tcHera7vawi2v7B9c7S7IHQKdJ0Ckbbom0Nlwfx42HIDFVLJpAd8tcGweKJYVIsDgVAgTK0FgYgL0scnQdT7cn4cNB2AmlQv1NXvlMNMCM9kU+cbgVIQS60BgcgL0sfHZnaZNdpd8dX9nw/152HAA8qgwLZBPZfRS5idHM2INCExDAAegOL0s3P8YbXJy8c26syYOwOC67p0WOG7wavzSQ4DBqQcGHyFQAQH62GiohPtHM3pgDRyA0aA8LfBkyXcLXD569U6vweDU6eqn8DUQIMo2HDLh/uF8ZvyKAzADx9AvvltgW8lvg7p36Jrd/XFLFX257hafkkOgUgLrKPeHVLqHdDP33P6rJML96dZhMpb7QOe7Bf6G+hhcICb7SKTqCLxBWUdre+4TpGoILKNsfQHbNVK0em/anvvEZIHELciCQKqXwAu0u6ukpjtBxP07YvKwequjM3vDAehMVc/ZWUX9rRSxjzdtk8P9flUvCQKNEVhDe/a0wD1S0x0i2v5vEpODJKYFBKHEhANQIsygWa0lu7Lpxmj9uml7fHW/x5Vlg9YdZnWQwA4q8wlS050j4v7PFJfHdbBNVFVkHICqyDafL+H+wWOor+4n3N98G8WCAQSyzsu0QH8nzjrv+gPYsbg4ARyA4qxSWnMnGXuSFNGJb9omwv0pteSO27qmyu/wHdMC/YMZ0wLTdw4cgOkZRsphLRnj8cJ3FzV9oI22f8L9kVoqtoxFwNMCv5GidaoI9vxBXJgWGKs5/X1lHIC/o0j6QxYxvFqliNAnI9mQRQy5uj/pJo7xawjBL+jguQOcO/nhEtMCgjBGwgEYA1bQVXeRXb+TIh10I9nyAbHhIr+gjRezRhPYSqs4rLdIitSxItpyoxgdJNHhBaFAwgEoACnoKtn0IOH+0ePiX1WHH5TmBa1LzILADAIr6pufDcBDgkZ37jxHxNMCe8wgypc8AjgAeVRiLyPcP9mY4HHCD/vxmOqxlZMEQSDFIrC5zLGn6sdR5h3YWFacSzb3x7TA4DaOAzCYTcRfdpRRJ0qMA9MzuEwc50vrSSQINEZgBe05O9v3QYvOXS4DpgUGN20cgMFsIv1CuL/cMaF3jL1LFX2E5MeOO7pCgkAtBDbUXuZLXLlbXefu7ehniDXTAoLQk3AAemAE/Ei4v56xIRsn/MbWd0h+WRIJAqUT8FsT7Wna4+TinXo7tzt5Ni1A2E8wlHAAFnOI+Jdwf/3jQ+YI3KEGkUUFIrYNbEqMwAay157lQilrZPxvjgXTAmqISjgAizlE+ku4v7lxIW9MPleNw3cWrRqpkWBLfAK9Z/t3y9y8xsWyZrl4WmD3+E2pMgtxACpDO3bGWbifx383OyYMGpNvUY1+XnJkhgSBgQTswdtjvFga1JhYHodNl6cFcAAGduNaf9hBe/sN40Uy4+WpqqvXSKtIJAg8QMBP5LKHeLvEAT49Bjeq3uy4den+YBwAVXiDiXB/euNE79h+k9qOx/xtGmxD7LpBAqtr3/YEz5R6Gwaf0+VxuuqyK9MCOACq7AYS4f50x4dBY7ujAgdKyzfQnthlzQSys/1btd9BDYLl6bLpyrQADkDNA4d2R7g/3XGhyJjuazj8MLdN6m9a7LFKAispc3t4fp90kYbAOulzavsrRHEAqhwxZua9hr76nR73SIwN7WfQ+9jh5WY2Bb6lRGBLGWuP7nqJjttNBp4W2E1qW8IBqL5GCfd3c8zoPVZcoWbmY8hG1Tc39lAGgd6X8Tgc3FuZfO4mj2xa4MFlNLAgeeAAVFsR2yv7EyTGDBi4Dfjhb34Z0TMkO4akYAQeKXvsqV0r0WlhkNcG2jQtgANQzQA0d8k4QrifMSRvDPGyP0p+OFybTihUnPSSb/uyR2bPjLN9OuygDjt7ua8FSX1aAAdAlVhy8ljiN83Nbi98h0leG7hTbSV77DBRgZI747DsHqof7YFdKuVVDMvgMqoNpD4tgAMwbIQY77cttLpPIka1GX6H0aA2cL7aj49Ja0ukCgj0Pp6X8BwdcVBHHHd5qtMCOADTDzIO98+X7pLGbTesD7O8NnCH2tICaWeJVAKBhygPe1Z/lvKAswwuZbQBTwvsKqWScACmqymH+4kgMnaUMXYMyiN77LAdTdKYBLbR+l+TeBkPnXRQByt7ue///ZyUQhgPB0AVNUHaTtv8Siq77ZAfTAe1AT+q/H3SuhJpBAE/dOPTkm+7GASU5bCpsg1cp7b3asnTTlETDsB4NbO6Vv+4xPQhY0eVY8ewvO0IvF4KNa5EMsbzJg7FenDzFf4kCDRBYB3t9AvSKVJK0wJNsEphnw73nyO9WeLJbinUWDtt9AukPiMdJ60fpYhRHIBnCsiJ0iOigOmAHX4fwhelR0uvla6XSEsJ2CF1m/yslMK0wFLL+WQC20rHSz+QeJKbIPSks/T5idKzpJ9IviuGVA8Bcz9J2rSe3cXfiw/+hObqC8258zsU5bBob/KZr1+R6bnwYaGsLv52rZi8SoriMDMFoMoYkFbT8o9JXD/U34/9GtyDpNmRkE207FDpKqmL/buJMl8u1vOkTqdHqfS3S01UQJf2eYcYL5D2kEYlRwQc/u4Sn6Jl/Z24+I2STSccgPwaeJEW+/ntReuzK+v5DN8XVfuuqmFpBf34QukXkrfpCp+mynmuGNth7WTyGejFUlPwu7DfC8X3YMln9+Mkn+lm0wJd4DROGX2B6n9LTU4L4ADMbM3b6OsvpXHqsSvrOuL3hJm4Cn3bUmv9l3SD1BVWTZTzq4Vqo4UrfYKGVUnH8gHqaGkfaRlpmrSWNvarUJ1nE50j8j59zYTDqU1MC+AACLzSXGm+xMN8+vunr/ExG5/VT5N6X7AWuT+mbNtTp6mgFLfdXEYz79/faadpxAvF9D3SBlLZ6THK8BRpGvvauu1vxWXnsoGPyA8HYM6cfxQjwv39fdKh+69LVYwDOypfXxR7i9TW/txEuc4Tz07d+fZlGlApHcgX7P1Q2r+GBuQz3ddJPvNtopNE3qcjJL7FxxGTOlKXHYCtBdhz1JHbQ1O2nS0ue9bQAD1v7bHgDKmpsrZtv8+vod5C7GINWcGFf9N1nCvF8P3SvAZqdF3t84sSdwv01+E14vJKadqpF2UxNHXRAVhVRD4scXV/f7u7WVzeIi0v1Z38rIzDJcb0/noZx0n5Zd0V19T+PECOA4Z1F/NyaO846QVSEx1du52RHqtvp0rUTz+Dk8Rlpxm0yv3SNQfAV6ZfLtHWZjLwmPAN6aFS08nRrzdJ50vU0/gMfEIVoR5lRrXp28qeBlKcge/d/by0TbXVMlHunhY4ULpWok5nMnCHXiA5YlJ26ooDsJnA/VSibfUzuFBc9i27YZWU3y7Kx2MWUYH+ehvWll9WEv/Q2Vwq64ZB4LfFfE4UpwOklULX5mLjHqx/X5KYFuhv21eLy8ulMqcF2u4AONz/IYlwf3978gV4B0sRooAyY2haX7++S/qzxLg+msEXhtJswY+e/3fYisaQz8Bzeb6YbHspxeT5wNMk6refgR06X0VdRmqzA/APAnSZRBvqZ/AtcUkxTOxIoW91O0riluL+es3a+q/Fp9VpK5UuKyz/l7I4XVxeI/nMJ/Xk21n8qGEeILK0frO27sHvU9Ka0jSpjQ6AHzxzrJSx4v9SFueKyxOnaTCBtt1IthwiXSFRxzMZLBSTViefIVLpixncJhZfkR7T0hr3tMCXJSI+/W3e0wIvkyadFmiTAzBXHD4o3SUxNsxksEhM3iqlEO6XmWOl5bT2c6SfSUwdLq5332Ld6uQrx7veyS8Ug3dI67S6ppcW7lH6eLLU9XrPK/8p4vLopagKf2qLA/AMlXihlMem68uOFpeNpS6kR6iQdgLtGHe53lvvAGzT0Qr22Y3n7/aUupg8LeCDFtMC/QOcpwU+KY0zLZC6A7CFynuM1OXBflDZzxOXvaUuphVV6BdLngsfxKfNyxeq3K1Oq6l0ba7A2WXzxUzzpfUk0uIX6BwmEIT8+vvBdeJS9N0CqToAq6iM86U7pdl9pevfPSVoNj4IkubMsZPoqID7RVfaxq+6UPGXtrxC/Y6D70n7SQ+SSP0EdteiM6SudOxxynmCuOzQj2zGkhQdgOepBG3v++PUc++63xabh82oYb5kBOw0vlL6vdTLrI2fP58Vus3/3djbWHmXq1zzpQ0l0mgCnhZ4o3Sj1Mb2ME2Z7EQ6UrKGlJdScgD84i9f6DUNj7Zu66fmPSmvglmWS2AXLf2idKvUxjbx0txSt2zhgS2qPIey/aSyZ0vLSaTxCfhhIYdL3C3QP6hdKS4HSLPvFkjBAfCZ26GSr39p42A9TZl8APOFwCtIpPEJ2DF2HzhLmqYeIm3ra4EeIrU+ufJulyLBH9cWX63q+alHSKRyCOyhbP4gjVsXXVj/1+LS+3Co6A7Ac2XvJdRlbls+QlwI9wtCSelxyudr0h1SymOBL4rtTPqcSppiZfkijRdJXKhTTVP1tMA/S0wL9PcPTwt8QsrOfqL1ny1l22aSI2LRbItgzwXi8mSJVA0B31Z9sHSRFKG+x7XBTnNn0iNV0lRCgz4YeT52687UTvMF9bTAVyWmBfoHM08LHC2NO8BUvf4C2XRnQLuqLveo/B3uf6dEuF8QakieLttH+o50tzSqfiL87qkM292p9DGVNgL8QTacLPt89annMknNEHB4j2mB2P1kUP9h+eKD0EbNdB32KgIbSP8qXSJFbY8+yXmi1Lk0VyV2WCxSxSySPV+QdpZIMQj44sp/kW6SIrUVbKE+BrWBC9VW95VIMQh4anF/6YdStGeQ+HjT2bSjSu6D7qCOVNdyh2BeL60ukWISeIjMcpiZaYHm+0td/TK1/fhhPu+SCPcLQtA0T3a9X/JUWtPt63TZsLLU6fQ0lb6J6wF81agPKL76nJQOgcfL1DOlpjsv+6cOetvA/6lNbpxON+q8pX7B0gukn0tNnFT8Sfv1FAVJBJ4q2Xvu7VBVfXZ4zleLriOR0iTgaYGDJKYF6ukzVfXFNuTrq86fkmY3wuolBDbXf1+TVtdjh8/RvjZasm/+LSGwg/7/UapiUPDVoEdKT5I6d7WlytzW5GkB3wPchAdfRTslz2r6fxVcfcLyHolbggWhJWklleMA6USpijbjPB0pWlMi5RBYVcs+Lvme5zIqYKHycScl1CIILU5PUNl8HUcZbYY84DiqDXxXbW1ei/sTRVv84K3PCMTN0qj2UOT3q5TPywBbjIAfKHK4NMnTne7Tdr7a01d9+upPUjcIeFrgzVJZHbZIp2adcgbHVDg63L9fN7oTpVxCwCelr5F8wd4k7dQH/ndLq0ukMQmsrfUN3x63H787qAKu128/kt4oPVQidZeAoz1fl5gWGNxfBvUjluczc7jf95MT7heEDqftVfZDpBOkQSen9+o3397+Wenpkk9MwqbU5sMfLJIbSusuIXqL/l8m+ZYOEgR6CeypL5+Wtu1dyGcIjEng+1rfkaWFY27H6u0m4OiyTzbXlzynf6fkE9G/LPmsfyQIQKBJAtndAkwL5J/ZcsY/mMvFarg+gyNBAAIQgEDCBDwtwEOEBh/scASWsvGbSudLviKcBAEIQAACLSHA3QJLD3Qc9PtZHK12vklL2jrFgAAEIACBWQSYFug/8HXdGfBT2XzXEAkCEIAABDpAgGkBHAHC/R3o6BQRAhCAwCACe+qHs6WunwV3rfwO9286qFGwHAIQgAAEukGAaYHuOECE+7vRpyklBCAAgbEIMC3QXkfgLrWEw6S5Y7UIVoYABCAAgU4RYFqgXY7AsWq9W3aqBVNYCEAAAhCYmIDfF+5XDvMQoXSdAT8l9MCJWwAbQgACEIBApwn4cZ88RCgtJyAL9/tFLiQIQAACEIDAVAT20tbnSF27Wj618h6nOiLcLwgkCEAAAhAoj0A2LeCXUKV2YGy7vYT7y2vn5AQBCEAAAgMIZNMCbT+oplC+u1VHvrqfcP+AxspiCEAAAhAon8BeypJpgeaiIQ73b1V+tZIjBCAAAQhAYDQBpgXqdwAuV7Vwdf/otskaEIAABCBQAwGmBap3BAj319CQ2QUEIAABCExG4InajGmB8p2Bn4sr4f7J2iRbQQACEIBATQSYFijPASDcX1OjZTcQgAAEIFAeAaYFJncECPeX1w7JCQIQgAAEGiLgaYFzpRRuq4tgo8P9WzdUV+wWAhCAAAQgUCoBpgVGO0CE+0ttcmQGgeEEHjT8Z36FAARKJrBMyfmRHQQgAAEIQAACQQnsLbvOkyKE11OwgSv+gzZkzIIABCAAgWIENtRqfpNgCgfdaDZyEWCxNsZaEIAABCAQiEA2379INkU7sKZmDy/5CdSwMQUCEIAABAYT4Ir/apweXvM7uM3xCwQgAAEINEiAcH81B/7eiAXTAg02cHYNAQhAAAIzCWTh/lu0uPdgxefqeDAtMLMN8g0CEIAABGomQLi/uoN8EQeKaYGaGzy7gwAEINB1Ajzit9kDf69zcJca42HS3K43SsoPAQhAAALVESDcH+fA3+sE+DPTAtW1e3KGAAQg0GkCe6n0vOY3rgOQOQTHqp627HRLpfAQgAAEIFAKAcL98Q/62cE/++9pgQ9KK5XSAsgEAhCAAAQ6RYBwf3oH/swByP7/SS12/061WgoLAQhAAAJTEdhLWxPuT98ByByBo1Wfm07VItgYAhCAAARaTSAL99+vUmYHD/63g8XtqtP5EtMCgkCCAAQgAIHFBLJw/836ygG/3QyYFqDXQwACEIDAAwT21N+zJQ783WLgaYFNHmgB/IEABCAAgU4R2ECl9at6Cfd368Df6+gxLdCpLk9hIQCBrhNYTgAOkgj3d/fA3+sE+PPF0tMlEgQgAAEItJTAnioX4X4O/LMdgOw70wIt7fgUCwIQ6C4Bwv0c9LOD/Kj/TAt0d5yg5BCAQIsIEO7nwD/qgD/od08LPK1FfYGiQKCPwDJ9S2IvWFfmbSStLdn2RdKl0pUSCQK9BPbUl89I2/Qu5DMExiTwfa3/JumSMbdj9XYTWEPF21zy8Wg1yccjX1fk49EF0m0SaUoCa2n710jfla6WBnnrN+q3H0v/LDncS+ouAdf/NySu7h/cXwb1I5bnM/Ng/h5pRYnUXQI7qugfls6U7pMG9Zd79dsp0vulrSTSmAS20Ppfke6QBkEetNzwj5IcvnuQROoGAYf73yzdLA1qGyyHzTRt4CK1rf0kUncIrKqi+iT0NGnStvNzbbuXRBpBwKGU/5LukSaF3bvdX5TPu6T1JVJ7CTxBRTtL6q17PsOjqjbgiOS89nYnSiYC20meQizzhOI7ys+PGyflENhJy+xhV9Fp71K+35aeKHmuhtQOAg73f00i3F9Nv6miL7YlT08LvFtiWkAQWpL8nogDpBOlqtrpNcr7KRKph4DDardKVUHvzdcXaDhU7AsJSWkScLjfF2aV6Z33thE+19MX28D5QrVDBvQ0x5HMal/M91HpOqmONukI9yslkgjsI90p1QG+dx/e5xFL9q9/pEQIPF52nin11iWf4dF0G/BDhB4ukdIgsKzMfIZ0rNREBNH77LwT4HmWus78hw0Qf5Adr5N8DQIpJoGHyKwFUhOddVjb4Tecj6wNeCzzNUcrSKSYBObJLF+df6WU1VtT/x0J2FPqZJqrUjsc3xT8vP3eIns+J/l6BFIMAg73+9n9N0l5dcYyuERrA54W2FcixSDgs/39pR9Kw27fa6IdXSGb1pU6lz6kEjcBvOg+T5V9vv3DjgqpGQKP1m5/LxWtM9aDVaQ24GmBec10HfYqAo4avkP6ixSpXcy25Yuyr1NpE5X2bmk2iIjfb5Cdn5B4oIMg1JR82+ZXJcL9/X3EoUufyUTrK56euSugXU1z8rTAOyWmBQShhuS7vHxd2ZFSKscYRyW2lzqT/lslbbpjjrt/H4x+Kb1QojMLQgXJobp/lvxkx3Hrp+3re77Qjuga0hsD8tlCNm0u/SygbRHahqc7nyyRqiGwjrI9WPL0S4T6HtcGP720E8kh9UXSuIAire+owGHSphKpHAKPUjaE+/P7xa/FpvcMIaoDkLUEX129UIrUZ6PYwrRA1krK+b+Lsvm85OcyRKnjSexwtGIdqfXppSrhJIAibuPQzU+kZ0k+eyWNT2A9bXK4RLi/v19cJS4HSg5r9qboDoBttaP/nxLTAv316mkBz00TSRSECdLq2ub1Utue/vnqCVgkt8nXZXHEg/m0Nv1V5fqgNC+5GmnG4Adptz64XSdNy75t29ux9Jz6oDOCFBwAmf9A2kx/7SS3rY7KKM9F4uKHoJGKEdhZq/lsf5FUBv9oefhpta1PC1XCaODLtMdztd+VniL5IEfqJ7C7Fp0hlcm9LXn9Rlx26Ec2Y0lKDkBm+PP14VKpLfVUZjk88D8sA8X/GQRW0bdXSl2YHrxiRslb+MVhwS6Fei9TeedLDnOTFj9+2ddORLsXt8zBfNK8HAk5SCriNKboALj9ezCfL90pTcqprdt5DttsVpRIc+ZsIQiOqLpftLXO88rV6ofRbdmxyswq2APeN6UnSF1Mvj7iDZIvnsyY8H8xC7+++pPSmlLRlKoDkJXP48CxEm2gn8F54vKkDFTH/tv5eZH0K6mrbaPVt5s/psMVmzXoC8XAFwANmt/VT61Ku6g0J0tZ+fm/lMUp4uI+MW5K3QHIysvdAkvbwux+cbQgbZyBavn/R6h8Ptu/WprNoWvfPV62NvnJbl2r0EHldcjvy9IkB4AUGsiDl5SvS1M+g+p69nIPdC+XZl/dr0WFUlscABd2VelDUioPbZldl1V+XyQub5OWl9qWllOBniP9TGJKcOlxsdUOwFaq7Co7TKp5nyYur5E8GKaeHO73LTqE+/vbusP9n5bGCfdr9b7UJgcgK5ynBY6TUu3DVdp9rrjsnYFK/L8vdjxEulyqklmqeTsa0trUtYsAx22EfhmRb3PZMdEWYO/1d9K45e7C+pOG+/OaQhsdgKycnha4hDaU24eOFpcUpwV8Yes+0hGS75LqQn+fpIw+QWj9RaB07mId4EQ1hgOklaToaV0Z+CWJUF5/3V4jLq+QlpHKSm12AMzIkbAPS0wL9LcnnyS8VUphWmA92en3IPxZmuSA2LVtfH1Y65Ovhu9axU5T3pvEy1GBbQO2DHv2B0rXStOUsY3b2hlaINk5Kju13QHIeG2uDz+V2tg+pi2TDxb7ZqCC/Xck0GPW7dK05ezS9l8MVo+VmPMyGsVEncIX03mO9AVSBO//sbLjVKlLHbRoWX8rLn5qWVWpKw5Axu+F+sCccX5f8wnVQzNQDf5fS/t+k3S+VLSfsN5MVs9rsP5q27Wf44xnOLPix+0IV4rh+6V5tdXa0h35jNaeKuH+/jp0uP+VUpnhfmXXl7rmABjAqtJHJKYF+tudpwUOlpo4MfCJwP9IjOn99TLOuH6jGKYw3Sszp08OD40Dh3Xzefkg7AeqOCqwnFRl8kHN4X4f5KiPmQyqDPfn1WkXHYCMA9MCM9teb1+sa1rAT6t7jXS61Lt/Pk/Ow9e8dCZtppLiyU/eWPI62iVi+q/SBhW0okcrT1/Fnrffri/zXQ+e86wzddkByDj/oz5cIXW9/c0uv6cKvyFVMQ74HRWflRxxmL1fvk/OZJF4PkTqVPq4SkujKZ+BHasjJd92M20oeh3l4WgN4f7+evKFj6+SfCFk3QkHYDFxn4l+VOJkor993iwub5amjQw6LO3I30kS43U1DN4htp1Lq6rEF0k0quoYmK/nBn0gHyf5oOYQ33US9TOTgZ0hnwWtLTWVcABmkt9GX38p0Vb7GZwtLnvOxFXo2xZayydp10twrY6BI4hNXLuh3TaffKX0rRINrFoGd4jx16Q9pFHpUVrh9xJ10s/gZHExn6YTDkB+DbxIi5kW6G+3nhb4ujRqWmAFrfMP0i8kb8MYUC0DPxL84VKnk5/8RQiv2obW25HPEu83SGvManU+o/2cRLi/vy4c7n+11ES4X7vtSzgAfUj+vsDTAh+TGFP627GnBXyr3uxpgYdr2aHSVVLvWMHn6njcIta+tookAnYCfJZKg6uPgSMvX5B8RuuDmw9y8J/JwM6QnSI7R5ESDsDo2mBaYGZb7u3bPgnYS/K4+yMJp38wq15uZX32mX+ESKLMiJN2kikXS2VBJh9YTtMGTlNb3DVO95hhCQ7ADBxDv/ggd6k0TVtgW/iV1QY8vbrJ0BZb449RQpou8hnSLtKnJXukJAg0QeB67fS1ksNzvkCHlDaBo2X+ttJ/SfemXRSsT5iAQ/4HS7tLf0m4HLWYvrX24otW7pHK8rzIB5bD2oCdTt/yuI4UPREBmKyG7AgcLw1rB/wGnzLbgE8o3ic9WCKNScAPR/A9kn+RyqwU8oJnbxvwE812k1JJOADT1RTTAvT/3v5fxedT1UR9K/Uq0zVVtjYBT1XsIx0hERWg85bVYW9QezpIWlZKKeEATF9bc5XFfOkuqaz2RD7dZukwv6OIvp6NVBGBDZWvowKXSXQ4GEzSBnyP8wJpPSnFhANQXq35gTfHSJO0I7aBm9vAeZKPSWtJpJoI+KEVL5COlXhoBR2x6GCcWrg/rzvhAORRmW4Z0wKMIUXHEK93p+SItCPTpIYJbKb9f1DiXnY68aBOfKPaR4rh/ryuhQOQR2X6ZUwLMH4MGj+y5Reqmflsf93pmxs5lE1gRWWYRQWyCuN/tzt16uH+vD6CA5BHpbxlnhZwZJGxAwZuA75OJDvbn/YFa8qKVAeBrbQTRwV8oRcduZsMHO73fbdtSzgA9dSopwW41qibY4ePGZdLPoY8TCIlSmA12e3bMXwwwBHoBoM2hfvzuh0OQB6VapZ5WsAHAe4+6sbY4eeBOPrjSHJqdwfJZNIwAn7SoG/TuFXCGWgfgzaG+/PaMw5AHpVql22v7E+QGDfayeBK1a0dvYdLpJYTWEPlc1TAL8WgQ7eDwRmqyzaG+1WsvoQD0IeklgWe/z1Qukpi3EifgU8YsrP95fWZ1EECWVTgdpWdTp0eg7aH+/O6JA5AHpX6lvkE4jCJaYH0xguP8R4zHAneWiJB4AECfiiMb+/4k4QjEJ9BV8L9DzTOWX9wAGYBaejrDtov0wLxx4psPD9V9eXI78oNtRd2mwABHjscv0OfoXa0RwJtqSoTcQCqIjt+vkwLxB4vblaV+mzf13CQIDAWgQ20tqMCl0iZF8n/5lg4dHeQ1PWrc3EA1AiCpTVlD9MCzY0Ns8fl7Gzfd3GQIDAVgd6ogN8pPrux8b1aJlm4f/2parE9G+MAxK1LTwv8RmJMqJ/BHeLuB/Z0OTqo4pOqJPAIZe7bRa6W6OTVM/iDONOhBaEn4QD0wAj4kWmB6seF3rH3fLUBR2rXDtgWMKmlBHgZUbWdPAv3L9fS9jNNsXAApqFX37bZtABRw/LHit6X8djhIkGgMQJ+drijAtdJvZ4pn8fnQbh/dDPGARjNKNIaO8oYpgXGHwvyxs8/iqXP9h8cqYKxBQImsJLEy4gm7+gO9z/OIElDCeAADMUT8kemBSYfFxxBOVbyuxk42w/ZvDFqNoGdtcC3nyyS8jxZli3lcpMY+ep+wv2CUCDhABSAFHQVpgWW9vtRY+AVqkNHVjcOWpeYBYGRBNbQGsdJoxp7F393uP+r0voSqTgBHIDirKKuuZMMO0nqYr8vUuYPiE3Xb/eN2naxqyABXxtwjFSkwXdtHV+5u09Bjqw2kwAOwEweqX7LpgW4o6h/jMyuBfITWkkQSIqAHz4xX7pL6tqBfVR5/SZGs/FdFKTJCOAATMYt6lZMCwweJ7O7gYgGRG292DWDgC9UuVQadSDs4u9Hi8vDZtDiyyQEcAAmoRZ/mx1l4olSF8eGUWU+XVy68rbP+C0VC/sIEO4fPHBdIFqE+/uazMQLcAAmRhd+Q6YFBo8jTAuEb77dM5Bw/+AOS7i/mv6AA1AN10i5Mi0weFy5QRXlu4aYFojUYjtoC+H+wZ3U4f6NOtgm6igyDkAdlGPsw3cLMC2QP854WmC3GNWEFV0isLkK+zNp1LxVF393uP/JXWoMDZQVB6AB6A3ukmmBwWMt0wINNsyu7Xo1Ffij0t1SFw/uov80iQAAHOJJREFUo8p8grgsJ5GqJYADUC3fqLn7ZTd3SKP6YRd/v15cXiv5za2kggSAVRCUVnO4/xzpYGl5idRP4Dwt8mM7SRCAQPkEPPf91/KzbUWOdo4+J50qMS1QsEpxAEaDysL9P9CqG49evdNrMDh1uvopfA0E6GPDIWfXTCzQarwwaDgrwiVD+Kyi3+ZLZ0v7SqTRBBicRjNiDQhMQ4A+Npqer5k4QLpQ4m6BIbyIAOTDcbjfj6p9r7RC/ioszSHA4JQDhUUQKJEAfaw4zLW06iek30u7Ft+sO2viAMys68319acS4f6ZXIp+u6LoiqwHAQhMRAAHYHxsO2uTkySmBWaxwwFYDCQL95+lr0+ZxYivxQkwOBVnxZoQmIQAfWwSanPmMC2Qww0HYPHV/Vm4f8UcRiwqRuAerXZdsVVZCwIQmJAAUbYJwS3ZjGmBHn5ddgA2EwfC/T2NYcqPV2p7P5SDBAEIVEeACEA5bD0tcKLU6WmBLjoAWbjfV/cT7i+nMzkXzkzKY0lOEBhEgH42iMz4y338890CF0idvFugaw6Ar+73w2p8dT/hfkEoMXFmUiJMsoLAAAK3afktA35j8WQE1tZmvlvgZOmxk2WR5lZdcQAc7v+J9ANpXppVFd5qHIDwVYSBLSFAFKCaitxF2Z4kLZDWrWYXsXJtuwPQG+7fLxb61lmDA9C6KqVAQQnQ16qrGB8Tex8i1OpjZJsLR7i/uk6SlzODUh4VlkGgfAL0tfKZzs4xmxbwQ4RaOy3QRgeAcP/splzPdwalejizFwgwBVBfG2j1tECbHADC/fV1irw9MSjlUWEZBMon4FtuSfUR8HGyldMCbXEACPfX1xkG7YkIwCAyLIdAuQRwtsvlWTS33mmBxxTdKPJ6qTsAjxTcH0tc3d9sK7tdu7+5WRPYOwQ6QwBnu9mq9rTAb6UFUtJ3C6TqAGTh/nNUAU+VSM0S4IykWf7svVsEcACar28fO5OfFkjRAXC4/1yJh/k03wkyC3AAMhL8h0D1BOwA8Njt6jkX2UM2LeCHCCU3LZCSA7C5AGfP7n94kZphndoIcFFSbajZEQTm8OKteI3gUTLpJOlT0hrxzMu3KAUHYFmZ/k7pLOkp+cVgacMECEk2XAHsvnME6HPxqtzHqjdK50nPimdev0XRHQC/uvEY6T+lFfvNZ0kQAgxGQSoCMzpDgD4Xt6ofKtO+J31YslMQNkV2AAzxJGnvsPSaMezeZnY7dK8MRkPx8CMESicQsc95aoK0mMAy+vc26RvScosXxfsb1QFYR6iOlbaMh6wxi3yr3b9KfmtVtMRFgNFqBHvaTiCiA+Cr4g+X/tZ2+GOU74Va9yuSHYJwKaIDYJu+Lm0djlZzBn1/CY8P6L+do2gp4mAUjRH2QKBMAhGd7uVVwFdIj5f+UGZhE8/LjtHbI5YhogPwJoHizX2LW8vF+vc06TnSJYsXzfHUSLSEAxCtRrCn7QQi9rlsbDpR8H1V/L9IN7W9IgqW731ab6eC69a2WjQHYGOV/D9qK33cHTnc/2/SttJPZpmZdbJZixv7eqP2fEdje2fHEOgmgcgOgGvkPsm3xHka96tS16cFHB35nBRqKiCaA+A57rlSl9NRKvw20vulu3JARHMAIg5EOdhYBIFWEYjY7/LGpqtF/eXSE6QzpS6nx6jwz48EIJIDsL7AvCwSnJptcbj/6dKzpYVSXlpJC/3kqUgp4lxkJD7YAoEqCFyjTKNddZ/nAGRl/40+eFrgIOnmbGEH/x8cqcyRHABfKLFCJDg12eLw+b9L20k/HrFPd7BQISTZE/FMZARGfoZA8gTuVwmuClaKDUfYc69+/6TkaYGvSV2cFnisyr29FCJFcgCeG4JIvUZk4X5fIHJngV0P87ALbF7JKjgAlWAlUwiMJBCt720gi4ucoNhxOVDaU/ITXruWnhelwFEcgNUF5NFRoNRgx5+0j/0lh/v/Msb+cADGgMWqEGg5gWgOgJ/WOs5tyido/V0k3/nVpWmBJ6q8IVIUB8AhkbBPSyqxphzuf6/kq/t/NEG+o0JsE2Q59SbRBqGpC0QGEEiEQMS+N+5JiqcFDpM8LeDnv3RhWsBOT4hjbwgjBGMLqe3pByqgr+7/D6lIuD+Px7idKy+PspdxEWDZRMkPAsUIROx7k45RnhbwdWB7SWdLbU6rqHCeLmk8RXEA1mucRHUG/FlZP0Py26HGCffnWTRp58rLq6xlEc9Cyiob+UAgMoGIfW/aMerXAr6z9Gbplsjwp7RtWk5T7n7x5lEcgDbe++9w/3zJZ/0/lMpIIRpNT0EiXoncYx4fIdBqAhEdgDKmKT0t8AnJ0wLfkNo4LRDi7bZRHIBo97OqzU2VjtbWnuc/RJo03J9nQBmdKy/fSZf5XmR3VhIEIFA/gYgOQJknKVcK6UslXzR3Tv14K91jiHEzigNwXaWo68vc4f5nLpE/l53K7Fxl2BZxACqjXOQBgRQIROx/VYxRv1Jl7CS9RWrLtMANERpYFAdgYQQYU9jgs3yf7fus32f/VaQ1lGm0qZKIFyFVwZ48IRCRgN/D4feGREpVOAAun8+Y/0vytMA3pZSnBVyWS6TGUxQH4PTGSUxugOf3feCfL3nev6pUVceaxt6IZyDTlIdtIZAagWh9sOppSk8LvETaWzo3tcpaYu8F+p/3npfaixPFAXCl+uE4KSVf0e8r+32Ffx224wCk1DqwFQL1EIjmAPiOrjqe6XK89uNpgbdKi6SU0i+jGBvFATCP70WBMsIOh/v/Q/LV/T8YsW6ZP1ftWU9ia7TBZ5IysA0EUiYQrQ8uK5jr1wT0Hu3nY5KnBb5V0z7L2E1Zd4VNbUskB8Avh4ie/PQ+h/vfK1UZ7s/jQAQgjwrLINBtAtEcANdG3WOVGbxY2ls6T4qcLpVxx0UxMJIDcJag/CIKmFl2ONzv5/bvL9UR7p+1+we+1t2p8myYvYyLAGcT4TsE6iUQsQ82NVY5tL6j9DYp6rTAJ2Wbn58SIkVyAAzkPdLfQpBZbITD/X5Tn8P9Ry1e1NjfpjrVsAJHPPsYZi+/QaBtBCL2wSbHKk8LfFTaSvrfYJV9lez5bCSbojkAvxOcrwYB9GPZsZ3071Ld4f48BNGuAbhbRl6XZyjLIACB2ghEdAAijFWOjLxIepJ0fm21MXxH/6KfQ922Gc0BML6DpIX+0FBaqP063P906WIpSmrSq85j4Ds3IkVr8mxkGQTaTiCiAxBprPK08g7S26VbG2wM39S+j2xw/0nt2hXmJz75AFOXsnC/39QULdlR832jdbEosp+TokHqkD1vDNYW3F626BD/SEX1eFWkv9a5zk8jAeqxxZEJTwvUycL7OkOaK5HGILCP1rXHVkdlOdz/yDFsq3vV9WriMA5rvNm6W8HS/eEALGXBpzlz/FjZcfpu1ev6gu7IydMC50lVc3D+3o/H75Ap4hRABsq3SjxFujZbUMF/P47xOdLTpEjh/tlFjRRSy2yLGHrMbOM/BLpEIFpfjHANwLD6/7l+dJT5HVKV0wInKv89Jb80jTQhgYdpu19LZXprDve/X4oY7pdZfenpWlJm+cvIy52HVD+Bedrl76Uy6rDMPL4km1aqHwd7FIFjpDLrctq8fJtbKm3Bx5cjSuZ3n/LznQgrSqQSCCyjPF4l+crOaRvnd5RH5HC/zOtLr9aSactd9vYH9FnJgqoJPFM7uF4quy7Lyu8Psm3zqiGQfx+Bw7WkrDosK59N+6yMvWAfmXdaCRx91v/Y2EVN1zp7lf8kjVtRvqDwfyQ/JCLF9F4ZXVbHLCsfz6OR6iGwvHbzMclnVmXVX1X5uK/59itSfQQ+oF1VVZ+T5vu4+opf2p58ovkMyY/qvVcqWnZHlL8neUx0Hsmk5ZKxdLGhBv3ZJXqE/j9Z2kXaWvKFFutIN0ue1/H8vs9IfLW6bwXxtqmmiNcAXJEqzMTsnid7feXyronYvZrs/Ka0l3SQlHK/k/lJpGjXABhaxDFrVGX6gH/0EvlY4qjAbtI2ksuzunS35Da9UDpf8vHF1xT4uEOCQCUE7JEW9UbrWs8DPalaAj4buV6qq07L3o9f1+rBk1QtAV/IXHbdTZvfm6stMrmXQSDyXQBllK8teUS7qtYRlkVtgRuwHI7MzZe+L60tpZocmfut9OJUC5CI3UQAEqkozITAJASu1kbTeuRlbn/BJIVgm0IENtJaJ0pl1leEvBaoTKsUIsBK4xJwm4lQx702fGPcQrA+BCDQT2B5LbpP6u1cTX/2NRWk8gmkHvIf1S6ZEii/zThHR4zGuWhtVD2V8fsvqykquZZJgCmAMmlWk9cGyjZaPXEBYLl13ZaQ/ygqTAmMIjTZ7z74V/nAtEmsSvEiwEnKmfQ20Q4sScOsyPho8/8uZsQ5x4rwV56tw7e/kt4rdaE/+uJRh4cXSEwJCEJJKVqfjDhulYS6Pdl0YcBJvbYietLRBptU69ghf9+qunuqBZjC7gO07SkSdwlMAbFn02h9cq5sW6PHPj4GJIADELBSZpmEAzALSAu+diXkP6qqmBIYRaj47xGn5SKOXcWJdmBNHID4lRyxE0U724hfi0st7FrIf2nJ8z8xJZDPZdylV467QQ3rRxy7aih2OrvAAYhfVxE7UcSzjfg1ufgxo10N+Y+qH6YERhEa/nvEPsl1AMPrrPFfcQAar4KRBkTrRL5F6KqRVrNCLwFC/r00Bn9mSmAwm1G/RIzKRTx5GcWxU7/jAMSv7mid6Hoh4/nuxdsNIf/irLwmUwLj8crWxgHISPC/MAEcgMKoGlsxmgMQcaBprHJG7LjLV/mPQDPyZ6YERiKasULEKYBoY9cMYHzpxn3HKddzxFtpcABGtyhC/qMZFVmDKYEilBavc53+3VV89VrWxAGoBfPkOyECMDm7OraMNv/vMkc806ijLorug5B/UVLF1mNKoBiniNfmRBy/itHsyFo4ALErOqIHTQRgcJsh5D+YzbS/MCUwmmC0vhnxMeajKXZoDRyA2JWNAxC7fjLrCPlnJKr9z5TAcL7RonPLy9x1h5vMr00SwAFokv7ofUcMoUU7yxhNsdo1CPlXy3d27kwJzCay9HvEvhnxJGYpsY5/wgGI3QAcQouWIg4yTTEi5N8U+TlzmBLoZ8/TAPuZsGQIARyAIXAC/BQxAhAtzNhENRHyb4J6/z6ZEpjJJGLfjDiGzaTW4W84ALErP1r47D7huiY2ssqtI+RfOeKxdsCUwFJcEaNz0cawpbT41In3j6dczdE6jx8BbCegq4mQf9yaZ0pgzhwcgLjtM6RlRABCVsvfjYp2DUDEAebvsCr8QMi/QrglZt31KYGIUwDRTmJKbG7pZ4UDELcO15ZpKwczL+JFRlUjmqcdnCC9V6K/VE17+vyzKYHPK6uVps8uqRxukbW3BrN4/WD2YE4PAQa0HhjBPtoBiJYuj2ZQxfY45H+6tGvF+yH78gm8RlmeJm1Tftahc4wWpYt2EhO68uo2DgegbuLF9xex43QlAuAHmHxMOkqK6IgVb0XdXjObEnhRhzBEcwCW7RD75IqKAxC3yu4OaFrEOcayMfkq/+Olt0jLSKS0CXhK4JvSAmmVtItSyPpoffTGQlazUiMEcAAawV5opzcUWqveldo+BfBM4fyDtHu9WNlbDQR8l8BJ0uY17KvJXSxscuc5++5K1DCn6PEX4QDErSO/3vPmYOZdHMyesszJQv7fV4aE/MuiGi+fHWTSqVKbpwTOC4b93GD2YA4EkiHgq8/9ms8IckSijQ6jr/L/bRDGEeq5Kza09S6BTYK15X1lDwkCEJiAwCHaJsqA7Avi2pYc8r9eisIYO+qtC0/3tHFK4MIgbfo22RHxYmaZRTKBNp7Rtalmjw5UmO8FsmVaUwj5T0uwHdu3dUrgG0Gq57uy444gtmAGBJIkcLasbvrMcJFsWD1Jev1Gz9MiQv7Nt6mm2/Ts/bdpSsB3stwlzS5j3d/36O9+LIEABMYh8HKtXHfHnb2/j49jcOB1Cfk335Zmt61I39s0JfC5hseNnwceBzANAskQ8HPoL5CaGih9J8IGydDKNzQL+d/fIMem6o/9jtd3blEbeVF+M0pqqR/Be4PURP3fo/16eoUEAQiUQGBv5dHUwetNJdjfZBbztHNC/s0cCJo4+JS1zzZMCbxcbb8sHuPk8/4mOzz7hkAbCTgMP04nLGPdY7TPlC8UJeRff5spo91FyaMNUwJfrnncOF77c9SSBAEIlEjAYezjpLoGx4u0rweXaH+dWRHyr6+d1NUem9pP6lMC7gs/kurgd6b2s1adHZ19QaBLBPxc8zrC2Qu1n00TBTtPdv9OqmPAYx/d4ZzylIBfi/zdivuE+1yqJwwynQSBNAjMlZl+PkBVBx978b6NKMVEyL+6dlFVe0sp35SnBPxWvvdJ90llMz9ceXpcIkEAAjUQ8Lz8O6S7pLI6sy8y/IKU4hvTCPmX1w7Kak9tzSf1KYHHq4+X9WyRy5TX8yUSBCDQAIEttc8fS9MOtqcpjz0bsL+MXc5TJl0L+fs2q2nrvOztI9pUdhl780t5SsAX6b1MOnfCduQD/8ESZ/2CQIJA0wR2kQGHS75nv3eQGvbZA/ZR0tOkVN9738WQ/7dVX++WhtVtE789SzadE9CuKlmkPCWgqnog7aq/H5F8EnC3lMfL0wau2/+W9pE8nUBqAYFUB/4WoK+kCH7xxh6Sw3xbSRtLa0r2+G+U/iqdL50s/UKyw5Bicsj/g9Kbpa604TtVVp91eRB+o/QpKVLaQsZcLn1aekUkwyq2ZZHyf630rYr3U0f27le++NevxPbZvZ/jf4P0Z8nTjSQIQAACjRLYSHs/Uco7U2nrsoUq72OlLNkBiFbW3rfqHSD7fGCMZmOV9ixQeVO8fkZmkyAAAQjEJ/B0mdi11/c65L/6rKqJ7gDYXEegujglkOrts7OaGF8hAAEIxCHg8Pe9UpVncZHydvj19QPwp+AA2HSfEX9FisS1aluuVXkfJ5EgAAEIQKAEAj74Vz1wR8p/ocrbG/KfjTAVByCzu2tTArep4Htlhec/BCAAAQhMRuCl2izSwblqW76r8vrCzWEpNQfAZfFFgmdKVfOLkr+fF7C1RIIABCAAgQkIbK9tHAqPMqhXacewkP9sdCk6AC5D16YEfA3ESrMrj+8QgAAEIDCcgO81PkWq8qAbJe8/qpw7Dccx49dUHYCsEAfqw61SFP5V2nFoVmj+QwACEIBAMQL/T6tVOTBHybtIyH82sdQdAJenK1MCfrgOdwbMbsF8hwAEIDCAgB9ctFCKcpCuwo5xQv6zMbXBAXCZujIl8MXZFch3CEAAAhDIJ+DHylZx0I2S50KVb9hV/vlUli5tiwOQlajtdwncroKulRWW/xCIQuBBUQzBDgj0EHhJz+e2fTxCBfLFjX4cM2kxga/p32Mkv5ymjWllFerZbSwYZUqbAA5A2vXXRuv9PPJ9W1gwP8v/DdILJd8iRppJ4Hx9tRPwPzMXt+abn2JJgkAoAjgAoaoDY0RgW2mNlpG4ROXZS/KLfEiDCThU/kopu0tg8Jrp/bJ7eiZjcdsJ4AC0vYbTK9926Zk81GJC/kPx5P7YximBDVTS9XJLy0IINEQAB6Ah8Ox2IAG/7a8Nya9PfZNEyH+y2vSUwKOkT062ecitNgxpFUZ1lgAOQGerPmzB23C19MWiu5t0WFjKaRjm6yYOkl4m+fn6qae1Uy8A9reLAA5Au+qzDaVZJvFCfE/2P1o6I/FyRDJ/gYzZRTorklET2JJ6256gyGwSmQAOQOTa6aZtqZ7p+Wz19dJzpZu6WXWVlvpC5e6oSsp3CfjxxyQIhCGAAxCmKjBkCYErEyThkL+v8v5sgranZHJ2l0CqUwJ/TQk2trafAA5A++s4tRKm9jAYQv71t7AUpwRuEabL60fFHiEwmAAOwGA2/NIMAc+d39vMrsfaKyH/sXCVvnJqUwKni8D9pVMgQwhMQQAHYAp4bFoJgUXK9cRKci4v0+zBPoT8y2M6SU7ZlEAKDw768SQFZBsIVEkAB6BKuuQ9KYEjJ92whu14sE8NkMfcRfbgoHPG3K6u1X3m79c+kyAAAQhAYASBNfS7IwF/C6Q7ZMs/SRFS294GWBbTVZTRV6RI7ca2/LSsApIPBCAAgS4QOFSFjDKQL5Qtjw0EHQdgeGVEe73wXsPN5VcIQAACEOglsKa+XC017QR8Wzas3mtYgM84AKMrYSutcrbUdPs5arSprAEBCEAAArMJPEsLmhrAs8fQzrYpwnccgGK1sJJW8+OYm2pDfiBUW95tUYw4a0EAAhAokcB/K6+6B/A/ap87lViGsrPCARiPaHaXQJ3t6D6Z+JzxzGRtCEAAAhDoJbCcvvxEqmvwjhjy7+XhzzgAs4mM/l73lMBbR5vEGhCAAAQgMIqAQ7k/kqp0AiJd5T+KBw7AKEL5v9dxl4Bv+Xt7/u5ZCgEIQAACkxBwJODjUhVOwEXKN3LIfzYvHIDZRMb77imBKm4zdZ4vGM8U1oYABCAAgaIE9tOKfhJfGY6AHzn8CclnhiklHIDpa2sTZfFzqYx25Dx+IT1CIkEAAhCAQIUEVlbenmP129UmGcDv0XZ+op/nhVNMOADl1dr+yuoUaZJ25G1OlZ4pkSAAAQhAoEYCy2tfvtLaj4K9Who2iN+t338jvUPaUEo54QCUX3uPUZYfky6QhrUj/3b+knUfrf8kCCRLYJlkLcdwCPQT8D3XPqtfX3KUwIO1HQO/htXPibcT0IZkB+BTwQqyhezxtRRtSH4I1baSHUU/ltrpZskRJz9cyPf3kyCQPAFfWEWCQFsIXKaCWCQITEPAB3hHi0gQaDUB3gbY6uqlcBCAAAQgAIF8AjgA+VxYCgEIQAACEGg1ARyAVlcvhYMABCAAAQjkE8AByOfCUghAAAIQgECrCeAAtLp6KRwEIAABCEAgnwAOQD4XlkIAAhCAAARaTQAHoNXVS+EgAAEIQAAC+QRwAPK5sBQCEIAABCDQagI4AK2uXgoHAQhAAAIQyCeAA5DPhaUQgAAEIACBVhPAAWh19VI4CEAAAhCAQD4BHIB8LiyFAAQgAAEItJoADkCrq5fCQQACEIAABPIJ4ADkc2EpBCAAAQhAoNUEcABaXb0UDgIQgAAEIJBPAAcgnwtLIQABCEAAAq0mgAPQ6uqlcC0l8LeA5YpoU0BMmASBOARwAOLUBZZAoCiBO4uuWON6t9e4L3YFAQiUQAAHoASIZAGBmgncVPP+iuzu5iIrsQ4EIBCHAA5AnLrAEggUJfDnoivWtN7V2s+tNe2L3UAAAiURwAEoCSTZQKBGAhdqX/fUuL9Ruzpn1Ar8DgEIxCOAAxCvTrAIAqMIeL79lFEr1fj78TXui11BAAIlEcABKAkk2UCgZgI/rHl/w3b3o2E/8hsEIAABCEAAAuUR2FhZ3Sf59rsmdXZ5RSInCEAAAhCAAASKEDhCKzV58Pe+X1HEUNaBAAQgAAEIQKA8Atspq3ulppyAi7Tv5csrDjlBAAIQgAAEIFCUwGFasSkHYL+iRrIeBCAAAQhAAALlEpir7M6V6nYCPltuMcgNAhCAAAQgAIFxCWylDW6Q6nICfqt9rTSukawPAQhAAAIQgED5BPZQloukqp0AX/W/TvnmkyMEIAABCEAAApMSeJQ29GN5q3ICTlDea09qHNtBAAIQgAAEIFAdgQ2V9fFSmU7A/crv49IKEgkCEIAABCAAgaAE/ITPV0vXSNM6Aqcpj90lEgQgAAEIQAACiRDwHQJvksa9S8BPGDxWeqa0jESCAARaSIDO3cJKpUgQyCGwg5btI+0mbSF5qmA1yQ8S8sWDfsXwedKvpWOkv0okCECgxQT+P343UXFhg238AAAAAElFTkSuQmCC;" vertex="1" parent="1">
          <mxGeometry x="711" y="252" width="12" height="12" as="geometry" />
        </mxCell>
        <mxCell id="57NM1Wxke1sPUCWePYtD-40" value="" style="shape=image;verticalLabelPosition=bottom;labelBackgroundColor=default;verticalAlign=top;aspect=fixed;imageAspect=0;image=data:image/png,iVBORw0KGgoAAAANSUhEUgAAAgAAAAIACAYAAAD0eNT6AAAAAXNSR0IArs4c6QAAAERlWElmTU0AKgAAAAgAAYdpAAQAAAABAAAAGgAAAAAAA6ABAAMAAAABAAEAAKACAAQAAAABAAACAKADAAQAAAABAAACAAAAAAAL+LWFAABAAElEQVR4Ae2dB9gkVZm2B8kMGQQRYQQlZzAQVBARUTHrugYw/KZVd1Exu7sOq7LmFcOaXRzTCq6KGAEVRVAkSQ6iDklyHHLyfx5myunv6+ru6u4K76m6z3U939ddXXXqPfcJ9dZ7KiwzhwQBCHSBwM4q5JOkXaUtpQ2k1aV7pFulv0jnS7+WfiZdLpEgAAEIQAACEEiQwKqy+S2SD+x/G0P3ad1fSM+RHiSRIAABCEAAAhBIgIAP2q+TrpPGOfDnrXum8niCRIIABCAAAQhAIDCBh8k2h/HzDuaTLrtf+X1SWlEiQQACEIAABCAQjMCjZc810qQH+lHbnaS81wlWZsyBAAQgAAEIdJrAHir9ImnUQXza38/VPtbtNGkKDwEIQAACEAhCYGvZcYM07cG96PYna18rByk7ZkAAAhCAAAQ6SWCuSu2z8qIH77LW+0InaVNoCEAAAhCAQBACh8mOsg7q4+bztCAMMAMCEIAABCDQKQLbq7T3SuMeuMta/0/a9wqdIk5hIQABCEAAAgEIHCEbyjqYT5rPqwJwwAQIQAACEIBAZwhsrJL6iX2THrjL2s7XH5AgAIEECfCYzwQrDZMhIAIvkSL0X9+BsAs1AgEIpEcgwgCSHjUshkDzBPZv3oS/W/D0v3/iAwQgAAEIQAAClRFYRTnfLZUVxp82H784iAQBCCRGgAhAYhWGuRAQgc2l5QOR2CaQLZgCAQgUJIADUBAUq0EgEIFNA9liU9aTVgtmE+ZAAAIjCOAAjADEzxAISGDNgDatEdAmTIIABIYQwAEYAoefIBCUwEoB7fJ1CSQIQCAhAjgACVUWpkJgCYFlApKIaFNATJgEgTgEcADi1AWWQAACEIAABGojgANQG2p2BAEIQAACEIhDAAcgTl1gCQQgAAEIQKA2AjgAtaFmRxCAAAQgAIE4BHAA4tQFlkAAAhCAAARqI4ADUBtqdgQBCEAAAhCIQwAHIE5dYAkEIAABCECgNgI4ALWhZkcQgAAEIACBOARwAOLUBZZAAAIQgAAEaiOAA1AbanYEAQhAAAIQiEMAByBOXWAJBCAAAQhAoDYCOAC1oWZHEIAABCAAgTgEcADi1AWWQAACEIAABGojgANQG2p2BAEIQAACEIhDAAcgTl1gCQQgAAEIQKA2AjgAtaFmRxCAAAQgAIE4BJaLYwqWQGBqApsqhy2l9aQVluR2g/5fJp0t3b5kGf8gMIzAOvpxe2lDaZUlK96m/5dLbkduUyQIJE8AByD5Kux0AXyQf7b0XOnJ0trSoHSvfjhdOlr6urRQIkEgI7C7PrxQepr0yGzhgP8Xa/mPpW9JvxuwDoshAAEIQKACAnOV5zula6S/TaD7tM33pO2kFNMbZPQk5a5ymy1SBCmbnyXZMZyUzRna9jnSMhIJAhCAAAQqJPAM5e2Q/qQDdu92dgQ+JdmhSCnhAExfW5soi19Kve1hms/HK6/NJBIEIAABCJRMYHnl54P1NIP0oG3/qHx3LtneKrPDAZiO7gHafJE0qD1MuvxW5fmP05nG1hCAAAQg0EtgZX35mTTpwFxkuzuVvw+sKSQcgMlqyRf0fVkq0h4mXed+5f+uycxjKwhAAAIQ6CXgM/9jpUkH5HG3O1L7WqPXgICfcQDGr5SttMnZ0rjtYdL13zG+iWwBAQhAAAK9BD6nL5MOwpNu56u8I08J4AD0tpDRnx3yd3h+0vYwyXaOBPjuFBIEIAABCExAwLf4TTL4lrGNpwQOmsDmOjbBAShGeSWtdphURnuYJI+btO+Ni5nKWhCAAAQgkBFYSx+ulSYZeMvc5kjZEG1KAAcgayWD/9cd8h/U5o4ebCK/QAACEIBAHoEPa+GgQbXu5Qtly655Rja0DAdgOPiX6ucqrvKftN3tPdxcfoUABCAAgYzAmvpQ95ztqME90l0COABZS5n5v46r/Ee1k7zfj5lpJt8gAAEIQGAQgX/RD3kDaYRlEaYEcAD6W06UkH9eG/UFgTwkqL/OWNIwAd4G2HAFsPtcAs/PXRpjoW07U4o0JRCDTHNWOOT/e2nb5kwYumc/Jvh5Q9fgRwg0QAAHoAHo7HIogdX1625D12j+x3ky4XjJZ+Kk5ghkIf+vyYRVmzOj0J6fWmgtVoJAjQRwAGqEza4KEfD99ym8pXJF2flp6XuS71gg1UvALx/6rfTKenc78d7crhlvJ8bHhlUQoEFWQZU8pyHgudyUkp9VcIoU+cFBKfEsYqsf7HOatH2RlYOs4wgFzwQIUhmYsZgADgAtIRqBDaIZVMCeR2idkySmBArAmmKVLOS/QHnMnSKfpjZ9aFM7Zr8QyCOAA5BHhWVNEkhxYDcvpgSqbTWphfzzaKTatvPKwrIWEMABaEEltqwIvo0q5ZRNCeySciGC2Z5iyD8PYeptO69MLEuYAA5AwpXXUtNvaEG5PCVwohT1XQKpIM6e5Z9qyH825+tnL+A7BJokgAPQJH32nUfg8ryFCS7zlMAnpCOlaO8SSAGnLwY9RfJDodqSrmhLQShHOwjgALSjHttUCj9kp02JBweNX5vRH+wzfonmzPmrNrpmkg3ZBgJVEcABqIos+U5K4DxtePOkGwfdjgcHFauY7Cr/FB7sU6xES9fyMwtIEAhFAAcgVHVgjAjcI/2shSSyuwSYEsivXIf8T5Zemf9z8kt/lHwJKEDrCOAAtK5KW1Ggr7eiFPmFYEqgn0sbQ/69pbxDX77fu4DPEIhAAAcgQi1gw2wCP9aCv8xe2KLvTAksrsw2h/x7m6sd2ht7F/AZAhCAAAQGE3iFfvJ9023XJO8SeENALn5QzzjJ6/uCz7bX790q4ybjgGFdCEAAAl0nsKwAeE647QcIl+9iaZwHB6XuAPjBPrd2pG4/oHKSIAABCEBgTAJ+v/vtUhecgDtVTh/Yi6RUHYAs5N+F+nQZz5Z88ScJAhCAAAQmIPBibdOVA4bLWWRKIEUHoCsh/6yt+lZW39lAggAEIACBKQi8RdtmA2sX/i9UeXcdwis1B8BX+S+SulB3LuNt0l4SCQIQgAAESiDgR8LeK3XlIDJsSiAVB6BrIX+3zWulPSQSBCAAAQiUSGA/5XWd1BUnwOU8Upr9LoEUHACHvz0H3qW6+oPKu6lEggAEIACBCgg8THn+RurSgWWhyts7JRDdAehayN9tcYHkiAcJAskQWC4ZSzG0KAHX6U6Sz8B8//Fq0vKS5yUvk/4o+fY6z8mmmC6X0U+UDpUOlpaR2p7mqYDHSy7vZ6SoyQfAT0mvjGpgBXa5H71O+mYFeded5craoSMYGyzZsafc/HruP0keP0gQgEBAAivIJj9i1leQe0AadXbs5+2fIPlMci0p1bS/DO/ilMC7VO5RdVz378+WTWcHtKtKDg75j/sAJG0SJj1IljxBOkw6S7pPyuN1v5b7xOHz0jMkThwFgQSBpgm4I/6TdKmU13GLLLtF235Qmj3PrEVJpI1l5UlSkbK2ZZ2IF0PaqWwL3yLl8MHQZ8wpJkcEHbXwQb1IWWevc6W2sxPq6CIJAhBogMAu2qfPQGZ3zkm/u1M7ipBi8oD2EclnKpOWn+1gV6QN2GH2sylSTU+S4RdIRco6ap2rlE/KLFKtQ+zuOIHXqvy+TWxUB53kd88xpxri6+KUwCR1zDaT9Z2UQ/5+tPaHpSqc5G8p31UlEgQgUDGB9yn/qgfwH2ofK1Vcjqqy7+KUQNXtgfwXz3+nGvKfq87mPl1lPZ6m/NerqlOTLwQgsHjercpO3Jv3UQKeaiSAKYFqB/vedtL2z6mH/O3IHyvVUU/naj9rSyQIQKBkAs9RflWE74YNDJ5XTzkxJVDPwD+sDaX8W8oh/6zffk0f6qyDE7Q/O+AkCECgJAJ++I3vx62zI3tfdjj2k1JOTAnU327qbqdV7C/lq/yz/vpqfaiCzag8P5QZwH8IQGB6At9WFqM6XVW/+yEgqc59ZuSZEmiu/VTVLqvKN/WQf9bmH6oPN0lVcRqWr29T3TkzhP8QgMDkBB6jTYd1tjp+e/Pk5ofakimB5ttSHe110n20IeSfdbgvNjxu/CozhP8QgMDkBL6rTScd0Mra7grZ0JZ5PaYEmm9PZbXLMvNpQ8g/G2Xm6cPdAcaNJ2QG8R8CEBifwIO1SYSO7IHWZ89tSb67Yb406NGnZR5YyCu2w+FHZ79EalM6RIWJ0O7a8H6ENrULypIYgdcE6cgeTBYkxq6IuUwJxDhQNHWwalPIv7e9T/qI37Lr4XYZ5WcQkCAAgQkIHKFtyu6Uk+bnaYA2Jt9h8RtpUi5slyY7O7RtfH3vJsHacup3EQlne5PfBkWKS+DRgUzzVcUbBrKnLFMuV0ZPlD4q+WBOajeBLOR/oIrpM9S2pd2DFWiPYPZgTg8BHIAeGME++glevmAtUtoikjEl2nKP8nqb9Ezp+hLzJatYBM6UOXaq2zw3vXUs5HOi2RMMT7Pm4AA0y3/Y3tfVj9HqZ94wg1vwm5+XvqN0YgvKQhFmEvAT8Xx2fOHMxa375imASKmNUcNIfKeyJdoBZqrCtGzjiBfPeBqg7YkpgXbVcNtD/rNra4PZCxr+vkbD+2f3QwjgAAyB0/BPdzW8/7zdd8EBcLmZEsir/fSWnSeTd5PaHPKfXSvRzrh9qy0pKAEcgKAVI7NuDmhatMGlakSeEvAjTX9b9Y7Iv3QCX1COj5LOLT3n2BlGiwC08ULL2C1gDOtwAMaAVfOqfo73nTXvc9TuuhIB6OVwqb74iWZ+uMr9vT/wOSSBW2XVS6XXSneEtLA6o9ZU1qtWl/1EOV810VZsVAsBHIBaME+0E9+S9teJtqxuoy46AKbpl5vMl54lcZeAIARNDvnvKn0jqH1VmxWxf7b1+SFV12Ut+eMA1IJ54p1EcwAeopIsO3Fp0t+QuwTi1qGv8vctfl0L+ffWSEQH4MpeA/kciwAOQKz6mG1NNAfAB//1ZhvZse++S2AviSmBGBWfhfzb+mCfcShHvEaHCMA4NVjzujgANQMfc3fRHACbH3GQGRPr1KszJTA1wlIy6HrIfzbEiBGAiGPYbG6d/Y4DELvqI3aeiINMU7XIlEBT5OfMIeTfzz7aHQC2MOIY1k+uo0twAGJXfMTOgwMws80wJTCTR9XfCPkPJhwxOscUwOD6avwXHIDGq2CoARE7Dw5Af5UxJdDPpIolhPyHU43WN++Wudw1M7zOGv0VB6BR/CN3TgRgJKJQKzAlUF11EPIfzTaaA+Dxizdsjq63xtbAAWgMfaEdR4wARAwzFoJZ00pMCZQLmpB/MZ4ey32bbqQU8QQmEh9sgcBIAn4ksL3oKPIrVUnFCOyv1a6TotRdanb4nv5tiqHu/FrrB2xnR3a+VoIDIAIQvIJkXrQoQLQwY+QaZEpg8toh5D8eu4j9MtrYNR7RDqyNAxC/kqOF0dYRspXiYwtjIVMC41UFIf/xeGVrR3QAeApgVjtB/+MABK2YHrOiOQDLyLaI9xv3IAv3kbsEilUJV/kX45S3VsRrc4gA5NVUoGU4AIEqY4ApETtRxLONAfhCLWZKYHB1EPIfzKbILxH7ZLSTlyIcO7UODkD86o4YRos42MSvycUWMiUws6YI+c/kMem3iH0SB2DS2qxpOxyAmkBPsZuInSjiYDMF4to3ZUpgMXJC/uU1vYh9MmL0sjziLcgJByB+JUbsRBEHm/g12W9hl6cECPn3t4dplkTrk47sLJqmQGxbPQEcgOoZT7sHIgDTEoy9fdemBAj5V9Meo10EGPHEpRry5AqBCgksr7zvkyI9xOUXFZa3y1m3/cFBPNinmtbNGFEN19bnSgQgfhXfIxOjvVAjWrgxfi0Ws7DNUwKE/Iu1gUnW8m250cZyIgCT1GTN20RrNDUXP5ndRetM0cKNyVRkAUPbNiVAyL9ApU+5SkSHPOLU5ZSY27c5DkAadRqtM60qbKulgS5JK9tylwBX+dfT/HAA6uHcur0sl3CJHiHb95UeK20m+U1Ya0p3Sw6ZL5TOlo6Xfi3dIaWaojkA5ugowAWpAk3Ebk8J7Cz9r7RbIjZnZn5BH94kpdzvsrJE/x/xyZwRn18yTj365Ur7ST6+bC1tJK0l3S/5BV8ek8+RTpJ+Ll0rkSomMFf5v076gzTORXG+HeXL0k5SiukQGT1OeetYd+8UQSZqsy/y+ojkwaeOup1mH7fIxhdLpPoIHKpdTVNnVWz7uPqKX9qellVOz5V8QL9PKsrFEbsfSc+Q/Kh0UskEPFXxWsleZdFKyVvPA+j/SY4epJReI2PzytPkspemBLAltka/S8CO+RYtYZ1SMQ6XsU2OBXn73iQlgLL1yZIjxnllGWfZacrj8RKpJALzlM+vpHEqYdS6Dkv6rHplKYXkgX9Umer+/e0pgGuhjRurTCcHbA+OsKXSn9rWLI4J1h58opXKG0PnydbvlszP5f+MtKJEmoKAw0jXSFUd3P6svJ85hX11bep54KoYTJrvYXUVnv30EXhDwPawZZ+VLKiLgOeiJ+3HVWznOfLoyQfnd0u3SVUwcJ6nSL6WgDQBAc8x3y5VVTm9+fpiq8jTAr7AsdfeCJ+PlE2kZgjgADTDPepeb5RhEcaEzIazooJaYtdT9P/Cmph5P9w2vQR80X87asVbpaxB1fHf0wLzpYhhTF8DcbdUB4ei+zhR9pCaIYAD0Az3iHtdRUYV7bN1rffTiKBkk6fPvtMAL18bs5oULvnAEi35VovvSXNrNsxzVu+VHE7z1ZyRkueUro5kkGx5aDB7MAcCXSQQsR/6FrlIaQUZ8y7Jz6V4XgOG7aB9fqmB/Y7cZUQH4KOy+uEjLa9uhU2V9Q+koyV/jpKuiGLIEjt87/EywWzCHAh0jUBEByDSWLWvGoSnJA6V6j6p7G2L/6AvL+ldEOFzNAdgN0F5RQQwssFX3jsa4KhAhCtao3nVvohmXYkEAQg0RyDi/HKEsWojVcmR0s+kLZqrnhl7/rC+rTpjScNfojkA7xOPSGeVvh5gvuS3mNkhaDJF6FSzyx/x7GO2jXyHQJsJROyDTY5VK6iy3ymdLz0/WMW7rt4YyaZIDsD2AvOkSHB6bPFUgKcEPDWwSc/yOj822akGlTPi4DPIVpZDoI0EIvbBpsaqfVTBDvf/p9RkuH9YO3uDflx+2Ap1/hbJAXh5nQWfcF++ONDRgH+X6p4WiDSvluGLOPhktvEfAl0gELEP1j1WPUwVfYR0rBQl3D+o7dnWvQf9WPfySA5A0yH2ouw9LXCI5OsDnl50oxLWa8qrHmZ6xMFnmL38BoG2EYjWB/0M/bruWHK4/x2SX0r2AimV9OwohkZxAHzBxmZRoBS0ww8O+qF0lFTHtEBEByDiBUgFq4/VINAKAtH6oA/+dgKqTp4uPlP6oBQ13D+IgZ9wGyJFcQC2C0FjMiP8KGFPC/ybVOW0QEQHINrZx2Q1yFYQSJeAb8eNlKoepxxC/7Z0nLRlpIKPYcvWWrfKY0VhU6I4AD6bTjl5WuA/JL9N6mkVFcSP+/SjkSMlHIBItYEtXSPgh6atEqzQVTkAvnDu7ZKv7vc99SknH3cd9W48RXEA1mmcRDkGPFLZ/Ej6vvRwqex0ZdkZTpkfDsCUANkcAlMQiNj/qnAA9hYjh/s/JIW6j36KugvxDJUoDoC9uzalZ6kwnhb4V2nFEgtW99W1o0xfTyssN2olfocABCohENEBKHOM8vUN/yv9XNqqEoLNZRrimBfFAbizuXqobM8Ozb1P8t0CTy1pL1V419OYtqw2fsg0GbAtBCAwMYGIDkAZY5QPjm+VfHX/CyemE3vD2yKYF8UBiBbaLrNuPC3wY+m70rwpMy6jc01pQt/mEQehPiNZAIEWEoh2B4ARTztGPVF5+O15H5HaEu5XUfrStX1LGlgQxQH4UwNlr3uXz9EOz5PeI006LTBt56qizDgAVVAlTwiMJhCx7006Rrks35J+Ifkq+TanW1W4yyMUMIoDcKpg3BcBSMU2eFrg/ZLvFthvgn2VOb82we5zN4k4COUaykIItIxAxL43rgPgcP/BksP9/9iy+hlUHF/Q6Fe8N56iOACLROKUxmnUZ8Bm2tVPpP+TxpkWGLdz1VGiiGHIOsrNPiDQNIFoDsCdAnL9GFD20rpnSB+VVpO6ko6NUtAoDoB5+GDYtfRcFdjTAu+WikwLRHQAog1CXWtDlLe7BKI5376W628FqsNjxjelX0rbFFi/bauEOdZFcgC+plq+q201XaA8nhb4gOS3WD1lxPo4ACMA8TMEOkLAY/dDgpV11PjkcP9bJIf7XxTM9rrMOVk78p1hIVIkB+BqEbET0NW0uQr+U+k70sYDINyu5TcN+K2pxUQAmiLPfrtMYD0VPtozOIY5AHvK3tOlj0ldCveruDPSB2d8a/hLJAfAKOZLPsh1OT1Phfe0wLukFXJAXJGzrMlFOABN0mffXSUQsd/ljU1+V8HXJYf7t+1qZS0p9+/0/6hIDKI5AG5A/xYJUEO2zNV+D5U8LbDvLBuGedmzVq3l69ray8q17ImdQAACGYFo8/+2q3dscnTizZLD/S+RlpG6nO5R4V8nFblGojZO0RwAF/wT0rG1EYi9oy1k3s+kI6WNlpja28mWLGr8X8SzkcahYAAEKiQQsc9lY9MTVG6H+z8urV4hg5SyfpuM9e1/oVJEB8D3R/6D5Lc+kRYTeL7+mcc7pesWLwr1N+JgFAoQxkCgZAIR+5zHbl/Hdby0nURaTOBL+ndYRBjRLiLJGPlCtydJP5e2yhZ2/L+nBf5TcigpWoo4GEVjhD0QKJNAxD63QAWMekwpk/04eX1DKzv0HzJFjABkoHxP6eOl47IF/H+AwPIBOUQcjAJiwiQIlEYgYp/j4L+0ej3X/wHpAOm+pYtjfYrsAJjU9dJ+0nukOyVSTAIbxjQLqyDQWgL0ubhV65PXp0p+HXyoi/5mI4vuANhee0+HSjtIx0qkeAQino3Eo4RFECiPAH2uPJZl5XSvMvJF7FtKvng7fErBAcggXqQP+0rPlC7JFvI/BAEGoxDVgBEdIbCCyrluR8qaSjFPkKG7SL718ZZUjE7JAciYHq0Pfl3kIdJd2UL+N0oAB6BR/Oy8YwTc37p+X32UKr9KhrxM2lPyc1uSSik6AAbspwXOl3yriR+fS2qWAPORzfJn790igMPdfH37lscvSA73L5BCz/XLvtyUqgOQFeaP+uCLLZgWyIg0898vNFqzmV2zVwh0jgAOd7NVfop2v6v0WunmZk2Zbu+pOwBZ6ZkWyEg095+zkubYs+duEaCvNVPfvivtTZIP/nYCkk9tcQBcEb3TAklcgZl865lZAAalmTz4BoGqCNDXqiKbn2/2hMMt9LOf6OfvrUhtcgCyCvG0gJ8d4GmBS7OF/K+cAGHJyhGzAwg8QAAHoL6GcKp25TP+AyVHAFqV2ugAZBXkaQE/Rpi7BTIi1f5nUKqWL7lDICNAX8tIVPc/C/c/VrtoRbg/D1WbHQCXN5sW2F6fmRbIawHlLdugvKzICQIQGEKAaNsQOFP+1Npwfx6XtjsAWZkv0gemBTIa1fxnUKqGK7lCYDYBIgCziZTz3eH+3aRWhvvzEHXFAcjK3nu3wN3ZQv6XQoBBqRSMZAKBoQRW1a+rDV2DH8clcIM28NX9Dvf/ftyNU16/aw6A6+o2ab60nXSMRCqHAA5AORzJBQLDCBBpG0ZnvN86Fe7PQ9NFByDjcJE+PEXy3QKXZQv5PzEBXwPQ5fY0MTg2hMAYBHAAxoA1ZNXecP91Q9Zr9U8M2HPm9N4tcHera7vawi2v7B9c7S7IHQKdJ0Ckbbom0Nlwfx42HIDFVLJpAd8tcGweKJYVIsDgVAgTK0FgYgL0scnQdT7cn4cNB2AmlQv1NXvlMNMCM9kU+cbgVIQS60BgcgL0sfHZnaZNdpd8dX9nw/152HAA8qgwLZBPZfRS5idHM2INCExDAAegOL0s3P8YbXJy8c26syYOwOC67p0WOG7wavzSQ4DBqQcGHyFQAQH62GiohPtHM3pgDRyA0aA8LfBkyXcLXD569U6vweDU6eqn8DUQIMo2HDLh/uF8ZvyKAzADx9AvvltgW8lvg7p36Jrd/XFLFX257hafkkOgUgLrKPeHVLqHdDP33P6rJML96dZhMpb7QOe7Bf6G+hhcICb7SKTqCLxBWUdre+4TpGoILKNsfQHbNVK0em/anvvEZIHELciCQKqXwAu0u6ukpjtBxP07YvKwequjM3vDAehMVc/ZWUX9rRSxjzdtk8P9flUvCQKNEVhDe/a0wD1S0x0i2v5vEpODJKYFBKHEhANQIsygWa0lu7Lpxmj9uml7fHW/x5Vlg9YdZnWQwA4q8wlS050j4v7PFJfHdbBNVFVkHICqyDafL+H+wWOor+4n3N98G8WCAQSyzsu0QH8nzjrv+gPYsbg4ARyA4qxSWnMnGXuSFNGJb9omwv0pteSO27qmyu/wHdMC/YMZ0wLTdw4cgOkZRsphLRnj8cJ3FzV9oI22f8L9kVoqtoxFwNMCv5GidaoI9vxBXJgWGKs5/X1lHIC/o0j6QxYxvFqliNAnI9mQRQy5uj/pJo7xawjBL+jguQOcO/nhEtMCgjBGwgEYA1bQVXeRXb+TIh10I9nyAbHhIr+gjRezRhPYSqs4rLdIitSxItpyoxgdJNHhBaFAwgEoACnoKtn0IOH+0ePiX1WHH5TmBa1LzILADAIr6pufDcBDgkZ37jxHxNMCe8wgypc8AjgAeVRiLyPcP9mY4HHCD/vxmOqxlZMEQSDFIrC5zLGn6sdR5h3YWFacSzb3x7TA4DaOAzCYTcRfdpRRJ0qMA9MzuEwc50vrSSQINEZgBe05O9v3QYvOXS4DpgUGN20cgMFsIv1CuL/cMaF3jL1LFX2E5MeOO7pCgkAtBDbUXuZLXLlbXefu7ehniDXTAoLQk3AAemAE/Ei4v56xIRsn/MbWd0h+WRIJAqUT8FsT7Wna4+TinXo7tzt5Ni1A2E8wlHAAFnOI+Jdwf/3jQ+YI3KEGkUUFIrYNbEqMwAay157lQilrZPxvjgXTAmqISjgAizlE+ku4v7lxIW9MPleNw3cWrRqpkWBLfAK9Z/t3y9y8xsWyZrl4WmD3+E2pMgtxACpDO3bGWbifx383OyYMGpNvUY1+XnJkhgSBgQTswdtjvFga1JhYHodNl6cFcAAGduNaf9hBe/sN40Uy4+WpqqvXSKtIJAg8QMBP5LKHeLvEAT49Bjeq3uy4den+YBwAVXiDiXB/euNE79h+k9qOx/xtGmxD7LpBAqtr3/YEz5R6Gwaf0+VxuuqyK9MCOACq7AYS4f50x4dBY7ujAgdKyzfQnthlzQSys/1btd9BDYLl6bLpyrQADkDNA4d2R7g/3XGhyJjuazj8MLdN6m9a7LFKAispc3t4fp90kYbAOulzavsrRHEAqhwxZua9hr76nR73SIwN7WfQ+9jh5WY2Bb6lRGBLGWuP7nqJjttNBp4W2E1qW8IBqL5GCfd3c8zoPVZcoWbmY8hG1Tc39lAGgd6X8Tgc3FuZfO4mj2xa4MFlNLAgeeAAVFsR2yv7EyTGDBi4Dfjhb34Z0TMkO4akYAQeKXvsqV0r0WlhkNcG2jQtgANQzQA0d8k4QrifMSRvDPGyP0p+OFybTihUnPSSb/uyR2bPjLN9OuygDjt7ua8FSX1aAAdAlVhy8ljiN83Nbi98h0leG7hTbSV77DBRgZI747DsHqof7YFdKuVVDMvgMqoNpD4tgAMwbIQY77cttLpPIka1GX6H0aA2cL7aj49Ja0ukCgj0Pp6X8BwdcVBHHHd5qtMCOADTDzIO98+X7pLGbTesD7O8NnCH2tICaWeJVAKBhygPe1Z/lvKAswwuZbQBTwvsKqWScACmqymH+4kgMnaUMXYMyiN77LAdTdKYBLbR+l+TeBkPnXRQByt7ue///ZyUQhgPB0AVNUHaTtv8Siq77ZAfTAe1AT+q/H3SuhJpBAE/dOPTkm+7GASU5bCpsg1cp7b3asnTTlETDsB4NbO6Vv+4xPQhY0eVY8ewvO0IvF4KNa5EMsbzJg7FenDzFf4kCDRBYB3t9AvSKVJK0wJNsEphnw73nyO9WeLJbinUWDtt9AukPiMdJ60fpYhRHIBnCsiJ0iOigOmAHX4fwhelR0uvla6XSEsJ2CF1m/yslMK0wFLL+WQC20rHSz+QeJKbIPSks/T5idKzpJ9IviuGVA8Bcz9J2rSe3cXfiw/+hObqC8258zsU5bBob/KZr1+R6bnwYaGsLv52rZi8SoriMDMFoMoYkFbT8o9JXD/U34/9GtyDpNmRkE207FDpKqmL/buJMl8u1vOkTqdHqfS3S01UQJf2eYcYL5D2kEYlRwQc/u4Sn6Jl/Z24+I2STSccgPwaeJEW+/ntReuzK+v5DN8XVfuuqmFpBf34QukXkrfpCp+mynmuGNth7WTyGejFUlPwu7DfC8X3YMln9+Mkn+lm0wJd4DROGX2B6n9LTU4L4ADMbM3b6OsvpXHqsSvrOuL3hJm4Cn3bUmv9l3SD1BVWTZTzq4Vqo4UrfYKGVUnH8gHqaGkfaRlpmrSWNvarUJ1nE50j8j59zYTDqU1MC+AACLzSXGm+xMN8+vunr/ExG5/VT5N6X7AWuT+mbNtTp6mgFLfdXEYz79/faadpxAvF9D3SBlLZ6THK8BRpGvvauu1vxWXnsoGPyA8HYM6cfxQjwv39fdKh+69LVYwDOypfXxR7i9TW/txEuc4Tz07d+fZlGlApHcgX7P1Q2r+GBuQz3ddJPvNtopNE3qcjJL7FxxGTOlKXHYCtBdhz1JHbQ1O2nS0ue9bQAD1v7bHgDKmpsrZtv8+vod5C7GINWcGFf9N1nCvF8P3SvAZqdF3t84sSdwv01+E14vJKadqpF2UxNHXRAVhVRD4scXV/f7u7WVzeIi0v1Z38rIzDJcb0/noZx0n5Zd0V19T+PECOA4Z1F/NyaO846QVSEx1du52RHqtvp0rUTz+Dk8Rlpxm0yv3SNQfAV6ZfLtHWZjLwmPAN6aFS08nRrzdJ50vU0/gMfEIVoR5lRrXp28qeBlKcge/d/by0TbXVMlHunhY4ULpWok5nMnCHXiA5YlJ26ooDsJnA/VSibfUzuFBc9i27YZWU3y7Kx2MWUYH+ehvWll9WEv/Q2Vwq64ZB4LfFfE4UpwOklULX5mLjHqx/X5KYFuhv21eLy8ulMqcF2u4AONz/IYlwf3978gV4B0sRooAyY2haX7++S/qzxLg+msEXhtJswY+e/3fYisaQz8Bzeb6YbHspxeT5wNMk6refgR06X0VdRmqzA/APAnSZRBvqZ/AtcUkxTOxIoW91O0riluL+es3a+q/Fp9VpK5UuKyz/l7I4XVxeI/nMJ/Xk21n8qGEeILK0frO27sHvU9Ka0jSpjQ6AHzxzrJSx4v9SFueKyxOnaTCBtt1IthwiXSFRxzMZLBSTViefIVLpixncJhZfkR7T0hr3tMCXJSI+/W3e0wIvkyadFmiTAzBXHD4o3SUxNsxksEhM3iqlEO6XmWOl5bT2c6SfSUwdLq5332Ld6uQrx7veyS8Ug3dI67S6ppcW7lH6eLLU9XrPK/8p4vLopagKf2qLA/AMlXihlMem68uOFpeNpS6kR6iQdgLtGHe53lvvAGzT0Qr22Y3n7/aUupg8LeCDFtMC/QOcpwU+KY0zLZC6A7CFynuM1OXBflDZzxOXvaUuphVV6BdLngsfxKfNyxeq3K1Oq6l0ba7A2WXzxUzzpfUk0uIX6BwmEIT8+vvBdeJS9N0CqToAq6iM86U7pdl9pevfPSVoNj4IkubMsZPoqID7RVfaxq+6UPGXtrxC/Y6D70n7SQ+SSP0EdteiM6SudOxxynmCuOzQj2zGkhQdgOepBG3v++PUc++63xabh82oYb5kBOw0vlL6vdTLrI2fP58Vus3/3djbWHmXq1zzpQ0l0mgCnhZ4o3Sj1Mb2ME2Z7EQ6UrKGlJdScgD84i9f6DUNj7Zu66fmPSmvglmWS2AXLf2idKvUxjbx0txSt2zhgS2qPIey/aSyZ0vLSaTxCfhhIYdL3C3QP6hdKS4HSLPvFkjBAfCZ26GSr39p42A9TZl8APOFwCtIpPEJ2DF2HzhLmqYeIm3ra4EeIrU+ufJulyLBH9cWX63q+alHSKRyCOyhbP4gjVsXXVj/1+LS+3Co6A7Ac2XvJdRlbls+QlwI9wtCSelxyudr0h1SymOBL4rtTPqcSppiZfkijRdJXKhTTVP1tMA/S0wL9PcPTwt8QsrOfqL1ny1l22aSI2LRbItgzwXi8mSJVA0B31Z9sHSRFKG+x7XBTnNn0iNV0lRCgz4YeT52687UTvMF9bTAVyWmBfoHM08LHC2NO8BUvf4C2XRnQLuqLveo/B3uf6dEuF8QakieLttH+o50tzSqfiL87qkM292p9DGVNgL8QTacLPt89annMknNEHB4j2mB2P1kUP9h+eKD0EbNdB32KgIbSP8qXSJFbY8+yXmi1Lk0VyV2WCxSxSySPV+QdpZIMQj44sp/kW6SIrUVbKE+BrWBC9VW95VIMQh4anF/6YdStGeQ+HjT2bSjSu6D7qCOVNdyh2BeL60ukWISeIjMcpiZaYHm+0td/TK1/fhhPu+SCPcLQtA0T3a9X/JUWtPt63TZsLLU6fQ0lb6J6wF81agPKL76nJQOgcfL1DOlpjsv+6cOetvA/6lNbpxON+q8pX7B0gukn0tNnFT8Sfv1FAVJBJ4q2Xvu7VBVfXZ4zleLriOR0iTgaYGDJKYF6ukzVfXFNuTrq86fkmY3wuolBDbXf1+TVtdjh8/RvjZasm/+LSGwg/7/UapiUPDVoEdKT5I6d7WlytzW5GkB3wPchAdfRTslz2r6fxVcfcLyHolbggWhJWklleMA6USpijbjPB0pWlMi5RBYVcs+Lvme5zIqYKHycScl1CIILU5PUNl8HUcZbYY84DiqDXxXbW1ei/sTRVv84K3PCMTN0qj2UOT3q5TPywBbjIAfKHK4NMnTne7Tdr7a01d9+upPUjcIeFrgzVJZHbZIp2adcgbHVDg63L9fN7oTpVxCwCelr5F8wd4k7dQH/ndLq0ukMQmsrfUN3x63H787qAKu128/kt4oPVQidZeAoz1fl5gWGNxfBvUjluczc7jf95MT7heEDqftVfZDpBOkQSen9+o3397+Wenpkk9MwqbU5sMfLJIbSusuIXqL/l8m+ZYOEgR6CeypL5+Wtu1dyGcIjEng+1rfkaWFY27H6u0m4OiyTzbXlzynf6fkE9G/LPmsfyQIQKBJAtndAkwL5J/ZcsY/mMvFarg+gyNBAAIQgEDCBDwtwEOEBh/scASWsvGbSudLviKcBAEIQAACLSHA3QJLD3Qc9PtZHK12vklL2jrFgAAEIACBWQSYFug/8HXdGfBT2XzXEAkCEIAABDpAgGkBHAHC/R3o6BQRAhCAwCACe+qHs6WunwV3rfwO9286qFGwHAIQgAAEukGAaYHuOECE+7vRpyklBCAAgbEIMC3QXkfgLrWEw6S5Y7UIVoYABCAAgU4RYFqgXY7AsWq9W3aqBVNYCEAAAhCYmIDfF+5XDvMQoXSdAT8l9MCJWwAbQgACEIBApwn4cZ88RCgtJyAL9/tFLiQIQAACEIDAVAT20tbnSF27Wj618h6nOiLcLwgkCEAAAhAoj0A2LeCXUKV2YGy7vYT7y2vn5AQBCEAAAgMIZNMCbT+oplC+u1VHvrqfcP+AxspiCEAAAhAon8BeypJpgeaiIQ73b1V+tZIjBCAAAQhAYDQBpgXqdwAuV7Vwdf/otskaEIAABCBQAwGmBap3BAj319CQ2QUEIAABCExG4InajGmB8p2Bn4sr4f7J2iRbQQACEIBATQSYFijPASDcX1OjZTcQgAAEIFAeAaYFJncECPeX1w7JCQIQgAAEGiLgaYFzpRRuq4tgo8P9WzdUV+wWAhCAAAQgUCoBpgVGO0CE+0ttcmQGgeEEHjT8Z36FAARKJrBMyfmRHQQgAAEIQAACQQnsLbvOkyKE11OwgSv+gzZkzIIABCAAgWIENtRqfpNgCgfdaDZyEWCxNsZaEIAABCAQiEA2379INkU7sKZmDy/5CdSwMQUCEIAABAYT4Ir/apweXvM7uM3xCwQgAAEINEiAcH81B/7eiAXTAg02cHYNAQhAAAIzCWTh/lu0uPdgxefqeDAtMLMN8g0CEIAABGomQLi/uoN8EQeKaYGaGzy7gwAEINB1Ajzit9kDf69zcJca42HS3K43SsoPAQhAAALVESDcH+fA3+sE+DPTAtW1e3KGAAQg0GkCe6n0vOY3rgOQOQTHqp627HRLpfAQgAAEIFAKAcL98Q/62cE/++9pgQ9KK5XSAsgEAhCAAAQ6RYBwf3oH/swByP7/SS12/061WgoLAQhAAAJTEdhLWxPuT98ByByBo1Wfm07VItgYAhCAAARaTSAL99+vUmYHD/63g8XtqtP5EtMCgkCCAAQgAIHFBLJw/836ygG/3QyYFqDXQwACEIDAAwT21N+zJQ783WLgaYFNHmgB/IEABCAAgU4R2ECl9at6Cfd368Df6+gxLdCpLk9hIQCBrhNYTgAOkgj3d/fA3+sE+PPF0tMlEgQgAAEItJTAnioX4X4O/LMdgOw70wIt7fgUCwIQ6C4Bwv0c9LOD/Kj/TAt0d5yg5BCAQIsIEO7nwD/qgD/od08LPK1FfYGiQKCPwDJ9S2IvWFfmbSStLdn2RdKl0pUSCQK9BPbUl89I2/Qu5DMExiTwfa3/JumSMbdj9XYTWEPF21zy8Wg1yccjX1fk49EF0m0SaUoCa2n710jfla6WBnnrN+q3H0v/LDncS+ouAdf/NySu7h/cXwb1I5bnM/Ng/h5pRYnUXQI7qugfls6U7pMG9Zd79dsp0vulrSTSmAS20Ppfke6QBkEetNzwj5IcvnuQROoGAYf73yzdLA1qGyyHzTRt4CK1rf0kUncIrKqi+iT0NGnStvNzbbuXRBpBwKGU/5LukSaF3bvdX5TPu6T1JVJ7CTxBRTtL6q17PsOjqjbgiOS89nYnSiYC20meQizzhOI7ys+PGyflENhJy+xhV9Fp71K+35aeKHmuhtQOAg73f00i3F9Nv6miL7YlT08LvFtiWkAQWpL8nogDpBOlqtrpNcr7KRKph4DDardKVUHvzdcXaDhU7AsJSWkScLjfF2aV6Z33thE+19MX28D5QrVDBvQ0x5HMal/M91HpOqmONukI9yslkgjsI90p1QG+dx/e5xFL9q9/pEQIPF52nin11iWf4dF0G/BDhB4ukdIgsKzMfIZ0rNREBNH77LwT4HmWus78hw0Qf5Adr5N8DQIpJoGHyKwFUhOddVjb4Tecj6wNeCzzNUcrSKSYBObJLF+df6WU1VtT/x0J2FPqZJqrUjsc3xT8vP3eIns+J/l6BFIMAg73+9n9N0l5dcYyuERrA54W2FcixSDgs/39pR9Kw27fa6IdXSGb1pU6lz6kEjcBvOg+T5V9vv3DjgqpGQKP1m5/LxWtM9aDVaQ24GmBec10HfYqAo4avkP6ixSpXcy25Yuyr1NpE5X2bmk2iIjfb5Cdn5B4oIMg1JR82+ZXJcL9/X3EoUufyUTrK56euSugXU1z8rTAOyWmBQShhuS7vHxd2ZFSKscYRyW2lzqT/lslbbpjjrt/H4x+Kb1QojMLQgXJobp/lvxkx3Hrp+3re77Qjuga0hsD8tlCNm0u/SygbRHahqc7nyyRqiGwjrI9WPL0S4T6HtcGP720E8kh9UXSuIAire+owGHSphKpHAKPUjaE+/P7xa/FpvcMIaoDkLUEX129UIrUZ6PYwrRA1krK+b+Lsvm85OcyRKnjSexwtGIdqfXppSrhJIAibuPQzU+kZ0k+eyWNT2A9bXK4RLi/v19cJS4HSg5r9qboDoBttaP/nxLTAv316mkBz00TSRSECdLq2ub1Utue/vnqCVgkt8nXZXHEg/m0Nv1V5fqgNC+5GmnG4Adptz64XSdNy75t29ux9Jz6oDOCFBwAmf9A2kx/7SS3rY7KKM9F4uKHoJGKEdhZq/lsf5FUBv9oefhpta1PC1XCaODLtMdztd+VniL5IEfqJ7C7Fp0hlcm9LXn9Rlx26Ec2Y0lKDkBm+PP14VKpLfVUZjk88D8sA8X/GQRW0bdXSl2YHrxiRslb+MVhwS6Fei9TeedLDnOTFj9+2ddORLsXt8zBfNK8HAk5SCriNKboALj9ezCfL90pTcqprdt5DttsVpRIc+ZsIQiOqLpftLXO88rV6ofRbdmxyswq2APeN6UnSF1Mvj7iDZIvnsyY8H8xC7+++pPSmlLRlKoDkJXP48CxEm2gn8F54vKkDFTH/tv5eZH0K6mrbaPVt5s/psMVmzXoC8XAFwANmt/VT61Ku6g0J0tZ+fm/lMUp4uI+MW5K3QHIysvdAkvbwux+cbQgbZyBavn/R6h8Ptu/WprNoWvfPV62NvnJbl2r0EHldcjvy9IkB4AUGsiDl5SvS1M+g+p69nIPdC+XZl/dr0WFUlscABd2VelDUioPbZldl1V+XyQub5OWl9qWllOBniP9TGJKcOlxsdUOwFaq7Co7TKp5nyYur5E8GKaeHO73LTqE+/vbusP9n5bGCfdr9b7UJgcgK5ynBY6TUu3DVdp9rrjsnYFK/L8vdjxEulyqklmqeTsa0trUtYsAx22EfhmRb3PZMdEWYO/1d9K45e7C+pOG+/OaQhsdgKycnha4hDaU24eOFpcUpwV8Yes+0hGS75LqQn+fpIw+QWj9RaB07mId4EQ1hgOklaToaV0Z+CWJUF5/3V4jLq+QlpHKSm12AMzIkbAPS0wL9LcnnyS8VUphWmA92en3IPxZmuSA2LVtfH1Y65Ovhu9axU5T3pvEy1GBbQO2DHv2B0rXStOUsY3b2hlaINk5Kju13QHIeG2uDz+V2tg+pi2TDxb7ZqCC/Xck0GPW7dK05ezS9l8MVo+VmPMyGsVEncIX03mO9AVSBO//sbLjVKlLHbRoWX8rLn5qWVWpKw5Axu+F+sCccX5f8wnVQzNQDf5fS/t+k3S+VLSfsN5MVs9rsP5q27Wf44xnOLPix+0IV4rh+6V5tdXa0h35jNaeKuH+/jp0uP+VUpnhfmXXl7rmABjAqtJHJKYF+tudpwUOlpo4MfCJwP9IjOn99TLOuH6jGKYw3Sszp08OD40Dh3Xzefkg7AeqOCqwnFRl8kHN4X4f5KiPmQyqDPfn1WkXHYCMA9MCM9teb1+sa1rAT6t7jXS61Lt/Pk/Ow9e8dCZtppLiyU/eWPI62iVi+q/SBhW0okcrT1/Fnrffri/zXQ+e86wzddkByDj/oz5cIXW9/c0uv6cKvyFVMQ74HRWflRxxmL1fvk/OZJF4PkTqVPq4SkujKZ+BHasjJd92M20oeh3l4WgN4f7+evKFj6+SfCFk3QkHYDFxn4l+VOJkor993iwub5amjQw6LO3I30kS43U1DN4htp1Lq6rEF0k0quoYmK/nBn0gHyf5oOYQ33US9TOTgZ0hnwWtLTWVcABmkt9GX38p0Vb7GZwtLnvOxFXo2xZayydp10twrY6BI4hNXLuh3TaffKX0rRINrFoGd4jx16Q9pFHpUVrh9xJ10s/gZHExn6YTDkB+DbxIi5kW6G+3nhb4ujRqWmAFrfMP0i8kb8MYUC0DPxL84VKnk5/8RQiv2obW25HPEu83SGvManU+o/2cRLi/vy4c7n+11ES4X7vtSzgAfUj+vsDTAh+TGFP627GnBXyr3uxpgYdr2aHSVVLvWMHn6njcIta+tookAnYCfJZKg6uPgSMvX5B8RuuDmw9y8J/JwM6QnSI7R5ESDsDo2mBaYGZb7u3bPgnYS/K4+yMJp38wq15uZX32mX+ESKLMiJN2kikXS2VBJh9YTtMGTlNb3DVO95hhCQ7ADBxDv/ggd6k0TVtgW/iV1QY8vbrJ0BZb449RQpou8hnSLtKnJXukJAg0QeB67fS1ksNzvkCHlDaBo2X+ttJ/SfemXRSsT5iAQ/4HS7tLf0m4HLWYvrX24otW7pHK8rzIB5bD2oCdTt/yuI4UPREBmKyG7AgcLw1rB/wGnzLbgE8o3ic9WCKNScAPR/A9kn+RyqwU8oJnbxvwE812k1JJOADT1RTTAvT/3v5fxedT1UR9K/Uq0zVVtjYBT1XsIx0hERWg85bVYW9QezpIWlZKKeEATF9bc5XFfOkuqaz2RD7dZukwv6OIvp6NVBGBDZWvowKXSXQ4GEzSBnyP8wJpPSnFhANQXq35gTfHSJO0I7aBm9vAeZKPSWtJpJoI+KEVL5COlXhoBR2x6GCcWrg/rzvhAORRmW4Z0wKMIUXHEK93p+SItCPTpIYJbKb9f1DiXnY68aBOfKPaR4rh/ryuhQOQR2X6ZUwLMH4MGj+y5Reqmflsf93pmxs5lE1gRWWYRQWyCuN/tzt16uH+vD6CA5BHpbxlnhZwZJGxAwZuA75OJDvbn/YFa8qKVAeBrbQTRwV8oRcduZsMHO73fbdtSzgA9dSopwW41qibY4ePGZdLPoY8TCIlSmA12e3bMXwwwBHoBoM2hfvzuh0OQB6VapZ5WsAHAe4+6sbY4eeBOPrjSHJqdwfJZNIwAn7SoG/TuFXCGWgfgzaG+/PaMw5AHpVql22v7E+QGDfayeBK1a0dvYdLpJYTWEPlc1TAL8WgQ7eDwRmqyzaG+1WsvoQD0IeklgWe/z1Qukpi3EifgU8YsrP95fWZ1EECWVTgdpWdTp0eg7aH+/O6JA5AHpX6lvkE4jCJaYH0xguP8R4zHAneWiJB4AECfiiMb+/4k4QjEJ9BV8L9DzTOWX9wAGYBaejrDtov0wLxx4psPD9V9eXI78oNtRd2mwABHjscv0OfoXa0RwJtqSoTcQCqIjt+vkwLxB4vblaV+mzf13CQIDAWgQ20tqMCl0iZF8n/5lg4dHeQ1PWrc3EA1AiCpTVlD9MCzY0Ns8fl7Gzfd3GQIDAVgd6ogN8pPrux8b1aJlm4f/2parE9G+MAxK1LTwv8RmJMqJ/BHeLuB/Z0OTqo4pOqJPAIZe7bRa6W6OTVM/iDONOhBaEn4QD0wAj4kWmB6seF3rH3fLUBR2rXDtgWMKmlBHgZUbWdPAv3L9fS9jNNsXAApqFX37bZtABRw/LHit6X8djhIkGgMQJ+drijAtdJvZ4pn8fnQbh/dDPGARjNKNIaO8oYpgXGHwvyxs8/iqXP9h8cqYKxBQImsJLEy4gm7+gO9z/OIElDCeAADMUT8kemBSYfFxxBOVbyuxk42w/ZvDFqNoGdtcC3nyyS8jxZli3lcpMY+ep+wv2CUCDhABSAFHQVpgWW9vtRY+AVqkNHVjcOWpeYBYGRBNbQGsdJoxp7F393uP+r0voSqTgBHIDirKKuuZMMO0nqYr8vUuYPiE3Xb/eN2naxqyABXxtwjFSkwXdtHV+5u09Bjqw2kwAOwEweqX7LpgW4o6h/jMyuBfITWkkQSIqAHz4xX7pL6tqBfVR5/SZGs/FdFKTJCOAATMYt6lZMCwweJ7O7gYgGRG292DWDgC9UuVQadSDs4u9Hi8vDZtDiyyQEcAAmoRZ/mx1l4olSF8eGUWU+XVy68rbP+C0VC/sIEO4fPHBdIFqE+/uazMQLcAAmRhd+Q6YFBo8jTAuEb77dM5Bw/+AOS7i/mv6AA1AN10i5Mi0weFy5QRXlu4aYFojUYjtoC+H+wZ3U4f6NOtgm6igyDkAdlGPsw3cLMC2QP854WmC3GNWEFV0isLkK+zNp1LxVF393uP/JXWoMDZQVB6AB6A3ukmmBwWMt0wINNsyu7Xo1Ffij0t1SFw/uov80iQAAHOJJREFUo8p8grgsJ5GqJYADUC3fqLn7ZTd3SKP6YRd/v15cXiv5za2kggSAVRCUVnO4/xzpYGl5idRP4Dwt8mM7SRCAQPkEPPf91/KzbUWOdo4+J50qMS1QsEpxAEaDysL9P9CqG49evdNrMDh1uvopfA0E6GPDIWfXTCzQarwwaDgrwiVD+Kyi3+ZLZ0v7SqTRBBicRjNiDQhMQ4A+Npqer5k4QLpQ4m6BIbyIAOTDcbjfj6p9r7RC/ioszSHA4JQDhUUQKJEAfaw4zLW06iek30u7Ft+sO2viAMys68319acS4f6ZXIp+u6LoiqwHAQhMRAAHYHxsO2uTkySmBWaxwwFYDCQL95+lr0+ZxYivxQkwOBVnxZoQmIQAfWwSanPmMC2Qww0HYPHV/Vm4f8UcRiwqRuAerXZdsVVZCwIQmJAAUbYJwS3ZjGmBHn5ddgA2EwfC/T2NYcqPV2p7P5SDBAEIVEeACEA5bD0tcKLU6WmBLjoAWbjfV/cT7i+nMzkXzkzKY0lOEBhEgH42iMz4y338890CF0idvFugaw6Ar+73w2p8dT/hfkEoMXFmUiJMsoLAAAK3afktA35j8WQE1tZmvlvgZOmxk2WR5lZdcQAc7v+J9ANpXppVFd5qHIDwVYSBLSFAFKCaitxF2Z4kLZDWrWYXsXJtuwPQG+7fLxb61lmDA9C6KqVAQQnQ16qrGB8Tex8i1OpjZJsLR7i/uk6SlzODUh4VlkGgfAL0tfKZzs4xmxbwQ4RaOy3QRgeAcP/splzPdwalejizFwgwBVBfG2j1tECbHADC/fV1irw9MSjlUWEZBMon4FtuSfUR8HGyldMCbXEACPfX1xkG7YkIwCAyLIdAuQRwtsvlWTS33mmBxxTdKPJ6qTsAjxTcH0tc3d9sK7tdu7+5WRPYOwQ6QwBnu9mq9rTAb6UFUtJ3C6TqAGTh/nNUAU+VSM0S4IykWf7svVsEcACar28fO5OfFkjRAXC4/1yJh/k03wkyC3AAMhL8h0D1BOwA8Njt6jkX2UM2LeCHCCU3LZCSA7C5AGfP7n94kZphndoIcFFSbajZEQTm8OKteI3gUTLpJOlT0hrxzMu3KAUHYFmZ/k7pLOkp+cVgacMECEk2XAHsvnME6HPxqtzHqjdK50nPimdev0XRHQC/uvEY6T+lFfvNZ0kQAgxGQSoCMzpDgD4Xt6ofKtO+J31YslMQNkV2AAzxJGnvsPSaMezeZnY7dK8MRkPx8CMESicQsc95aoK0mMAy+vc26RvScosXxfsb1QFYR6iOlbaMh6wxi3yr3b9KfmtVtMRFgNFqBHvaTiCiA+Cr4g+X/tZ2+GOU74Va9yuSHYJwKaIDYJu+Lm0djlZzBn1/CY8P6L+do2gp4mAUjRH2QKBMAhGd7uVVwFdIj5f+UGZhE8/LjtHbI5YhogPwJoHizX2LW8vF+vc06TnSJYsXzfHUSLSEAxCtRrCn7QQi9rlsbDpR8H1V/L9IN7W9IgqW731ab6eC69a2WjQHYGOV/D9qK33cHTnc/2/SttJPZpmZdbJZixv7eqP2fEdje2fHEOgmgcgOgGvkPsm3xHka96tS16cFHB35nBRqKiCaA+A57rlSl9NRKvw20vulu3JARHMAIg5EOdhYBIFWEYjY7/LGpqtF/eXSE6QzpS6nx6jwz48EIJIDsL7AvCwSnJptcbj/6dKzpYVSXlpJC/3kqUgp4lxkJD7YAoEqCFyjTKNddZ/nAGRl/40+eFrgIOnmbGEH/x8cqcyRHABfKLFCJDg12eLw+b9L20k/HrFPd7BQISTZE/FMZARGfoZA8gTuVwmuClaKDUfYc69+/6TkaYGvSV2cFnisyr29FCJFcgCeG4JIvUZk4X5fIHJngV0P87ALbF7JKjgAlWAlUwiMJBCt720gi4ucoNhxOVDaU/ITXruWnhelwFEcgNUF5NFRoNRgx5+0j/0lh/v/Msb+cADGgMWqEGg5gWgOgJ/WOs5tyido/V0k3/nVpWmBJ6q8IVIUB8AhkbBPSyqxphzuf6/kq/t/NEG+o0JsE2Q59SbRBqGpC0QGEEiEQMS+N+5JiqcFDpM8LeDnv3RhWsBOT4hjbwgjBGMLqe3pByqgr+7/D6lIuD+Px7idKy+PspdxEWDZRMkPAsUIROx7k45RnhbwdWB7SWdLbU6rqHCeLmk8RXEA1mucRHUG/FlZP0Py26HGCffnWTRp58rLq6xlEc9Cyiob+UAgMoGIfW/aMerXAr6z9Gbplsjwp7RtWk5T7n7x5lEcgDbe++9w/3zJZ/0/lMpIIRpNT0EiXoncYx4fIdBqAhEdgDKmKT0t8AnJ0wLfkNo4LRDi7bZRHIBo97OqzU2VjtbWnuc/RJo03J9nQBmdKy/fSZf5XmR3VhIEIFA/gYgOQJknKVcK6UslXzR3Tv14K91jiHEzigNwXaWo68vc4f5nLpE/l53K7Fxl2BZxACqjXOQBgRQIROx/VYxRv1Jl7CS9RWrLtMANERpYFAdgYQQYU9jgs3yf7fus32f/VaQ1lGm0qZKIFyFVwZ48IRCRgN/D4feGREpVOAAun8+Y/0vytMA3pZSnBVyWS6TGUxQH4PTGSUxugOf3feCfL3nev6pUVceaxt6IZyDTlIdtIZAagWh9sOppSk8LvETaWzo3tcpaYu8F+p/3npfaixPFAXCl+uE4KSVf0e8r+32Ffx224wCk1DqwFQL1EIjmAPiOrjqe6XK89uNpgbdKi6SU0i+jGBvFATCP70WBMsIOh/v/Q/LV/T8YsW6ZP1ftWU9ia7TBZ5IysA0EUiYQrQ8uK5jr1wT0Hu3nY5KnBb5V0z7L2E1Zd4VNbUskB8Avh4ie/PQ+h/vfK1UZ7s/jQAQgjwrLINBtAtEcANdG3WOVGbxY2ls6T4qcLpVxx0UxMJIDcJag/CIKmFl2ONzv5/bvL9UR7p+1+we+1t2p8myYvYyLAGcT4TsE6iUQsQ82NVY5tL6j9DYp6rTAJ2Wbn58SIkVyAAzkPdLfQpBZbITD/X5Tn8P9Ry1e1NjfpjrVsAJHPPsYZi+/QaBtBCL2wSbHKk8LfFTaSvrfYJV9lez5bCSbojkAvxOcrwYB9GPZsZ3071Ld4f48BNGuAbhbRl6XZyjLIACB2ghEdAAijFWOjLxIepJ0fm21MXxH/6KfQ922Gc0BML6DpIX+0FBaqP063P906WIpSmrSq85j4Ds3IkVr8mxkGQTaTiCiAxBprPK08g7S26VbG2wM39S+j2xw/0nt2hXmJz75AFOXsnC/39QULdlR832jdbEosp+TokHqkD1vDNYW3F626BD/SEX1eFWkv9a5zk8jAeqxxZEJTwvUycL7OkOaK5HGILCP1rXHVkdlOdz/yDFsq3vV9WriMA5rvNm6W8HS/eEALGXBpzlz/FjZcfpu1ev6gu7IydMC50lVc3D+3o/H75Ap4hRABsq3SjxFujZbUMF/P47xOdLTpEjh/tlFjRRSy2yLGHrMbOM/BLpEIFpfjHANwLD6/7l+dJT5HVKV0wInKv89Jb80jTQhgYdpu19LZXprDve/X4oY7pdZfenpWlJm+cvIy52HVD+Bedrl76Uy6rDMPL4km1aqHwd7FIFjpDLrctq8fJtbKm3Bx5cjSuZ3n/LznQgrSqQSCCyjPF4l+crOaRvnd5RH5HC/zOtLr9aSactd9vYH9FnJgqoJPFM7uF4quy7Lyu8Psm3zqiGQfx+Bw7WkrDosK59N+6yMvWAfmXdaCRx91v/Y2EVN1zp7lf8kjVtRvqDwfyQ/JCLF9F4ZXVbHLCsfz6OR6iGwvHbzMclnVmXVX1X5uK/59itSfQQ+oF1VVZ+T5vu4+opf2p58ovkMyY/qvVcqWnZHlL8neUx0Hsmk5ZKxdLGhBv3ZJXqE/j9Z2kXaWvKFFutIN0ue1/H8vs9IfLW6bwXxtqmmiNcAXJEqzMTsnid7feXyronYvZrs/Ka0l3SQlHK/k/lJpGjXABhaxDFrVGX6gH/0EvlY4qjAbtI2ksuzunS35Da9UDpf8vHF1xT4uEOCQCUE7JEW9UbrWs8DPalaAj4buV6qq07L3o9f1+rBk1QtAV/IXHbdTZvfm6stMrmXQSDyXQBllK8teUS7qtYRlkVtgRuwHI7MzZe+L60tpZocmfut9OJUC5CI3UQAEqkozITAJASu1kbTeuRlbn/BJIVgm0IENtJaJ0pl1leEvBaoTKsUIsBK4xJwm4lQx702fGPcQrA+BCDQT2B5LbpP6u1cTX/2NRWk8gmkHvIf1S6ZEii/zThHR4zGuWhtVD2V8fsvqykquZZJgCmAMmlWk9cGyjZaPXEBYLl13ZaQ/ygqTAmMIjTZ7z74V/nAtEmsSvEiwEnKmfQ20Q4sScOsyPho8/8uZsQ5x4rwV56tw7e/kt4rdaE/+uJRh4cXSEwJCEJJKVqfjDhulYS6Pdl0YcBJvbYietLRBptU69ghf9+qunuqBZjC7gO07SkSdwlMAbFn02h9cq5sW6PHPj4GJIADELBSZpmEAzALSAu+diXkP6qqmBIYRaj47xGn5SKOXcWJdmBNHID4lRyxE0U724hfi0st7FrIf2nJ8z8xJZDPZdylV467QQ3rRxy7aih2OrvAAYhfVxE7UcSzjfg1ufgxo10N+Y+qH6YERhEa/nvEPsl1AMPrrPFfcQAar4KRBkTrRL5F6KqRVrNCLwFC/r00Bn9mSmAwm1G/RIzKRTx5GcWxU7/jAMSv7mid6Hoh4/nuxdsNIf/irLwmUwLj8crWxgHISPC/MAEcgMKoGlsxmgMQcaBprHJG7LjLV/mPQDPyZ6YERiKasULEKYBoY9cMYHzpxn3HKddzxFtpcABGtyhC/qMZFVmDKYEilBavc53+3VV89VrWxAGoBfPkOyECMDm7OraMNv/vMkc806ijLorug5B/UVLF1mNKoBiniNfmRBy/itHsyFo4ALErOqIHTQRgcJsh5D+YzbS/MCUwmmC0vhnxMeajKXZoDRyA2JWNAxC7fjLrCPlnJKr9z5TAcL7RonPLy9x1h5vMr00SwAFokv7ofUcMoUU7yxhNsdo1CPlXy3d27kwJzCay9HvEvhnxJGYpsY5/wgGI3QAcQouWIg4yTTEi5N8U+TlzmBLoZ8/TAPuZsGQIARyAIXAC/BQxAhAtzNhENRHyb4J6/z6ZEpjJJGLfjDiGzaTW4W84ALErP1r47D7huiY2ssqtI+RfOeKxdsCUwFJcEaNz0cawpbT41In3j6dczdE6jx8BbCegq4mQf9yaZ0pgzhwcgLjtM6RlRABCVsvfjYp2DUDEAebvsCr8QMi/QrglZt31KYGIUwDRTmJKbG7pZ4UDELcO15ZpKwczL+JFRlUjmqcdnCC9V6K/VE17+vyzKYHPK6uVps8uqRxukbW3BrN4/WD2YE4PAQa0HhjBPtoBiJYuj2ZQxfY45H+6tGvF+yH78gm8RlmeJm1Tftahc4wWpYt2EhO68uo2DgegbuLF9xex43QlAuAHmHxMOkqK6IgVb0XdXjObEnhRhzBEcwCW7RD75IqKAxC3yu4OaFrEOcayMfkq/+Olt0jLSKS0CXhK4JvSAmmVtItSyPpoffTGQlazUiMEcAAawV5opzcUWqveldo+BfBM4fyDtHu9WNlbDQR8l8BJ0uY17KvJXSxscuc5++5K1DCn6PEX4QDErSO/3vPmYOZdHMyesszJQv7fV4aE/MuiGi+fHWTSqVKbpwTOC4b93GD2YA4EkiHgq8/9ms8IckSijQ6jr/L/bRDGEeq5Kza09S6BTYK15X1lDwkCEJiAwCHaJsqA7Avi2pYc8r9eisIYO+qtC0/3tHFK4MIgbfo22RHxYmaZRTKBNp7Rtalmjw5UmO8FsmVaUwj5T0uwHdu3dUrgG0Gq57uy444gtmAGBJIkcLasbvrMcJFsWD1Jev1Gz9MiQv7Nt6mm2/Ts/bdpSsB3stwlzS5j3d/36O9+LIEABMYh8HKtXHfHnb2/j49jcOB1Cfk335Zmt61I39s0JfC5hseNnwceBzANAskQ8HPoL5CaGih9J8IGydDKNzQL+d/fIMem6o/9jtd3blEbeVF+M0pqqR/Be4PURP3fo/16eoUEAQiUQGBv5dHUwetNJdjfZBbztHNC/s0cCJo4+JS1zzZMCbxcbb8sHuPk8/4mOzz7hkAbCTgMP04nLGPdY7TPlC8UJeRff5spo91FyaMNUwJfrnncOF77c9SSBAEIlEjAYezjpLoGx4u0rweXaH+dWRHyr6+d1NUem9pP6lMC7gs/kurgd6b2s1adHZ19QaBLBPxc8zrC2Qu1n00TBTtPdv9OqmPAYx/d4ZzylIBfi/zdivuE+1yqJwwynQSBNAjMlZl+PkBVBx978b6NKMVEyL+6dlFVe0sp35SnBPxWvvdJ90llMz9ceXpcIkEAAjUQ8Lz8O6S7pLI6sy8y/IKU4hvTCPmX1w7Kak9tzSf1KYHHq4+X9WyRy5TX8yUSBCDQAIEttc8fS9MOtqcpjz0bsL+MXc5TJl0L+fs2q2nrvOztI9pUdhl780t5SsAX6b1MOnfCduQD/8ESZ/2CQIJA0wR2kQGHS75nv3eQGvbZA/ZR0tOkVN9738WQ/7dVX++WhtVtE789SzadE9CuKlmkPCWgqnog7aq/H5F8EnC3lMfL0wau2/+W9pE8nUBqAYFUB/4WoK+kCH7xxh6Sw3xbSRtLa0r2+G+U/iqdL50s/UKyw5Bicsj/g9Kbpa604TtVVp91eRB+o/QpKVLaQsZcLn1aekUkwyq2ZZHyf630rYr3U0f27le++NevxPbZvZ/jf4P0Z8nTjSQIQAACjRLYSHs/Uco7U2nrsoUq72OlLNkBiFbW3rfqHSD7fGCMZmOV9ixQeVO8fkZmkyAAAQjEJ/B0mdi11/c65L/6rKqJ7gDYXEegujglkOrts7OaGF8hAAEIxCHg8Pe9UpVncZHydvj19QPwp+AA2HSfEX9FisS1aluuVXkfJ5EgAAEIQKAEAj74Vz1wR8p/ocrbG/KfjTAVByCzu2tTArep4Htlhec/BCAAAQhMRuCl2izSwblqW76r8vrCzWEpNQfAZfFFgmdKVfOLkr+fF7C1RIIABCAAgQkIbK9tHAqPMqhXacewkP9sdCk6AC5D16YEfA3ESrMrj+8QgAAEIDCcgO81PkWq8qAbJe8/qpw7Dccx49dUHYCsEAfqw61SFP5V2nFoVmj+QwACEIBAMQL/T6tVOTBHybtIyH82sdQdAJenK1MCfrgOdwbMbsF8hwAEIDCAgB9ctFCKcpCuwo5xQv6zMbXBAXCZujIl8MXZFch3CEAAAhDIJ+DHylZx0I2S50KVb9hV/vlUli5tiwOQlajtdwncroKulRWW/xCIQuBBUQzBDgj0EHhJz+e2fTxCBfLFjX4cM2kxga/p32Mkv5ymjWllFerZbSwYZUqbAA5A2vXXRuv9PPJ9W1gwP8v/DdILJd8iRppJ4Hx9tRPwPzMXt+abn2JJgkAoAjgAoaoDY0RgW2mNlpG4ROXZS/KLfEiDCThU/kopu0tg8Jrp/bJ7eiZjcdsJ4AC0vYbTK9926Zk81GJC/kPx5P7YximBDVTS9XJLy0IINEQAB6Ah8Ox2IAG/7a8Nya9PfZNEyH+y2vSUwKOkT062ecitNgxpFUZ1lgAOQGerPmzB23C19MWiu5t0WFjKaRjm6yYOkl4m+fn6qae1Uy8A9reLAA5Au+qzDaVZJvFCfE/2P1o6I/FyRDJ/gYzZRTorklET2JJ6256gyGwSmQAOQOTa6aZtqZ7p+Wz19dJzpZu6WXWVlvpC5e6oSsp3CfjxxyQIhCGAAxCmKjBkCYErEyThkL+v8v5sgranZHJ2l0CqUwJ/TQk2trafAA5A++s4tRKm9jAYQv71t7AUpwRuEabL60fFHiEwmAAOwGA2/NIMAc+d39vMrsfaKyH/sXCVvnJqUwKni8D9pVMgQwhMQQAHYAp4bFoJgUXK9cRKci4v0+zBPoT8y2M6SU7ZlEAKDw768SQFZBsIVEkAB6BKuuQ9KYEjJ92whu14sE8NkMfcRfbgoHPG3K6u1X3m79c+kyAAAQhAYASBNfS7IwF/C6Q7ZMs/SRFS294GWBbTVZTRV6RI7ca2/LSsApIPBCAAgS4QOFSFjDKQL5Qtjw0EHQdgeGVEe73wXsPN5VcIQAACEOglsKa+XC017QR8Wzas3mtYgM84AKMrYSutcrbUdPs5arSprAEBCEAAArMJPEsLmhrAs8fQzrYpwnccgGK1sJJW8+OYm2pDfiBUW95tUYw4a0EAAhAokcB/K6+6B/A/ap87lViGsrPCARiPaHaXQJ3t6D6Z+JzxzGRtCEAAAhDoJbCcvvxEqmvwjhjy7+XhzzgAs4mM/l73lMBbR5vEGhCAAAQgMIqAQ7k/kqp0AiJd5T+KBw7AKEL5v9dxl4Bv+Xt7/u5ZCgEIQAACkxBwJODjUhVOwEXKN3LIfzYvHIDZRMb77imBKm4zdZ4vGM8U1oYABCAAgaIE9tOKfhJfGY6AHzn8CclnhiklHIDpa2sTZfFzqYx25Dx+IT1CIkEAAhCAQIUEVlbenmP129UmGcDv0XZ+op/nhVNMOADl1dr+yuoUaZJ25G1OlZ4pkSAAAQhAoEYCy2tfvtLaj4K9Who2iN+t338jvUPaUEo54QCUX3uPUZYfky6QhrUj/3b+knUfrf8kCCRLYJlkLcdwCPQT8D3XPqtfX3KUwIO1HQO/htXPibcT0IZkB+BTwQqyhezxtRRtSH4I1baSHUU/ltrpZskRJz9cyPf3kyCQPAFfWEWCQFsIXKaCWCQITEPAB3hHi0gQaDUB3gbY6uqlcBCAAAQgAIF8AjgA+VxYCgEIQAACEGg1ARyAVlcvhYMABCAAAQjkE8AByOfCUghAAAIQgECrCeAAtLp6KRwEIAABCEAgnwAOQD4XlkIAAhCAAARaTQAHoNXVS+EgAAEIQAAC+QRwAPK5sBQCEIAABCDQagI4AK2uXgoHAQhAAAIQyCeAA5DPhaUQgAAEIACBVhPAAWh19VI4CEAAAhCAQD4BHIB8LiyFAAQgAAEItJoADkCrq5fCQQACEIAABPIJ4ADkc2EpBCAAAQhAoNUEcABaXb0UDgIQgAAEIJBPAAcgnwtLIQABCEAAAq0mgAPQ6uqlcC0l8LeA5YpoU0BMmASBOARwAOLUBZZAoCiBO4uuWON6t9e4L3YFAQiUQAAHoASIZAGBmgncVPP+iuzu5iIrsQ4EIBCHAA5AnLrAEggUJfDnoivWtN7V2s+tNe2L3UAAAiURwAEoCSTZQKBGAhdqX/fUuL9Ruzpn1Ar8DgEIxCOAAxCvTrAIAqMIeL79lFEr1fj78TXui11BAAIlEcABKAkk2UCgZgI/rHl/w3b3o2E/8hsEIAABCEAAAuUR2FhZ3Sf59rsmdXZ5RSInCEAAAhCAAASKEDhCKzV58Pe+X1HEUNaBAAQgAAEIQKA8Atspq3ulppyAi7Tv5csrDjlBAAIQgAAEIFCUwGFasSkHYL+iRrIeBCAAAQhAAALlEpir7M6V6nYCPltuMcgNAhCAAAQgAIFxCWylDW6Q6nICfqt9rTSukawPAQhAAAIQgED5BPZQloukqp0AX/W/TvnmkyMEIAABCEAAApMSeJQ29GN5q3ICTlDea09qHNtBAAIQgAAEIFAdgQ2V9fFSmU7A/crv49IKEgkCEIAABCAAgaAE/ITPV0vXSNM6Aqcpj90lEgQgAAEIQAACiRDwHQJvksa9S8BPGDxWeqa0jESCAARaSIDO3cJKpUgQyCGwg5btI+0mbSF5qmA1yQ8S8sWDfsXwedKvpWOkv0okCECgxQT+P343UXFhg238AAAAAElFTkSuQmCC;" vertex="1" parent="1">
          <mxGeometry x="711" y="368" width="12" height="12" as="geometry" />
        </mxCell>
        <mxCell id="57NM1Wxke1sPUCWePYtD-42" value="" style="endArrow=none;dashed=1;html=1;rounded=0;entryX=0.5;entryY=1;entryDx=0;entryDy=0;exitX=0.5;exitY=0;exitDx=0;exitDy=0;" edge="1" parent="1" source="57NM1Wxke1sPUCWePYtD-25" target="57NM1Wxke1sPUCWePYtD-28">
          <mxGeometry width="50" height="50" relative="1" as="geometry">
            <mxPoint x="560" y="370" as="sourcePoint" />
            <mxPoint x="610" y="320" as="targetPoint" />
          </mxGeometry>
        </mxCell>
        <mxCell id="57NM1Wxke1sPUCWePYtD-45" value="For every other block" style="edgeLabel;html=1;align=center;verticalAlign=middle;resizable=0;points=[];" vertex="1" connectable="0" parent="57NM1Wxke1sPUCWePYtD-42">
          <mxGeometry x="-0.0704" y="-1" relative="1" as="geometry">
            <mxPoint as="offset" />
          </mxGeometry>
        </mxCell>
        <mxCell id="57NM1Wxke1sPUCWePYtD-46" value="Output: text" style="rounded=0;whiteSpace=wrap;html=1;fillColor=#f8cecc;strokeColor=#b85450;" vertex="1" parent="1">
          <mxGeometry x="530" y="430" width="240" height="40" as="geometry" />
        </mxCell>
        <mxCell id="57NM1Wxke1sPUCWePYtD-54" style="edgeStyle=orthogonalEdgeStyle;rounded=0;orthogonalLoop=1;jettySize=auto;html=1;entryX=0.5;entryY=0;entryDx=0;entryDy=0;" edge="1" parent="1" source="57NM1Wxke1sPUCWePYtD-52" target="57NM1Wxke1sPUCWePYtD-8">
          <mxGeometry relative="1" as="geometry" />
        </mxCell>
        <mxCell id="57NM1Wxke1sPUCWePYtD-52" value="Input Text" style="rounded=0;whiteSpace=wrap;html=1;fillColor=#f8cecc;strokeColor=#b85450;" vertex="1" parent="1">
          <mxGeometry x="380" y="190" width="80" height="40" as="geometry" />
        </mxCell>
      </root>
    </mxGraphModel>
  </diagram>
</mxfile>
